<?xml version="1.0" standalone="no"?>
<!DOCTYPE svg PUBLIC "-//W3C//DTD SVG 20010904//EN"
 "http://www.w3.org/TR/2001/REC-SVG-20010904/DTD/svg10.dtd">
<svg version="1.0" xmlns="http://www.w3.org/2000/svg"
 width="512.000000pt" height="512.000000pt" viewBox="0 0 512.000000 512.000000"
 preserveAspectRatio="xMidYMid meet">
<metadata>
Created by potrace 1.16, written by Peter Selinger 2001-2019
</metadata>
<g transform="translate(0.000000,512.000000) scale(0.100000,-0.100000)"
fill="grey" stroke="none">
<path d="M2310 5113 c-1011 -103 -1869 -793 -2185 -1756 -54 -166 -98 -362
-115 -522 -15 -138 -12 -457 5 -592 101 -769 528 -1437 1187 -1855 281 -179
618 -305 975 -365 135 -23 597 -26 733 -5 301 46 552 126 809 257 238 121 454
278 647 470 406 405 664 929 739 1498 20 156 20 478 0 634 -62 472 -255 925
-552 1293 -88 110 -275 298 -383 384 -386 309 -856 505 -1332 556 -90 9 -446
12 -528 3z m500 -1534 c401 -103 694 -412 782 -824 7 -33 12 -121 12 -195 0
-74 -5 -162 -12 -195 -89 -414 -382 -721 -787 -825 -114 -30 -295 -37 -412
-16 -576 100 -960 634 -868 1203 71 438 412 784 858 869 104 20 317 12 427
-17z"/>
</g>
</svg>
