<?xml version="1.0" standalone="no"?>
<!DOCTYPE svg PUBLIC "-//W3C//DTD SVG 20010904//EN"
 "http://www.w3.org/TR/2001/REC-SVG-20010904/DTD/svg10.dtd">
<svg version="1.0" xmlns="http://www.w3.org/2000/svg"
 width="1499.000000pt" height="930.000000pt" viewBox="0 0 1499.000000 930.000000"
 preserveAspectRatio="xMidYMid meet">
<metadata>
Created by potrace 1.16, written by Peter Selinger 2001-2019
</metadata>
<g transform="translate(0.000000,930.000000) scale(0.100000,-0.100000)"
fill="#000000" stroke="none">
<path d="M12585 8983 c-108 -18 -235 -102 -266 -175 -12 -29 -11 -32 12 -50
20 -17 33 -19 84 -13 77 8 162 56 225 127 14 15 28 28 31 28 3 0 25 -27 49
-60 24 -33 47 -60 52 -60 4 0 8 -7 8 -15 0 -8 3 -15 8 -15 4 0 45 -51 92 -114
47 -63 91 -115 98 -115 6 -1 12 10 12 24 0 22 16 68 41 118 15 28 47 118 59
165 21 81 -29 134 -122 130 -36 -1 -38 -2 -11 -5 39 -5 93 -53 93 -82 0 -30
-29 -99 -62 -149 -15 -24 -28 -45 -28 -48 0 -2 -9 -13 -20 -24 -19 -19 -19
-19 -51 25 -18 25 -36 45 -41 45 -4 0 -8 7 -8 15 0 8 -4 15 -8 15 -5 0 -29 28
-54 63 -25 34 -56 73 -68 87 -12 14 -29 35 -37 47 -16 24 -57 41 -88 36z"/>
<path d="M11824 8308 c-12 -12 -24 -31 -28 -41 -7 -20 24 -98 47 -122 21 -21
88 -46 114 -43 12 2 23 0 23 -5 2 -15 -12 -104 -24 -152 -8 -27 -21 -88 -30
-135 -10 -47 -22 -103 -28 -124 -13 -51 -26 -136 -21 -136 11 0 172 128 205
162 42 44 57 103 41 171 l-10 42 -1 -52 c-1 -68 -30 -123 -81 -151 -35 -20
-98 -41 -105 -35 -8 8 17 43 31 43 7 0 13 3 13 8 0 4 18 18 40 31 21 13 47 36
58 50 19 27 36 131 21 131 -5 0 -8 -3 -8 -7 6 -38 -5 -67 -40 -102 -34 -34
-86 -59 -98 -47 -2 2 2 30 10 63 8 32 22 94 32 138 9 44 23 106 31 138 13 53
13 61 -3 95 -18 39 -47 72 -62 72 -5 0 -11 5 -13 11 -2 6 -24 13 -48 16 -38 4
-48 1 -66 -19z"/>
<path d="M11276 7957 c-27 -25 -46 -93 -46 -161 0 -52 24 -152 41 -172 18 -22
24 -19 -156 -57 -250 -53 -315 -68 -315 -74 0 -2 15 -19 33 -37 17 -17 66 -69
107 -114 82 -90 132 -126 164 -118 28 7 82 57 90 84 4 12 12 22 17 22 5 0 9 6
9 13 0 6 -15 -5 -33 -25 -40 -45 -65 -53 -111 -34 -35 14 -126 124 -126 151 0
7 -7 18 -15 25 -29 24 -16 37 48 50 86 16 191 39 259 56 32 8 67 14 77 14 11
0 32 16 48 37 25 32 28 46 31 124 7 166 -56 277 -122 216z"/>
<path d="M12600 7940 c-42 -42 -16 -131 52 -180 34 -25 50 -31 75 -27 31 5 32
5 27 -26 -3 -18 -12 -52 -19 -77 -8 -25 -21 -74 -30 -110 -23 -90 -44 -167
-61 -221 -24 -80 -19 -103 28 -141 64 -50 70 -54 114 -90 92 -75 116 -93 127
-93 12 0 35 73 91 285 9 36 23 88 31 115 8 28 17 61 20 75 3 14 12 50 21 80
19 71 11 117 -29 162 -43 47 -95 65 -135 44 -34 -18 -42 -33 -42 -86 0 -32 8
-46 45 -84 40 -41 49 -46 90 -46 51 0 52 -3 31 -70 -8 -25 -22 -74 -31 -110
-16 -65 -30 -117 -58 -220 -9 -30 -18 -70 -22 -87 -4 -18 -10 -33 -14 -33 -9
0 -59 37 -76 55 -5 6 -32 29 -60 50 -27 22 -59 48 -70 57 -11 9 -30 25 -43 35
-19 15 -21 22 -13 48 10 32 32 109 55 197 8 29 21 78 29 108 65 235 72 274 58
309 -36 86 -141 131 -191 81z"/>
<path d="M2154 7798 c-24 -11 -32 -25 -64 -108 -12 -30 -26 -64 -30 -75 -5
-11 -19 -45 -30 -75 -12 -30 -28 -67 -36 -82 -8 -14 -14 -33 -14 -41 0 -8 -6
-19 -13 -25 -17 -14 -109 58 -155 121 -46 64 -51 98 -18 128 44 42 55 49 73
50 11 0 13 3 5 6 -13 5 -83 -26 -115 -51 -30 -23 -33 -79 -7 -128 22 -42 118
-170 132 -176 5 -2 8 -10 8 -17 0 -7 7 -15 15 -19 8 -3 15 -12 15 -19 0 -8 6
-19 13 -25 10 -8 17 1 30 41 10 29 25 67 33 85 25 57 41 96 63 152 24 61 31
78 55 132 l17 37 62 -33 c83 -45 182 -64 244 -48 44 12 72 34 73 58 0 16 -49
63 -83 81 -74 38 -224 55 -273 31z"/>
<path d="M11887 7385 c-104 -54 -83 -171 41 -234 56 -28 138 -28 186 0 l36 21
0 -34 c0 -18 6 -69 14 -113 15 -82 33 -194 61 -370 32 -200 37 -225 47 -231
11 -7 5 64 -17 196 -7 47 -21 132 -30 190 -30 195 -72 437 -82 472 -7 29 -61
76 -110 98 -54 24 -107 26 -146 5z"/>
<path d="M3045 7373 c-11 -3 -31 -15 -43 -26 -24 -22 -62 -95 -62 -118 0 -13
52 -119 105 -214 40 -72 85 -162 85 -169 0 -10 -56 -6 -91 6 -39 13 -68 44
-69 72 0 14 -3 17 -10 10 -8 -8 -7 -20 2 -40 23 -51 61 -77 160 -109 77 -25
84 -45 15 -45 -95 1 -165 49 -187 131 -6 22 -13 39 -15 39 -8 0 7 -76 22 -112
14 -33 69 -88 88 -88 4 0 21 -6 38 -14 18 -7 55 -21 82 -30 28 -10 62 -24 78
-32 33 -19 34 -10 3 47 -14 24 -36 65 -50 90 -13 25 -39 73 -57 105 -18 32
-52 97 -76 144 -24 46 -48 89 -53 94 -16 16 -12 25 9 23 33 -2 88 35 110 74
13 22 21 55 21 82 0 37 -5 49 -26 66 -26 21 -40 23 -79 14z"/>
<path d="M11234 7193 c-41 -27 -74 -71 -74 -102 0 -29 29 -60 69 -72 32 -10
44 -8 83 10 55 25 88 63 88 102 0 16 4 29 9 29 5 0 55 -27 111 -60 56 -33 103
-60 105 -60 2 0 49 -27 105 -60 56 -33 105 -60 110 -60 4 0 13 -7 20 -15 7 -8
19 -15 27 -15 13 0 13 3 3 15 -7 8 -16 15 -21 15 -4 0 -27 13 -51 29 -24 15
-70 43 -103 61 -33 18 -93 53 -133 77 -41 24 -75 43 -77 43 -2 0 -38 20 -79
45 -91 54 -131 58 -192 18z"/>
<path d="M3693 7193 c-32 -6 -47 -61 -40 -150 5 -71 41 -183 59 -183 4 0 8 -7
8 -15 0 -8 6 -15 14 -15 8 0 16 -5 18 -11 3 -9 40 -9 148 -1 278 22 300 22
300 4 0 -25 -36 -142 -54 -178 -17 -33 -52 -68 -77 -77 -18 -6 -88 27 -101 47
-4 6 -8 7 -8 1 0 -5 10 -19 23 -30 65 -59 117 -70 160 -32 20 16 177 306 177
326 0 2 -11 0 -24 -3 -19 -5 -283 -22 -441 -30 -22 -1 -29 3 -26 14 24 103
-15 252 -84 316 -14 13 -27 23 -28 23 -1 -1 -12 -4 -24 -6z"/>
<path d="M9102 7020 c-67 -9 -105 -31 -146 -83 -15 -17 -31 -38 -36 -44 -6 -7
-13 -27 -15 -45 -5 -28 -4 -30 4 -11 6 13 30 42 54 67 57 57 120 74 210 56 87
-17 137 -38 130 -56 -4 -12 -31 -14 -147 -12 -130 3 -144 1 -176 -19 -33 -20
-56 -48 -71 -83 -5 -12 -9 -9 -17 10 -8 19 -11 21 -11 7 -1 -10 6 -25 14 -33
8 -9 15 -11 15 -6 0 32 88 92 136 92 41 0 134 -33 134 -47 0 -7 -3 -13 -7 -13
-5 0 -23 -14 -41 -30 -19 -16 -56 -46 -83 -67 -27 -20 -49 -41 -49 -45 0 -4
-7 -8 -15 -8 -8 0 -15 -4 -15 -8 0 -5 -27 -28 -60 -52 -33 -24 -60 -47 -60
-52 0 -4 -5 -8 -10 -8 -17 0 -89 -76 -100 -105 -17 -45 -12 -127 11 -170 31
-58 66 -84 115 -85 33 0 46 6 75 36 33 35 34 36 34 122 0 84 -1 89 -33 130
-19 23 -40 42 -47 42 -7 0 -17 6 -23 13 -8 9 3 22 44 51 30 22 54 43 54 48 0
4 7 8 15 8 8 0 15 4 15 8 0 4 23 26 52 47 28 22 56 44 62 50 6 6 90 74 187
151 l176 140 -56 0 c-31 -1 -101 2 -156 6 -55 3 -128 2 -163 -2z"/>
<path d="M2384 6800 c-11 -4 -33 -25 -48 -45 -23 -30 -29 -48 -29 -91 0 -30 6
-61 14 -70 15 -18 33 -48 48 -79 5 -11 20 -36 33 -55 13 -19 27 -42 31 -50 4
-8 21 -37 37 -65 17 -27 38 -65 47 -82 9 -18 20 -33 25 -33 4 0 8 -5 8 -11 0
-6 16 -34 35 -63 19 -29 35 -57 35 -62 0 -10 -81 -128 -92 -132 -4 -2 -8 -8
-8 -14 0 -6 -13 -27 -30 -48 -16 -21 -30 -41 -30 -44 0 -3 -8 -15 -17 -26 -13
-14 -20 -17 -30 -8 -7 6 -13 14 -13 19 0 4 -12 25 -26 46 -14 21 -30 47 -35
58 -11 22 -20 38 -60 100 -14 22 -29 47 -32 55 -4 8 -16 29 -27 45 -11 17 -23
37 -26 45 -4 8 -13 22 -19 30 -7 8 -16 25 -19 36 -6 19 -2 23 29 28 79 15 128
155 75 216 -23 26 -90 34 -98 12 -2 -7 -8 -12 -14 -12 -14 0 -35 -27 -53 -69
-27 -61 -20 -91 52 -201 24 -36 43 -70 43 -77 0 -6 3 -13 8 -15 9 -4 82 -126
82 -138 0 -5 3 -10 8 -12 4 -1 33 -47 66 -101 32 -53 62 -100 67 -103 8 -5 48
46 129 166 19 28 41 58 48 65 6 7 12 18 12 24 0 6 4 11 10 11 5 0 12 10 15 23
5 16 -5 43 -32 88 -21 35 -41 66 -45 67 -5 2 -8 8 -8 14 0 12 -72 132 -82 136
-5 2 -8 7 -8 12 0 12 -73 134 -82 138 -5 2 -8 12 -8 22 0 12 10 20 30 24 66
13 113 104 95 185 -10 46 -56 63 -111 41z"/>
<path d="M10710 6806 c0 -3 17 -12 38 -21 20 -9 51 -22 67 -29 17 -8 50 -21
75 -31 25 -9 59 -23 75 -30 17 -7 50 -20 75 -30 25 -9 59 -23 75 -30 84 -35
86 -36 127 -23 28 8 50 24 69 51 34 47 35 57 10 88 -16 20 -28 24 -67 22 -39
-1 -52 -7 -76 -33 -16 -18 -32 -45 -35 -61 -6 -32 -22 -36 -61 -15 -15 8 -47
21 -72 31 -25 9 -58 23 -75 30 -16 7 -50 20 -75 30 -25 9 -58 23 -75 30 -39
18 -75 28 -75 21z"/>
<path d="M11353 6587 c-31 -46 -29 -66 3 -28 31 37 55 39 97 9 40 -28 95 -87
103 -110 3 -10 10 -18 17 -18 26 0 -16 -25 -80 -46 -37 -12 -93 -32 -123 -44
-30 -12 -68 -26 -85 -31 -63 -20 -69 -31 -68 -122 1 -115 43 -207 95 -207 28
0 35 14 48 85 8 42 -19 172 -38 184 -6 3 -12 14 -14 25 -2 15 14 24 92 53 52
19 109 38 125 42 17 4 39 13 50 19 11 6 31 13 45 16 14 3 32 11 40 16 13 9 9
15 -20 38 -19 15 -49 42 -68 60 -18 17 -37 32 -41 32 -5 0 -11 4 -13 8 -9 22
-70 52 -105 52 -32 0 -42 -5 -60 -33z"/>
<path d="M7317 6524 c-3 -3 -45 -12 -94 -19 -145 -22 -306 -66 -410 -111 -17
-8 -38 -14 -47 -14 -9 0 -16 -4 -16 -10 0 -5 -5 -10 -12 -10 -15 0 -162 -73
-166 -82 -5 -12 -32 -10 -32 2 0 6 -7 10 -15 10 -10 0 -15 -10 -15 -30 0 -23
-4 -30 -20 -30 -11 0 -20 -4 -20 -10 0 -5 -11 -12 -25 -16 -14 -3 -25 -10 -25
-15 0 -5 -6 -9 -13 -9 -8 0 -22 -9 -32 -20 -10 -11 -24 -20 -32 -20 -7 0 -13
-5 -13 -10 0 -6 -8 -14 -17 -17 -10 -4 -31 -20 -48 -35 -16 -15 -33 -28 -37
-28 -4 0 -55 -47 -114 -104 l-106 -104 -63 -4 -63 -4 -7 123 c-4 68 -11 123
-15 123 -4 0 -13 -7 -20 -15 -7 -8 -19 -15 -27 -15 -7 0 -16 -7 -19 -15 -4 -8
-12 -15 -18 -15 -19 0 -76 -60 -76 -80 0 -9 8 -24 18 -33 18 -16 18 -15 14 14
-5 35 12 54 71 82 48 22 47 22 47 -14 0 -18 5 -71 12 -120 10 -78 14 -89 37
-100 14 -8 27 -14 29 -15 5 -3 -61 -94 -69 -94 -4 0 -10 -11 -13 -25 -4 -14
-11 -25 -16 -25 -6 0 -10 -7 -10 -15 0 -7 -6 -18 -13 -22 -7 -4 -18 -19 -24
-33 -7 -14 -26 -47 -42 -75 -29 -50 -59 -108 -88 -175 -9 -19 -22 -48 -29 -65
-22 -49 -70 -205 -88 -280 -38 -169 -46 -227 -52 -379 -4 -88 -10 -166 -15
-171 -4 -6 -10 -33 -12 -60 -2 -28 -2 -38 0 -22 5 33 23 36 23 5 0 -13 3 -33
6 -45 5 -17 2 -23 -10 -23 -9 0 -16 5 -16 12 0 6 -3 8 -7 4 -5 -4 1 -14 11
-22 11 -7 23 -33 27 -56 29 -165 60 -307 70 -323 4 -5 10 -26 14 -45 4 -19 11
-41 16 -50 11 -18 39 -96 46 -127 3 -13 9 -23 13 -23 4 0 10 -9 13 -19 4 -15
-18 -36 -99 -98 -57 -43 -104 -81 -104 -85 0 -5 -7 -8 -15 -8 -8 0 -15 -4 -15
-10 0 -5 -7 -10 -15 -10 -8 0 -15 8 -15 17 0 10 -12 28 -27 40 -33 29 -109 32
-129 6 -39 -51 19 -123 99 -123 20 0 147 88 147 102 0 4 6 8 14 8 8 0 16 3 18
8 5 13 135 112 147 112 6 0 23 -26 38 -57 15 -32 30 -60 33 -63 3 -3 11 -16
18 -30 15 -32 33 -60 50 -78 6 -7 12 -18 12 -23 0 -6 6 -16 13 -23 6 -8 19
-24 27 -36 8 -12 22 -30 30 -40 8 -11 26 -34 40 -52 49 -63 180 -199 239 -246
17 -14 17 -19 4 -49 -7 -19 -11 -38 -8 -43 9 -15 -12 -12 -53 6 -21 8 -50 21
-67 28 -16 8 -50 21 -75 31 -25 9 -58 23 -75 31 -16 8 -43 16 -60 18 -16 2
-23 1 -15 -1 8 -3 35 -14 60 -25 78 -34 84 -36 145 -60 33 -12 62 -25 65 -28
3 -3 28 -13 56 -22 59 -21 106 -23 132 -7 15 10 28 5 72 -27 69 -50 143 -97
200 -126 25 -13 47 -25 50 -28 8 -8 134 -70 143 -70 9 0 92 -35 119 -50 10 -6
24 -10 32 -10 8 0 27 -5 43 -12 68 -28 254 -67 403 -83 332 -36 672 5 960 118
91 35 281 127 298 144 7 7 20 13 28 13 8 0 14 5 14 10 0 6 6 10 14 10 7 0 43
23 80 50 37 27 71 50 76 50 6 0 10 4 10 8 0 5 15 20 34 33 76 55 187 158 256
239 25 29 53 62 63 73 9 11 17 23 17 27 0 25 38 16 155 -35 17 -7 50 -20 75
-30 90 -35 89 -34 77 -66 -9 -21 -8 -32 1 -41 9 -9 12 -6 12 14 0 26 25 56 37
44 7 -6 -23 -65 -37 -76 -4 -3 -4 -14 1 -25 6 -17 8 -17 8 -2 1 21 49 77 67
77 7 0 15 -10 17 -22 l4 -23 2 23 c1 18 6 23 24 22 49 -4 68 1 96 29 53 52 53
109 0 131 -23 10 -36 10 -55 1 -14 -6 -33 -11 -42 -11 -10 0 -25 -8 -34 -17
-55 -61 -78 -75 -113 -69 -21 4 -35 13 -35 21 0 9 -6 12 -15 9 -8 -4 -15 -2
-15 4 0 5 -20 13 -44 16 -24 4 -52 13 -62 21 -11 8 -26 15 -34 15 -9 0 -26 7
-38 16 -18 12 -20 18 -10 28 7 8 20 24 28 36 38 57 39 57 55 36 13 -17 17 -17
32 -5 39 31 45 72 13 89 -18 10 -19 13 -5 26 8 9 15 22 15 30 0 8 5 14 10 14
6 0 10 -10 10 -22 1 -31 33 -68 59 -68 26 0 38 25 21 45 -7 8 -10 22 -6 30 10
26 -5 45 -35 45 -16 0 -29 2 -29 4 0 2 13 30 30 62 16 32 30 65 30 72 0 6 5
12 10 12 6 0 10 8 10 18 0 9 7 30 15 46 8 15 15 33 15 38 0 6 6 24 13 41 15
35 41 118 57 183 5 23 26 62 45 87 19 25 35 51 35 56 0 6 3 11 8 11 4 0 16 15
26 33 67 112 74 182 25 280 -16 34 -34 66 -39 71 -17 17 -24 -3 -8 -21 19 -23
48 -97 48 -125 0 -37 -33 -111 -63 -143 l-28 -30 3 62 c2 39 0 59 -6 53 -16
-16 -66 -12 -66 5 0 9 9 15 25 15 15 0 25 6 25 15 0 12 -9 13 -45 9 -41 -6
-45 -5 -57 20 -8 20 -9 32 -1 44 12 20 64 23 71 5 2 -8 -6 -13 -23 -13 -17 0
-25 -5 -22 -12 2 -8 18 -12 44 -10 41 4 57 -7 65 -43 4 -17 6 -16 17 9 17 43
16 88 -3 126 -12 25 -13 35 -4 41 8 5 9 11 1 21 -6 7 -14 60 -18 118 -3 58 -9
114 -12 125 -5 19 -4 18 20 -3 19 -18 34 -23 63 -20 36 3 39 5 42 37 4 44 -35
81 -86 81 -32 0 -34 2 -28 28 4 20 0 17 -14 -13 l-19 -40 0 36 c-1 20 -8 56
-16 79 -18 51 -19 60 -4 60 6 0 18 8 27 17 16 16 17 13 22 -48 l6 -64 4 55 5
55 49 7 c55 8 90 35 108 85 10 27 17 33 33 29 11 -3 30 -6 43 -6 20 0 22 -5
24 -57 l1 -58 7 70 c6 66 5 71 -18 92 -28 24 -79 35 -104 22 -9 -5 -27 -9 -40
-9 -50 0 -101 -23 -151 -67 -45 -40 -52 -44 -55 -27 -6 36 -83 223 -125 303
-35 66 -38 108 -9 132 12 9 22 25 22 36 -1 14 -5 12 -25 -12 -14 -16 -25 -36
-25 -43 0 -21 -20 -9 -38 23 -9 17 -19 32 -22 35 -11 11 -50 70 -50 75 0 4 -6
12 -12 19 -7 8 -20 24 -28 36 -8 13 -23 32 -32 42 -10 10 -18 20 -18 22 0 21
-300 316 -321 316 -5 0 -9 3 -9 8 0 4 -20 20 -45 35 -25 16 -45 33 -45 38 0 5
-5 9 -10 9 -12 0 -73 41 -78 53 -2 4 -8 7 -14 7 -5 0 -43 20 -84 45 -40 25
-76 45 -79 45 -3 0 -35 14 -72 31 -150 67 -159 70 -333 120 -41 11 -102 25
-135 29 -33 5 -80 13 -105 19 -47 11 -522 15 -533 5z m-667 -363 c0 -5 -6 -11
-12 -13 -9 -3 -8 -10 5 -22 9 -10 15 -22 12 -27 -7 -11 -25 -12 -24 -1 4 21
-3 32 -18 31 -11 0 -13 -3 -5 -6 6 -2 12 -9 12 -15 0 -6 -6 -8 -14 -5 -8 3
-16 0 -19 -6 -6 -17 66 -15 86 2 9 7 22 11 29 8 8 -4 7 -6 -4 -6 -10 -1 -18
-5 -18 -11 0 -5 -11 -12 -25 -16 -14 -3 -25 -10 -25 -15 0 -5 -6 -9 -14 -9 -8
0 -21 -6 -28 -14 -8 -7 -24 -17 -36 -20 -12 -4 -20 -11 -17 -16 3 -4 -5 -10
-18 -14 -32 -8 -45 -6 -22 4 16 7 17 9 3 9 -9 1 -20 -3 -23 -9 -3 -5 -11 -10
-16 -10 -6 0 -7 6 -2 13 4 6 8 15 8 19 0 3 4 10 9 15 5 5 6 3 2 -4 -4 -7 -2
-13 4 -13 7 0 9 7 6 16 -5 12 -1 14 16 8 21 -6 21 -6 4 11 -11 11 -20 14 -24
8 -7 -11 -46 -33 -58 -33 -8 0 23 27 56 50 12 8 28 21 36 28 7 6 17 12 23 12
5 0 17 7 25 16 9 8 25 16 36 17 11 1 22 7 24 14 6 15 26 18 26 4z m1110 -256
c108 -14 207 -35 225 -47 6 -3 27 -9 48 -13 20 -4 37 -11 37 -15 0 -4 16 -11
35 -14 19 -4 47 -13 62 -21 15 -8 34 -15 41 -15 6 0 12 -4 12 -9 0 -5 14 -12
30 -16 17 -4 30 -11 30 -16 0 -5 5 -9 11 -9 14 0 130 -76 202 -133 108 -84
249 -241 324 -362 38 -60 123 -225 123 -238 0 -5 6 -23 13 -40 41 -96 75 -254
85 -392 10 -137 -2 -355 -24 -429 -17 -61 -18 -90 -2 -116 10 -16 10 -29 -5
-69 -28 -80 -20 -90 38 -45 24 18 35 22 41 13 7 -12 -20 -38 -68 -64 -25 -14
-28 -14 -38 4 -15 29 -12 69 7 102 13 22 14 32 6 40 -9 9 -13 5 -18 -17 -3
-16 -13 -44 -21 -62 -8 -18 -14 -52 -14 -76 0 -36 -5 -48 -34 -74 -18 -16 -48
-56 -67 -89 -18 -32 -36 -59 -41 -61 -4 -2 -8 -10 -8 -17 0 -7 -3 -15 -7 -17
-5 -1 -21 -22 -37 -46 -16 -23 -33 -42 -37 -42 -5 0 -9 -4 -9 -9 0 -28 -236
-238 -344 -305 -58 -37 -196 -105 -226 -111 -16 -4 -30 -10 -30 -15 0 -4 -19
-11 -42 -15 -24 -4 -45 -11 -48 -14 -7 -9 -81 -27 -210 -51 -209 -38 -532 -14
-690 53 -31 13 -106 39 -127 44 -13 3 -23 9 -23 14 0 5 -5 9 -11 9 -12 0 -100
41 -109 50 -3 3 -38 26 -77 50 -40 25 -73 48 -73 52 0 5 -4 8 -9 8 -24 0 -291
264 -291 287 0 3 -13 22 -30 43 -16 21 -30 43 -30 49 0 6 -3 11 -7 11 -5 0
-21 26 -38 58 -16 31 -33 59 -37 60 -5 2 -8 10 -8 19 0 8 -6 27 -14 41 -78
147 -136 410 -136 618 0 171 45 401 105 539 100 230 185 356 346 515 148 146
301 244 514 330 196 78 465 107 705 75z m1444 -1818 c34 -44 34 -84 1 -99 -29
-13 -30 -17 -10 -44 18 -24 19 -34 3 -34 -12 0 -76 84 -106 137 -11 21 -10 26
15 48 39 34 67 32 97 -8z m-2756 -1164 c13 -10 32 -26 44 -35 12 -10 27 -18
33 -18 7 0 15 -7 19 -15 3 -8 12 -15 21 -15 8 0 15 -4 15 -10 0 -5 6 -10 14
-10 8 0 21 -6 28 -13 7 -8 27 -19 43 -25 20 -7 24 -11 11 -11 -14 -1 -16 -4
-7 -15 9 -11 6 -13 -14 -11 -16 2 -25 -2 -25 -11 0 -8 6 -11 15 -8 8 4 15 1
15 -5 0 -16 -14 -14 -62 11 -41 21 -53 29 -81 54 -7 5 -20 13 -30 17 -10 4
-15 11 -12 17 3 5 -2 10 -12 10 -15 0 -16 2 -3 10 9 6 17 5 22 -3 6 -9 8 -9 8
0 0 7 -8 17 -17 22 -13 8 -14 10 -4 11 10 0 7 7 -9 25 -17 18 -27 22 -36 14
-8 -7 -14 -7 -19 1 -4 6 -3 10 2 9 20 -3 27 2 13 11 -8 5 -10 10 -5 10 6 0 21
-8 33 -17z"/>
<path d="M7335 5823 c-190 -36 -375 -106 -510 -193 -16 -11 -40 -25 -52 -31
-13 -7 -23 -16 -23 -21 0 -4 -4 -8 -9 -8 -25 0 -291 -262 -291 -286 0 -8 -4
-14 -9 -14 -9 0 -81 -107 -81 -120 0 -5 -6 -15 -12 -22 -14 -14 -36 -57 -63
-123 -9 -22 -21 -49 -26 -60 -16 -38 -46 -140 -65 -220 -27 -116 -27 -446 0
-560 23 -98 56 -207 68 -219 4 -6 8 -16 8 -23 0 -11 57 -133 84 -178 153 -259
357 -445 629 -573 37 -18 71 -32 77 -32 5 0 24 -6 42 -14 48 -21 132 -43 228
-62 103 -19 443 -16 525 6 122 32 192 53 222 66 17 8 36 14 42 14 6 0 11 5 11
10 0 6 5 10 11 10 13 0 101 41 109 51 3 4 15 9 28 13 12 4 22 12 22 17 0 5 7
9 15 9 9 0 18 7 21 15 4 8 11 15 16 15 10 0 72 45 121 90 53 47 137 130 137
136 0 3 11 15 24 27 35 33 146 202 184 279 34 73 39 98 19 98 -19 0 -37 -21
-37 -42 0 -10 -7 -18 -15 -18 -23 0 -18 25 11 59 18 22 33 31 51 29 26 -3 33
10 71 132 36 116 58 358 43 475 -18 143 -31 220 -40 240 -4 11 -16 47 -26 80
-10 33 -31 88 -47 123 -15 35 -28 65 -28 68 0 10 -97 164 -138 219 -54 72
-237 255 -281 281 -17 10 -31 22 -31 26 0 4 -6 8 -14 8 -8 0 -16 4 -18 8 -4
11 -123 82 -137 82 -6 0 -11 4 -11 9 0 5 -13 12 -30 16 -16 4 -30 10 -30 14 0
3 -35 17 -77 30 -43 13 -87 27 -98 32 -19 9 -60 18 -180 39 -81 14 -351 10
-440 -7z m-1076 -1196 c0 -10 -3 -16 -7 -13 -5 3 -8 -18 -8 -46 1 -35 6 -53
15 -56 11 -4 13 2 8 24 -5 29 12 116 26 130 4 4 7 -9 7 -30 0 -22 -4 -35 -10
-31 -7 4 -11 -60 -12 -182 -1 -103 -4 -148 -5 -100 -3 77 -6 87 -18 77 -18
-15 -19 -41 -2 -59 8 -10 9 -12 0 -7 -9 5 -13 -11 -16 -56 -2 -51 -4 -46 -5
30 -1 53 -6 92 -12 92 -5 0 -10 9 -10 19 0 11 5 23 10 26 6 3 10 35 10 69 0
35 3 92 7 127 6 54 8 59 14 34 4 -16 7 -38 8 -48z m196 13 c0 -28 5 -54 11
-58 8 -5 13 -73 16 -202 4 -201 -7 -209 -21 -15 l-7 100 -7 -90 c-11 -124 -25
-151 -28 -55 -5 119 3 285 12 288 5 2 9 18 9 36 0 26 6 46 14 46 1 0 1 -23 1
-50z m1378 -16 c81 -27 147 -109 147 -182 0 -35 -42 -104 -82 -134 -38 -28
-113 -58 -146 -58 -12 0 -39 16 -61 35 -32 29 -40 46 -50 94 -14 69 -1 172 23
197 9 8 16 19 16 22 0 13 55 41 81 42 14 0 46 -7 72 -16z"/>
<path d="M3192 6440 c-32 -19 -62 -47 -79 -73 -23 -37 -26 -51 -25 -117 1 -41
8 -122 16 -180 8 -58 22 -168 31 -245 9 -77 22 -183 31 -235 8 -52 14 -107 14
-122 0 -19 5 -28 16 -28 12 0 15 6 11 23 -7 30 -22 142 -42 312 -9 77 -23 184
-30 237 -8 53 -15 115 -15 138 0 38 11 52 25 30 10 -17 78 -11 118 9 82 42
127 103 127 173 0 43 -4 54 -31 79 -43 40 -96 39 -167 -1z"/>
<path d="M3872 6455 c-21 -16 -212 -203 -212 -210 0 -1 -55 -58 -122 -126 -67
-68 -116 -125 -110 -127 6 -2 33 20 59 48 64 70 332 340 337 340 2 0 7 -11 10
-24 16 -65 167 -96 221 -46 65 61 -8 160 -117 160 -24 0 -53 -7 -66 -15z"/>
<path d="M12329 6273 c-29 -18 -59 -62 -59 -86 0 -9 12 -25 28 -37 40 -32 102
-23 148 21 19 18 34 39 34 46 0 7 5 13 10 13 12 0 73 -41 78 -52 2 -5 8 -8 13
-8 6 0 22 -9 37 -19 15 -11 73 -49 130 -85 56 -36 102 -68 102 -71 0 -2 -33
-25 -72 -51 -40 -26 -92 -60 -116 -75 -24 -16 -45 -29 -48 -29 -8 0 -69 44
-72 53 -2 4 -8 7 -13 7 -11 0 -72 42 -77 53 -2 4 -7 7 -12 7 -8 0 -75 42 -189
119 -45 31 -62 36 -107 35 -45 0 -59 -5 -84 -29 -35 -34 -40 -82 -12 -108 42
-38 143 -9 172 50 8 15 15 30 17 32 1 2 33 -15 70 -38 37 -23 77 -47 88 -54
11 -7 22 -14 25 -17 15 -15 71 -50 80 -50 5 0 10 -4 10 -9 0 -5 9 -13 20 -16
11 -3 26 -12 33 -18 47 -43 50 -42 182 45 69 45 125 86 125 92 0 11 -202 151
-250 173 -8 3 -17 9 -20 12 -12 14 -70 51 -80 51 -5 0 -10 4 -10 9 0 5 -13 14
-30 21 -16 7 -30 16 -30 21 0 15 -94 9 -121 -8z"/>
<path d="M10725 6196 c-83 -81 -117 -148 -97 -189 6 -12 13 -29 15 -37 3 -8 6
8 6 35 1 66 26 104 94 141 45 24 51 5 10 -34 -62 -60 -83 -93 -83 -126 0 -18
-5 -37 -11 -43 -7 -7 -6 -12 5 -16 13 -5 16 1 16 32 0 23 8 47 20 61 19 22 65
51 72 45 2 -2 -1 -72 -5 -157 -4 -84 -5 -168 -2 -185 17 -94 185 -115 185 -24
0 60 -61 111 -133 111 l-45 0 4 48 c3 26 9 90 14 142 10 92 18 270 12 270 -1
0 -36 -33 -77 -74z"/>
<path d="M4560 6223 c0 -5 -17 -19 -37 -33 -20 -14 -41 -30 -47 -35 -9 -9 -56
-46 -114 -90 -7 -5 -22 -18 -33 -27 -10 -10 -21 -18 -23 -18 -3 0 -20 -13 -38
-30 -35 -33 -48 -37 -48 -17 0 7 -13 28 -29 46 -26 29 -36 34 -84 35 -64 1
-87 -14 -87 -58 1 -34 13 -53 50 -79 30 -21 103 -22 124 -2 8 8 19 15 25 15 6
0 11 3 11 8 0 4 54 47 120 97 66 49 120 93 120 97 0 5 4 8 9 8 5 0 22 11 37
24 16 14 40 34 54 45 20 17 22 20 8 21 -10 0 -18 -3 -18 -7z"/>
<path d="M11613 5930 c-9 -16 -21 -30 -25 -30 -4 0 -8 -5 -8 -10 0 -6 -5 -16
-10 -23 -20 -23 -233 -328 -255 -365 -5 -9 -12 -19 -15 -22 -11 -11 -50 -70
-50 -75 0 -3 -5 -11 -10 -18 -71 -85 -110 -158 -109 -204 1 -70 65 -167 127
-192 27 -11 40 -12 71 -1 50 16 71 53 71 124 0 100 -62 186 -147 202 -32 6
-32 6 -15 33 17 28 75 108 92 128 5 7 10 15 10 19 0 3 14 23 30 44 17 21 30
43 30 49 0 6 3 11 8 11 4 0 57 74 117 165 61 90 115 163 120 161 6 -1 15 -11
20 -22 6 -10 22 -37 35 -59 37 -60 44 -71 107 -175 32 -52 61 -97 64 -100 3
-3 9 -14 13 -25 5 -19 -43 -98 -109 -178 -8 -9 -15 -20 -15 -23 0 -3 -13 -23
-30 -44 -16 -21 -30 -42 -30 -48 0 -6 -3 -12 -7 -14 -11 -5 -53 -66 -53 -77 0
-5 -4 -11 -8 -13 -5 -1 -48 -61 -97 -133 -48 -71 -91 -132 -95 -135 -4 -3 -16
-28 -25 -55 -17 -48 -17 -53 -1 -106 33 -104 114 -164 189 -140 84 28 92 175
15 272 -21 26 -81 59 -107 59 -23 0 -23 1 -8 18 10 10 17 23 17 29 0 6 4 13 9
15 5 2 38 46 74 99 89 134 111 163 120 167 4 2 7 8 7 14 0 6 14 27 30 48 17
21 30 41 30 44 0 4 5 12 10 19 22 26 77 104 98 137 19 32 20 38 7 60 -8 14
-18 32 -22 40 -4 8 -20 34 -35 56 -15 23 -28 46 -28 52 0 6 -3 12 -8 14 -4 2
-34 48 -67 103 -33 55 -63 102 -67 103 -5 2 -8 10 -8 18 0 26 -38 15 -57 -16z"/>
<path d="M3923 5838 c-17 -18 -56 -71 -88 -118 -32 -47 -62 -88 -67 -91 -23
-15 22 -21 200 -30 103 -6 191 -14 195 -18 5 -5 4 -18 -2 -29 -15 -29 -1 -35
25 -11 16 15 31 20 48 17 31 -6 33 3 7 26 -15 14 -55 21 -168 32 -81 7 -160
14 -175 14 -23 0 -28 5 -28 24 0 14 4 27 9 30 5 3 12 17 15 32 17 65 86 132
125 119 10 -3 31 -18 46 -33 24 -23 26 -24 16 -5 -17 32 -74 73 -102 73 -15 0
-37 -13 -56 -32z"/>
<path d="M14546 5741 c-6 -9 -2 -35 9 -63 5 -14 2 -18 -13 -18 -17 0 -27 -11
-33 -38 -1 -4 -9 -13 -18 -20 -14 -11 -13 -11 7 -2 12 6 20 16 16 22 -4 7 -3
8 4 4 18 -11 14 -22 -12 -34 -17 -8 -27 -7 -35 1 -9 9 -11 8 -6 -5 4 -10 3
-18 -3 -18 -18 0 -22 -44 -10 -99 9 -41 21 -63 54 -96 l43 -43 -102 -52 c-56
-29 -142 -74 -192 -100 -49 -26 -178 -92 -285 -146 -186 -94 -240 -127 -228
-139 5 -5 526 253 538 266 3 3 55 30 115 61 261 132 276 141 303 177 33 42 57
110 57 161 0 76 -48 170 -86 170 -10 0 -21 5 -24 10 -8 12 -92 13 -99 1z"/>
<path d="M4653 5673 c13 -43 31 -90 43 -115 8 -14 14 -35 14 -46 0 -12 4 -23
9 -27 5 -3 13 -20 17 -38 6 -30 11 -43 48 -129 24 -54 21 -65 -21 -72 -51 -8
-84 -45 -91 -101 -9 -87 53 -112 124 -51 38 33 39 36 38 92 -1 33 -9 73 -18
89 -9 17 -16 38 -16 47 0 9 -4 19 -9 23 -5 3 -12 19 -16 36 -4 17 -13 42 -21
57 -16 31 -19 72 -5 72 23 0 61 -21 85 -47 25 -27 26 -27 26 -6 0 23 -35 54
-107 93 -39 22 -64 50 -43 50 5 0 31 -7 57 -16 58 -20 90 -50 109 -101 l13
-38 1 33 c0 66 -51 123 -157 172 -29 14 -53 28 -53 32 0 5 -7 8 -16 8 -11 0
-15 -6 -11 -17z"/>
<path d="M10740 5473 c0 -7 -53 -65 -118 -130 -65 -65 -125 -129 -133 -143
-29 -46 -39 -119 -25 -185 15 -68 35 -115 49 -115 6 0 6 5 0 13 -6 6 -15 38
-21 71 -10 48 -9 68 4 112 8 30 20 54 25 54 5 0 9 5 9 10 0 13 37 50 50 50 6
0 10 4 10 8 0 9 101 62 118 62 24 0 -4 -42 -78 -115 -98 -96 -112 -124 -108
-214 3 -80 18 -85 18 -7 0 39 6 62 23 87 25 38 90 85 126 92 22 5 23 3 17 -52
-4 -31 -9 -73 -12 -94 l-6 -37 -34 30 c-36 32 -74 40 -74 16 0 -9 7 -12 18 -9
13 3 28 -7 47 -29 l28 -33 -24 -7 c-18 -6 -16 -7 9 -3 l33 5 -5 -48 c-15 -141
-16 -282 -3 -314 16 -37 60 -88 77 -88 5 0 10 -4 10 -10 0 -15 81 -33 123 -27
59 8 87 40 87 99 0 116 -129 211 -244 180 l-36 -10 6 101 c3 56 9 147 15 202
5 55 14 170 19 255 6 85 12 166 15 179 2 13 0 31 -5 40 -5 9 -10 11 -10 4z"/>
<path d="M3103 5273 c-13 -2 -32 -16 -44 -31 -20 -27 -95 -114 -134 -156 -11
-12 -40 -46 -65 -76 -25 -29 -50 -58 -55 -64 -6 -6 -25 -29 -42 -52 l-32 -41
97 -31 c53 -18 103 -32 109 -32 7 0 29 -8 49 -17 l36 -18 52 56 c66 73 90 101
151 174 28 33 62 73 76 88 l25 28 38 -36 c30 -28 45 -35 78 -35 22 0 53 8 69
17 23 14 29 24 29 52 0 52 -38 81 -106 81 -60 0 -80 -15 -174 -130 -30 -36
-61 -72 -69 -81 -9 -9 -36 -40 -61 -69 -25 -30 -58 -69 -75 -86 l-30 -33 -50
15 c-27 8 -63 19 -80 24 -16 5 -51 15 -77 22 -52 15 -67 26 -53 36 6 4 34 36
64 72 30 36 62 72 70 81 9 9 25 27 36 40 91 109 109 129 114 129 4 0 11 -10
16 -22 6 -12 27 -30 47 -41 43 -22 83 -17 123 14 53 43 14 116 -65 123 -25 2
-55 2 -67 -1z"/>
<path d="M3912 5158 c-7 -7 -12 -22 -12 -35 0 -12 -6 -40 -14 -60 -7 -21 -21
-67 -31 -103 -18 -67 -30 -112 -60 -216 -17 -61 -17 -62 4 -83 11 -11 26 -21
31 -21 6 0 10 -4 10 -8 0 -5 15 -20 34 -33 32 -23 101 -79 155 -127 14 -13 45
-37 69 -54 23 -17 42 -35 42 -40 0 -4 5 -8 11 -8 7 0 17 -6 23 -13 6 -8 47
-43 91 -78 94 -75 100 -82 77 -90 -45 -17 -85 -75 -103 -149 -10 -41 12 -131
39 -158 69 -69 157 -36 202 76 32 81 6 170 -67 228 -27 21 -52 43 -58 48 -5 6
-46 40 -90 75 -44 35 -85 70 -91 78 -6 7 -16 13 -23 13 -6 0 -11 4 -11 8 0 5
-15 20 -34 33 -30 22 -81 64 -154 126 -15 12 -52 42 -84 65 -31 24 -57 50 -58
59 0 8 6 35 14 60 18 57 41 138 62 219 9 36 25 89 34 117 l17 53 41 -32 c23
-18 42 -36 42 -40 0 -4 7 -8 15 -8 8 0 15 -3 15 -7 0 -5 39 -39 88 -78 48 -38
96 -78 107 -88 11 -11 39 -33 63 -50 23 -17 42 -34 42 -39 0 -4 4 -8 9 -8 5 0
26 -15 47 -34 22 -19 54 -47 73 -64 l35 -29 -37 -14 c-20 -7 -37 -18 -37 -25
0 -6 -6 -14 -13 -17 -15 -6 -47 -97 -47 -134 0 -44 40 -122 75 -143 40 -25 56
-25 96 -1 74 45 108 153 77 242 -13 39 -41 67 -154 158 -43 35 -84 70 -90 78
-6 7 -16 13 -23 13 -6 0 -11 4 -11 8 0 5 -19 23 -42 40 -41 30 -75 57 -128
105 -14 13 -53 45 -88 71 -35 27 -74 58 -87 70 -42 38 -80 57 -93 44z"/>
<path d="M12295 5018 c-29 -26 -41 -78 -31 -130 6 -28 26 -47 131 -125 69 -51
129 -93 135 -93 26 0 6 -28 -29 -40 -35 -11 -45 -10 -84 6 -29 12 -41 21 -34
26 8 5 6 8 -5 8 -21 0 -24 -18 -5 -25 6 -3 13 -16 13 -30 2 -28 57 -83 93 -92
23 -6 232 4 239 12 4 4 -35 45 -43 45 -7 0 -314 230 -320 240 -3 5 3 15 12 22
72 54 48 198 -32 198 -8 0 -26 -10 -40 -22z"/>
<path d="M4923 4923 c3 -10 15 -43 27 -73 11 -30 33 -89 47 -130 14 -41 30
-79 34 -84 5 -6 9 -19 9 -31 0 -12 5 -26 11 -32 6 -6 14 -26 19 -44 5 -19 18
-59 30 -89 12 -30 25 -66 30 -80 8 -24 40 -106 55 -144 7 -16 4 -17 -22 -12
-37 9 -114 -23 -149 -61 -32 -35 -64 -104 -64 -138 0 -31 14 -61 43 -92 61
-67 205 12 243 133 18 55 17 58 -46 224 -12 30 -27 74 -35 98 -15 49 -15 49
55 55 l45 4 -47 1 c-40 2 -48 5 -48 22 0 24 47 73 63 64 9 -5 9 -4 1 6 -18 19
-51 3 -75 -37 l-23 -36 -12 29 c-55 132 -58 150 -24 146 90 -12 164 -61 176
-118 7 -36 31 -70 41 -59 5 4 2 10 -4 12 -7 3 -15 27 -19 54 -4 28 -13 56 -20
64 -8 7 -14 18 -14 24 0 6 -6 11 -14 11 -8 0 -16 5 -18 11 -2 6 -49 35 -103
64 -119 62 -138 91 -53 80 78 -11 170 -58 201 -103 36 -51 47 -85 48 -145 l1
-52 9 46 c10 52 -11 181 -30 187 -6 2 -11 8 -11 13 0 22 -81 81 -179 131 -58
29 -120 63 -139 76 -40 27 -46 27 -39 5z"/>
<path d="M13527 4812 c-4 -5 -22 -12 -42 -15 -19 -3 -47 -15 -62 -26 -32 -26
-27 -26 32 -1 26 11 57 20 71 20 33 0 99 -36 142 -79 35 -33 36 -36 15 -39
-12 -2 -39 8 -61 22 -88 56 -146 68 -192 41 -24 -14 -24 -15 16 -9 45 7 80 -9
122 -55 22 -24 22 -26 5 -29 -21 -3 -118 -28 -187 -48 -26 -8 -56 -14 -65 -14
-35 -1 -127 -39 -153 -64 -47 -46 -53 -142 -12 -187 24 -27 83 -25 109 4 55
60 73 140 40 183 -8 10 -15 22 -15 25 0 3 28 14 63 23 34 10 84 24 111 32 26
8 55 14 63 14 8 0 35 6 61 14 26 8 74 21 107 29 33 9 80 21 104 27 l44 12 -54
27 c-30 15 -82 43 -117 61 -67 34 -135 49 -145 32z"/>
<path d="M11726 4465 c-4 -14 -11 -25 -16 -25 -6 0 -10 -4 -10 -9 0 -5 -16
-33 -35 -62 -19 -30 -35 -57 -35 -62 0 -7 -6 -16 -36 -50 -5 -7 -20 -32 -31
-57 -27 -55 -21 -91 19 -125 25 -21 32 -23 54 -13 51 24 35 111 -27 141 l-29
14 35 49 c19 27 35 55 35 61 0 7 5 13 10 13 6 0 10 7 10 15 0 8 5 15 12 15 6
0 9 3 5 6 -5 6 0 15 30 48 13 14 29 66 20 66 -3 0 -8 -11 -11 -25z"/>
<path d="M10074 4432 c-28 -24 -56 -71 -50 -85 3 -8 5 -7 5 2 1 16 47 61 62
61 29 0 80 -33 118 -76 64 -73 66 -80 29 -98 -17 -9 -35 -16 -41 -16 -5 0 -23
-6 -40 -14 -18 -8 -41 -16 -52 -19 -11 -3 -45 -15 -75 -27 -30 -12 -65 -24
-76 -27 -27 -6 -57 -93 -48 -138 13 -73 37 -135 61 -159 29 -29 40 -31 67 -11
28 21 25 161 -4 228 -11 26 -25 47 -30 47 -20 0 -4 25 20 32 14 3 43 13 65 22
118 44 243 88 263 93 25 6 29 21 7 29 -8 4 -15 19 -15 35 0 38 -18 76 -47 94
-12 9 -23 23 -23 33 0 11 -7 6 -20 -16 l-20 -32 -53 30 c-62 35 -74 36 -103
12z"/>
<path d="M11170 4407 c-28 -13 -78 -47 -69 -47 3 0 26 7 52 16 55 19 103 8
152 -35 l31 -27 -34 -17 c-18 -9 -41 -17 -52 -17 -10 0 -21 -4 -25 -9 -3 -5
-20 -13 -38 -17 -17 -3 -48 -13 -67 -22 -19 -8 -44 -19 -55 -23 -22 -9 -99
-37 -127 -46 -10 -3 -18 -10 -18 -15 0 -5 -7 -16 -15 -24 -23 -23 -20 -105 5
-132 33 -35 87 -27 113 18 22 37 22 118 0 142 -9 10 -14 20 -12 22 7 6 182 67
209 73 14 3 34 12 45 19 11 8 29 14 40 14 12 0 25 4 31 9 5 5 33 16 63 26 l54
17 -49 20 c-27 11 -58 25 -69 30 -22 12 -114 38 -130 37 -5 0 -21 -6 -35 -12z"/>
<path d="M11845 4261 c-7 -23 -14 -34 -42 -66 -7 -7 -13 -18 -13 -23 0 -8 -11
-23 -50 -69 -5 -7 -10 -16 -10 -20 0 -4 -14 -28 -30 -53 -16 -25 -30 -53 -30
-63 0 -31 32 -75 63 -88 27 -11 32 -10 48 10 11 13 19 30 19 38 0 33 -33 82
-62 94 -17 7 -26 15 -20 17 7 2 12 9 12 16 0 6 7 21 15 31 43 56 116 177 112
188 -2 6 -7 1 -12 -12z"/>
<path d="M1128 4153 c-10 -2 -18 -9 -18 -14 0 -5 -6 -9 -13 -9 -50 0 -71 -176
-30 -255 38 -74 120 -134 181 -135 13 0 51 -6 85 -14 34 -8 100 -22 147 -31
47 -10 114 -23 150 -30 117 -24 224 -46 295 -59 39 -8 97 -19 130 -26 33 -6
82 -14 110 -17 46 -6 49 -5 36 10 -7 10 -25 17 -40 17 -14 0 -55 6 -91 15 -36
8 -101 21 -145 30 -44 9 -109 22 -145 30 -36 7 -103 21 -150 30 -47 9 -114 23
-150 30 -36 7 -91 18 -122 25 l-57 11 22 25 c35 40 49 109 35 174 -6 30 -17
62 -25 71 -7 8 -13 20 -13 26 0 15 -76 82 -106 93 -26 10 -56 11 -86 3z"/>
<path d="M3495 4074 c-16 -12 -20 -26 -20 -73 1 -48 5 -63 25 -85 14 -14 35
-26 48 -26 13 0 22 -6 22 -15 0 -8 -4 -15 -8 -15 -5 0 -29 -28 -54 -62 -25
-35 -56 -74 -68 -88 -11 -13 -30 -39 -41 -57 -11 -18 -25 -33 -30 -33 -5 0 -9
-7 -9 -15 0 -18 -3 -17 40 -5 19 6 57 15 84 20 46 10 96 46 96 71 0 6 5 7 10
4 6 -3 10 1 10 9 0 22 -2 21 -43 -19 -31 -31 -42 -35 -86 -35 -41 0 -49 3 -45
15 4 8 10 15 15 15 5 0 9 7 9 15 0 8 4 15 9 15 5 0 19 16 31 35 12 20 27 41
34 48 6 6 33 40 59 74 53 69 61 116 29 166 -37 56 -79 70 -117 41z"/>
<path d="M10363 3973 c9 -2 17 -8 17 -13 0 -5 13 -11 30 -15 16 -4 32 -11 35
-16 4 -5 13 -9 21 -9 14 0 90 -30 126 -50 10 -6 23 -10 29 -10 6 0 25 -6 42
-14 97 -45 106 -46 146 -30 65 26 92 100 47 129 -52 34 -146 -18 -146 -81 0
-15 -6 -24 -15 -24 -8 0 -15 4 -15 9 0 5 -13 12 -30 16 -16 4 -32 11 -35 16
-4 5 -13 9 -21 9 -14 0 -88 29 -124 49 -9 5 -30 12 -48 15 -17 4 -34 12 -37
17 -4 5 -14 8 -23 8 -15 -1 -15 -2 1 -6z"/>
<path d="M4709 3767 c-45 -31 -89 -64 -129 -98 -18 -15 -11 -16 103 -23 67 -3
174 -12 238 -18 l117 -12 -15 -23 c-14 -20 -13 -28 3 -72 17 -47 19 -49 38
-35 25 17 37 18 35 2 -5 -40 1 -49 32 -46 37 4 65 43 56 80 -12 47 -51 93 -91
106 -22 7 -122 17 -224 22 -101 5 -187 11 -190 14 -10 10 53 80 89 99 23 13
48 17 79 14 25 -3 37 -3 28 0 -10 2 -18 9 -18 14 0 5 -24 9 -52 9 -43 -1 -62
-7 -99 -33z"/>
<path d="M4196 3695 c-4 -25 -11 -45 -15 -45 -5 0 -12 -20 -15 -45 -4 -24 -11
-47 -17 -50 -20 -13 -7 -43 37 -80 49 -42 68 -59 153 -138 46 -42 52 -51 37
-59 -26 -14 -44 -68 -35 -102 23 -79 109 -51 109 35 0 45 3 41 -140 172 -34
31 -64 57 -66 57 -2 0 -13 8 -23 18 -10 9 -31 28 -47 40 -22 19 -26 27 -17 41
11 18 28 81 25 94 -1 4 2 7 7 7 5 0 12 16 15 35 4 19 11 37 16 40 5 3 27 -11
49 -32 35 -34 62 -58 172 -155 24 -20 28 -28 17 -35 -44 -26 -60 -91 -32 -131
19 -28 44 -28 78 -1 20 15 26 29 26 58 0 30 -8 45 -50 89 -27 29 -52 52 -55
52 -2 0 -20 15 -39 33 -19 17 -58 52 -86 77 -28 25 -58 51 -65 58 -23 21 -33
13 -39 -33z"/>
<path d="M2405 3538 c-37 -14 -62 -32 -152 -118 -39 -37 -78 -70 -85 -73 -7
-3 118 -3 277 0 l291 6 -4 -42 c-6 -61 4 -87 49 -131 34 -32 49 -40 79 -40
102 0 106 139 6 212 l-41 30 -170 -7 c-93 -4 -182 -8 -197 -11 -40 -6 -41 9
-3 59 24 31 45 47 67 52 18 4 38 12 45 17 7 5 17 7 24 3 8 -6 8 -9 -1 -15 -8
-5 -5 -9 8 -12 16 -5 19 -2 14 11 -9 25 -20 29 -70 24 -61 -7 -87 -23 -182
-115 -16 -16 -33 -28 -39 -28 -16 0 -13 26 4 44 8 8 15 19 15 23 0 12 57 64
90 82 14 8 49 14 80 13 l55 0 -45 14 c-52 16 -74 16 -115 2z"/>
</g>
</svg>
