<?xml version="1.0" standalone="no"?>
<!DOCTYPE svg PUBLIC "-//W3C//DTD SVG 20010904//EN"
 "http://www.w3.org/TR/2001/REC-SVG-20010904/DTD/svg10.dtd">
<svg version="1.0" xmlns="http://www.w3.org/2000/svg"
 width="1452.000000pt" height="917.000000pt" viewBox="0 0 1452.000000 917.000000"
 preserveAspectRatio="xMidYMid meet">
<metadata>
Created by potrace 1.16, written by Peter Selinger 2001-2019
</metadata>
<g transform="translate(0.000000,917.000000) scale(0.100000,-0.100000)"
fill="#000000" stroke="none">
<path d="M0 7724 l0 -1446 28 7 c15 4 29 10 32 13 3 4 18 13 34 20 25 11 26
15 15 30 -12 15 -12 16 2 4 22 -17 69 1 76 28 3 11 9 20 13 20 4 0 10 9 13 19
3 13 -1 21 -14 24 -11 3 -19 14 -19 25 0 11 -3 29 -6 39 -5 15 -4 15 5 3 9
-13 11 -13 11 3 0 9 7 17 15 17 8 0 15 5 15 11 0 13 62 8 72 -6 5 -6 8 -3 8 8
0 9 9 25 20 34 20 18 29 49 10 38 -6 -4 -8 -10 -6 -14 3 -4 0 -8 -7 -8 -10 0
-9 8 3 32 9 19 20 30 28 27 10 -4 11 -7 2 -12 -7 -4 -8 -10 -4 -12 10 -5 38
22 41 39 1 5 -5 10 -13 10 -7 0 -14 -4 -14 -9 0 -4 -5 -8 -11 -8 -5 0 -7 5 -3
11 4 7 1 10 -7 7 -8 -3 -15 -14 -17 -26 -2 -11 -12 -24 -23 -27 -11 -4 -17
-10 -14 -15 3 -4 -5 -10 -18 -12 -20 -4 -22 0 -25 38 -4 65 15 78 101 70 67
-6 69 -6 102 26 19 17 31 36 28 41 -4 6 -1 7 7 2 9 -5 10 -2 5 14 -4 13 -2 21
5 21 6 0 8 -4 5 -10 -11 -18 3 -11 31 15 15 14 24 28 21 32 -4 3 -7 1 -7 -5 0
-7 -7 -12 -16 -12 -9 0 -12 5 -8 12 4 7 3 8 -4 4 -7 -4 -12 -1 -12 7 0 8 10
17 21 20 17 5 20 11 17 31 -5 23 1 30 23 28 4 -1 5 8 2 18 -3 11 0 20 6 20 6
0 11 6 11 14 0 8 7 16 15 20 8 3 15 15 15 26 0 11 7 23 15 26 11 5 15 22 15
62 0 52 1 54 15 36 14 -18 16 -18 29 -1 7 9 18 17 25 17 6 0 11 9 11 19 0 10
7 21 15 25 8 3 15 11 15 17 0 6 11 22 25 35 17 16 25 34 25 57 0 33 38 87 61
87 5 0 9 17 9 38 0 34 4 40 33 51 39 16 57 50 57 110 0 42 1 44 15 25 14 -18
16 -18 29 -1 7 9 16 17 20 17 4 0 22 16 41 35 23 23 33 40 28 51 -4 10 0 20
10 26 10 5 17 16 17 25 0 8 18 32 40 53 36 34 40 43 40 86 0 44 1 46 15 28 14
-18 16 -18 29 -1 7 9 20 17 29 17 22 0 92 72 89 92 -2 9 16 35 40 59 31 31 42
49 41 68 -2 14 0 20 3 14 3 -7 10 -13 16 -13 6 0 16 -7 23 -17 7 -9 17 -13 23
-9 19 11 14 33 -9 39 -17 5 -19 9 -9 26 6 12 15 21 20 21 6 0 10 9 10 20 0 13
7 20 20 20 11 0 23 7 27 16 3 9 17 28 29 42 13 14 24 31 24 38 0 8 4 14 10 14
10 0 90 80 90 90 0 4 11 12 25 18 14 6 25 20 25 29 0 24 62 83 68 65 5 -15 82
56 82 76 0 6 6 12 14 12 8 0 16 10 18 22 2 13 11 24 23 27 11 2 24 9 28 17 4
8 14 14 22 14 16 0 55 52 55 74 0 9 16 20 40 27 33 10 40 17 40 38 0 24 3 26
46 25 39 -1 50 4 82 35 20 20 35 42 34 49 -2 6 4 12 12 12 9 0 20 9 26 20 6
11 15 20 21 20 6 0 27 16 47 35 20 19 43 33 51 30 14 -6 41 11 41 26 0 5 -448
9 -1035 9 l-1035 0 0 -45 c0 -59 -25 -85 -80 -85 -38 0 -40 2 -40 30 0 28 3
30 35 30 33 0 35 2 35 34 l0 35 -200 1 -200 0 0 -1446z"/>
<path d="M10238 9151 c-10 -10 -18 -24 -18 -32 0 -12 2 -12 9 0 7 11 15 11 43
2 53 -17 73 -47 73 -108 0 -48 2 -52 20 -46 11 4 41 8 68 8 35 0 46 3 42 13
-3 8 -5 24 -5 37 0 21 -3 22 -35 15 -19 -4 -35 -6 -35 -3 0 3 -6 0 -14 -6 -11
-10 -15 -4 -18 29 -4 43 11 63 40 53 22 -8 12 24 -13 41 -23 15 -27 15 -48 1
-13 -8 -27 -12 -30 -8 -4 3 -7 1 -7 -5 0 -6 8 -13 18 -15 16 -4 16 -5 -1 -6
-10 0 -22 10 -29 24 -13 29 -36 31 -60 6z"/>
<path d="M10503 9115 c-1 -30 2 -55 6 -55 5 0 11 -18 15 -40 6 -38 7 -39 34
-29 15 6 29 9 32 7 3 -2 6 36 8 85 l3 87 -48 0 -48 0 -2 -55z"/>
<path d="M11935 9160 c-3 -6 -3 -19 0 -30 9 -27 -3 -44 -20 -30 -11 9 -19 3
-40 -30 -14 -22 -23 -46 -19 -52 4 -6 3 -8 -3 -5 -15 10 -31 -14 -31 -46 0
-25 3 -27 27 -22 23 5 30 1 39 -20 6 -14 15 -25 20 -25 5 0 14 -16 22 -35 8
-19 20 -35 28 -35 8 0 12 -6 9 -14 -5 -11 5 -16 36 -20 88 -12 90 -13 20 -15
-39 0 -75 -6 -78 -11 -10 -16 -25 -1 -18 18 5 16 5 16 -8 1 -8 -9 -22 -21 -33
-26 -16 -9 -17 -11 -2 -16 10 -4 15 -3 11 3 -3 6 -2 10 3 10 18 0 22 -14 8
-29 -10 -11 -12 -21 -6 -31 8 -12 10 -11 10 6 0 11 10 29 23 41 21 18 42 20
226 26 119 4 199 3 196 -3 -3 -5 1 -12 9 -17 8 -4 -28 -6 -80 -5 -64 3 -94 0
-94 -7 0 -7 -30 -11 -85 -11 -85 0 -85 0 -85 -26 0 -19 4 -25 15 -20 8 3 21
-2 30 -10 8 -9 15 -11 15 -4 0 6 -7 13 -15 16 -31 12 5 34 54 33 43 -1 44 -1
19 -11 -16 -5 -28 -16 -28 -23 0 -15 27 -45 40 -45 5 0 36 -25 67 -55 45 -42
63 -54 81 -50 20 5 22 2 22 -40 0 -32 4 -45 14 -45 7 0 16 -9 19 -19 3 -14 11
-18 26 -14 24 6 29 -15 9 -35 -9 -9 -6 -12 14 -12 17 0 29 -7 33 -19 3 -10 18
-24 33 -30 31 -13 62 -58 62 -89 0 -26 19 -39 31 -21 6 10 17 4 46 -26 21 -22
37 -43 36 -47 -2 -4 7 -13 20 -19 29 -15 56 -49 57 -71 0 -9 8 -19 18 -22 11
-4 25 -18 32 -31 7 -14 17 -25 22 -25 4 0 8 -9 8 -20 0 -11 5 -20 10 -20 6 0
10 -6 10 -13 0 -14 56 -67 71 -67 5 0 9 -9 9 -20 0 -12 11 -31 25 -44 14 -13
25 -31 25 -40 0 -12 10 -16 40 -16 22 0 40 -4 40 -10 0 -5 -9 -10 -20 -10 -23
0 -27 -25 -5 -34 8 -3 20 -17 27 -31 6 -14 17 -25 25 -25 7 0 13 -11 13 -25 0
-27 18 -33 38 -13 9 9 12 9 12 0 0 -7 -5 -12 -12 -12 -9 0 -9 -3 0 -12 7 -7
12 -25 12 -40 0 -15 5 -28 10 -28 6 0 10 -6 10 -14 0 -8 8 -21 18 -28 24 -19
42 -53 42 -83 0 -20 6 -27 30 -31 37 -8 46 -19 53 -69 5 -28 17 -49 42 -72 19
-17 35 -39 35 -47 0 -9 4 -16 9 -16 5 0 12 -14 16 -30 4 -17 15 -35 25 -40 10
-5 21 -25 24 -44 4 -19 18 -45 31 -58 14 -13 25 -31 25 -41 0 -10 7 -20 15
-23 8 -4 15 -15 15 -25 0 -10 6 -19 13 -19 7 0 24 -21 37 -47 21 -43 27 -70
46 -195 6 -38 18 -49 27 -25 3 6 11 -3 18 -20 8 -18 21 -33 29 -33 9 0 24 -16
33 -35 21 -45 21 -43 -5 -47 -21 -3 -18 -8 31 -56 52 -51 53 -55 48 -98 -2
-24 -1 -44 4 -44 5 0 9 8 9 18 0 14 2 14 9 3 6 -9 5 -24 -2 -38 -10 -24 -12
-24 -25 -6 -8 10 -11 31 -8 50 7 45 -3 74 -23 69 -114 -29 -113 -29 -127 -62
-8 -18 -14 -46 -13 -61 1 -20 4 -16 10 16 11 58 27 73 89 81 l50 6 0 -47 c0
-26 5 -51 11 -55 8 -5 8 -9 -1 -14 -6 -4 -12 -21 -12 -38 -1 -17 -5 -29 -9
-26 -4 2 -11 -1 -14 -7 -5 -7 1 -9 16 -7 19 2 25 10 27 36 2 19 9 32 17 32 7
0 20 3 29 6 13 5 16 -1 16 -30 0 -44 -23 -93 -47 -100 -10 -3 -34 -6 -53 -8
-29 -3 -35 1 -41 22 l-7 25 -1 -27 c-1 -16 5 -29 12 -30 35 -4 46 -3 90 8 39
10 47 10 47 -2 0 -8 5 -14 11 -14 6 0 26 -16 45 -35 18 -19 29 -35 24 -35 -18
0 -10 -19 10 -25 15 -5 19 -12 15 -26 -5 -14 1 -26 19 -40 14 -11 26 -29 26
-39 0 -9 7 -23 15 -30 9 -7 15 -29 15 -54 0 -23 9 -59 19 -79 11 -21 22 -66
26 -100 4 -34 14 -71 21 -82 8 -11 14 -34 14 -53 0 -23 8 -40 25 -55 20 -17
27 -35 32 -84 3 -35 10 -63 14 -63 5 0 9 -18 9 -40 0 -22 5 -40 10 -40 6 0 10
-18 10 -39 0 -22 4 -41 8 -43 5 -1 16 -63 25 -136 12 -101 21 -139 36 -159 13
-16 21 -41 21 -64 0 -30 4 -39 16 -39 15 0 16 -8 11 -60 -4 -37 -3 -60 3 -60
6 0 10 -27 10 -60 0 -33 4 -60 10 -60 6 0 10 -33 10 -80 0 -64 3 -80 15 -80
12 0 15 -15 15 -77 0 -66 3 -80 23 -101 17 -19 18 -24 5 -19 -12 4 -15 2 -11
-9 7 -18 11 -18 29 0 12 13 12 16 -4 28 -10 7 -22 27 -26 43 -5 20 -4 27 3 20
5 -5 11 -17 13 -25 2 -8 13 -23 26 -33 24 -20 52 -65 33 -53 -6 4 -11 3 -11
-3 0 -13 40 -35 48 -26 4 3 2 9 -4 13 -6 4 -14 17 -18 29 -4 12 -17 31 -29 40
-26 22 -61 82 -53 90 3 4 6 0 6 -7 0 -10 5 -9 18 3 25 23 37 21 61 -9 15 -20
21 -22 21 -10 0 9 -4 16 -10 16 -5 0 -10 9 -10 20 0 11 4 20 9 20 5 0 9 1037
10 2465 l2 2465 -366 0 -366 0 27 -36 27 -35 -21 -22 -22 -21 -51 57 c-37 42
-58 57 -77 57 l-25 0 21 -23 c12 -13 22 -26 22 -29 0 -3 -27 -26 -60 -53 -50
-39 -59 -49 -49 -61 20 -24 61 -13 79 21 8 17 15 30 15 31 0 1 13 4 29 8 l29
7 -6 -42 c-11 -81 -101 -133 -161 -94 -38 25 -115 128 -122 163 -3 16 -1 39 5
51 l12 21 -685 0 -684 0 -6 -25 c-4 -14 -11 -25 -16 -25 -5 0 -12 -16 -16 -35
-3 -19 -8 -35 -11 -35 -17 0 -33 35 -33 74 0 46 0 46 -34 46 -19 0 -38 -5 -41
-10z m1364 -47 l31 -37 29 17 c30 17 30 17 48 -9 17 -26 17 -27 -5 -42 -29
-19 -28 -25 11 -75 46 -60 58 -68 94 -63 22 3 36 -1 48 -14 21 -23 13 -38 -31
-56 -53 -22 -84 -4 -159 94 -21 29 -42 52 -45 52 -3 0 -21 -13 -39 -28 l-34
-28 52 -62 c28 -34 54 -62 57 -62 3 0 15 5 26 11 18 10 25 8 40 -11 25 -31 23
-39 -18 -56 -59 -25 -87 -12 -150 69 -37 48 -62 71 -74 69 -10 -2 -24 8 -34
23 -9 14 -12 25 -6 25 17 0 11 26 -11 46 -21 19 -20 57 2 79 10 10 16 5 54
-49 14 -19 15 -19 50 0 37 20 45 44 20 64 -16 13 -19 38 -9 64 9 24 19 20 53
-21z m-99 -324 l83 -111 -20 -26 c-33 -44 -100 -86 -138 -86 -42 0 -60 15
-138 118 l-60 79 22 19 c13 10 26 18 30 18 4 0 34 -36 67 -80 32 -43 67 -82
76 -85 21 -7 78 21 78 38 0 7 -31 52 -70 101 -38 49 -70 92 -70 94 0 8 34 31
46 32 6 0 48 -50 94 -111z m-461 -116 l30 -36 35 31 c76 66 117 54 205 -63 64
-86 69 -105 33 -124 -17 -9 -26 -2 -71 59 -70 93 -86 104 -122 83 -16 -9 -31
-22 -33 -29 -4 -11 45 -86 82 -123 7 -8 20 -25 29 -38 14 -22 14 -25 -2 -43
-10 -11 -23 -20 -30 -20 -7 0 -47 46 -90 103 -44 56 -82 104 -85 107 -3 3 -20
23 -38 45 l-32 39 22 23 c12 13 25 23 29 23 4 0 21 -16 38 -37z m-29 -160 c0
-13 -5 -23 -10 -23 -6 0 -23 -12 -37 -27 -15 -16 -23 -22 -19 -15 4 6 5 12 2
12 -3 0 -10 -10 -17 -21 -18 -35 8 -41 60 -13 25 13 56 24 68 24 25 0 71 -38
74 -60 8 -70 -11 -103 -84 -152 -49 -32 -77 -36 -77 -10 0 10 -5 23 -10 28 -7
7 4 18 36 34 54 28 85 67 64 80 -7 4 -20 5 -29 1 -9 -4 -34 -15 -56 -25 -32
-15 -46 -16 -69 -8 -16 6 -32 10 -35 7 -4 -2 -7 4 -8 13 -1 9 -5 31 -9 48 -3
19 -1 41 7 55 7 13 12 28 11 32 -1 5 2 6 8 2 5 -3 10 -2 10 3 0 4 23 20 52 35
55 29 68 25 68 -20z"/>
<path d="M7801 8773 c-35 -14 -60 -59 -67 -121 -9 -86 1 -105 70 -126 66 -21
90 -15 133 31 54 58 54 170 0 208 -21 15 -106 20 -136 8z"/>
<path d="M4490 8343 c-61 -31 -89 -54 -124 -102 -84 -114 -87 -238 -10 -364
31 -50 51 -67 70 -60 16 6 19 30 4 35 -6 2 -13 20 -17 41 -6 38 15 77 42 77
24 0 45 -37 45 -77 0 -35 -5 -45 -36 -70 -25 -20 -33 -33 -29 -46 4 -9 11 -17
17 -17 5 0 21 -13 36 -29 38 -41 57 -48 147 -56 73 -6 78 -5 60 9 -11 8 -24
16 -29 16 -4 0 -25 14 -46 30 -21 17 -43 30 -49 30 -17 0 -17 55 -1 75 5 6 13
26 19 45 10 34 10 34 5 -10 -5 -45 -5 -45 45 -77 27 -18 55 -33 60 -33 6 0 11
-4 11 -9 0 -5 14 -14 30 -21 17 -7 30 -17 30 -22 0 -19 25 -1 32 23 6 20 7 19
3 -7 -2 -16 -5 -37 -7 -44 -2 -11 13 -16 57 -21 33 -4 88 -10 123 -14 71 -9
73 -5 48 76 -7 24 -21 73 -31 109 -32 124 -58 205 -86 267 -16 34 -29 67 -29
73 0 5 -3 10 -7 10 -5 1 -26 24 -47 53 -22 29 -59 68 -84 87 -43 33 -51 35
-131 38 -66 2 -94 -2 -121 -15z"/>
<path d="M11902 7893 c-22 -4 -23 -8 -18 -51 4 -26 11 -65 16 -87 5 -22 10
-65 10 -97 l0 -56 52 -4 c31 -2 56 2 64 9 19 20 24 3 7 -24 -9 -13 -19 -20
-22 -14 -4 5 -6 -8 -6 -30 0 -40 0 -40 16 -20 18 22 49 29 49 11 0 -5 -7 -7
-16 -3 -12 4 -15 2 -12 -8 3 -9 19 -14 46 -14 23 0 42 -4 42 -8 0 -5 35 -7 78
-5 l77 4 0 184 c0 102 -3 193 -7 203 -7 15 -24 17 -180 16 -95 -1 -184 -4
-196 -6z"/>
<path d="M5537 7712 c-20 -8 -47 -55 -47 -83 0 -17 8 -19 64 -19 35 0 84 -3
110 -6 60 -9 55 5 -25 69 -62 48 -70 51 -102 39z"/>
<path d="M4590 7655 c0 -17 37 -34 75 -36 36 -1 37 -2 11 -8 -23 -5 -26 -8
-15 -17 34 -26 91 -44 138 -44 27 0 76 -7 108 -15 70 -18 103 -19 103 -2 0 23
-36 35 -121 42 -46 4 -88 11 -94 14 -5 4 -26 8 -45 10 -52 4 -50 11 3 11 26 0
47 -4 47 -10 0 -5 3 -9 8 -8 4 1 47 -2 96 -6 79 -7 91 -6 102 9 12 16 14 16
25 -9 12 -27 39 -36 39 -13 -1 37 -40 47 -270 67 -58 5 -129 12 -157 16 -29 3
-53 3 -53 -1z"/>
<path d="M5508 7565 c-6 -7 10 -54 22 -65 4 -3 12 -20 19 -37 15 -36 13 -35
86 -33 31 1 58 -5 70 -14 11 -9 43 -16 70 -17 37 -2 42 -3 18 -6 -85 -11 2
-83 100 -83 27 0 27 0 12 30 -13 25 -22 30 -53 31 -30 2 -32 3 -9 6 15 2 27 7
27 9 0 12 -26 52 -66 105 -42 55 -45 57 -101 63 -153 15 -189 17 -195 11z"/>
<path d="M5023 7272 c15 -16 16 -24 7 -41 -6 -12 -7 -21 -3 -21 4 0 0 -5 -10
-11 -14 -9 -22 -7 -32 8 -19 24 -19 4 1 -42 8 -20 12 -40 9 -44 -9 -8 -45 37
-45 56 0 12 -3 13 -14 4 -12 -10 -10 -19 14 -54 15 -23 30 -53 32 -67 3 -21 6
-18 17 20 8 25 21 70 31 100 l18 55 18 -38 c10 -20 21 -37 25 -37 4 0 10 -8
13 -17 3 -10 13 -29 20 -42 12 -20 12 -30 1 -61 -11 -31 -11 -46 2 -96 18 -68
21 -110 10 -141 -16 -44 17 -15 43 38 14 28 32 64 39 80 8 16 20 28 25 27 6
-2 50 -44 99 -94 l87 -90 0 -84 c0 -82 1 -85 34 -120 19 -19 42 -48 50 -65 15
-29 16 -27 16 63 0 50 3 92 8 92 6 0 56 -52 137 -144 38 -42 85 -106 85 -114
0 -6 4 -12 8 -14 13 -5 82 -135 82 -153 0 -8 11 -20 24 -25 13 -5 40 -26 60
-46 34 -35 36 -41 30 -79 -5 -36 -2 -46 20 -71 25 -29 25 -29 19 -4 -6 23 -5
24 11 11 10 -8 15 -23 13 -32 -3 -10 1 -26 8 -36 27 -39 28 -63 3 -83 -13 -11
-17 -19 -10 -20 6 0 12 5 12 10 0 6 5 10 10 10 6 0 10 -12 10 -26 0 -24 -3
-26 -31 -20 -33 6 -107 66 -124 101 -14 27 -47 30 -69 6 -26 -28 -23 -67 6
-99 21 -23 78 -129 78 -146 0 -15 71 -112 89 -123 20 -13 20 -13 -15 -85 -20
-40 -40 -81 -45 -90 -5 -10 -9 -24 -9 -31 0 -7 -6 -21 -13 -31 -13 -17 -15
-17 -45 -2 -69 36 -127 8 -62 -31 41 -24 40 -57 -2 -79 -55 -29 -168 1 -168
44 0 10 -3 13 -8 6 -7 -11 -60 -29 -76 -25 -4 1 -17 -1 -28 -4 -15 -5 -17 -9
-7 -21 7 -8 13 -29 15 -47 1 -17 7 -33 13 -35 6 -2 11 -10 11 -18 0 -11 -18
-14 -80 -14 -57 0 -80 4 -80 13 0 9 -2 9 -8 0 -9 -14 -305 -6 -300 8 2 4 32
39 67 78 l63 71 57 1 c47 0 52 2 31 10 -13 6 -35 7 -47 4 -30 -7 -29 -3 12 41
l35 37 26 -27 c45 -44 120 -28 112 24 -2 18 -16 31 -48 47 -30 15 -38 23 -24
23 32 0 95 35 136 74 102 99 118 248 36 346 -10 12 -54 45 -85 65 -4 2 49 105
71 137 25 38 85 60 125 45 36 -13 49 -37 21 -37 -28 0 -79 -59 -80 -91 0 -62
89 -82 133 -29 14 17 31 30 38 30 8 0 8 4 2 13 -6 6 -13 31 -17 55 -17 114
-151 138 -230 40 -39 -48 -40 -50 -54 -81 -6 -15 -17 -25 -23 -22 -18 12 -55
-4 -69 -29 -7 -14 -26 -28 -42 -31 -15 -4 -51 -29 -78 -55 -49 -48 -50 -50
-50 -108 0 -41 5 -63 15 -72 8 -7 15 -17 15 -22 0 -5 9 -17 21 -27 l21 -17
-25 -59 -25 -59 -70 -20 c-38 -12 -92 -36 -121 -54 -45 -30 -54 -32 -86 -23
-30 8 -37 7 -45 -9 -15 -27 -12 -41 10 -65 18 -19 19 -24 6 -51 -18 -37 -27
-115 -17 -133 7 -11 18 -10 62 4 30 10 63 26 75 36 44 41 59 11 23 -47 -16
-26 -27 -34 -50 -34 -18 0 -29 -5 -29 -14 0 -9 21 -15 73 -19 39 -4 141 -12
225 -19 84 -7 151 -15 149 -18 -1 -3 -11 -23 -22 -45 -11 -22 -20 -41 -21 -43
-1 -1 -44 -7 -95 -13 -106 -12 -145 -29 -129 -58 15 -28 90 -60 117 -50 14 5
25 4 29 -2 10 -17 -17 -99 -36 -109 -19 -10 -85 4 -95 20 -11 17 -76 11 -105
-10 -43 -30 -55 -71 -35 -111 25 -49 94 -105 78 -63 -24 63 189 3 278 -78 l30
-28 -23 -30 c-27 -33 -38 -36 -78 -15 -33 17 -40 8 -12 -17 28 -25 66 -71 86
-102 14 -23 16 -33 7 -52 -16 -37 -54 -31 -88 12 -15 20 -60 70 -99 110 -65
66 -73 71 -94 61 -13 -7 -28 -20 -34 -30 -13 -20 1 -34 47 -44 17 -3 32 -15
37 -28 5 -13 14 -26 19 -30 6 -3 11 -15 11 -26 0 -10 6 -19 13 -19 8 0 32 -21
55 -47 22 -27 52 -61 65 -77 14 -16 31 -41 39 -55 7 -14 19 -32 26 -40 9 -9
12 -26 7 -50 -4 -24 -3 -31 4 -22 7 11 10 9 16 -9 9 -29 -18 -61 -37 -42 -18
18 -38 15 -58 -10 -16 -21 -19 -21 -41 -6 -13 9 -33 24 -45 34 -38 35 -64 46
-79 34 -8 -6 -11 -18 -9 -25 3 -8 -6 -29 -19 -47 -14 -18 -28 -46 -31 -63 l-6
-30 11 30 c16 40 16 40 35 21 12 -13 26 -16 54 -11 30 5 42 2 56 -13 25 -24
129 -102 177 -131 37 -23 50 -51 23 -51 -8 0 -18 -9 -21 -20 -7 -23 2 -60 16
-60 24 0 4 -27 -34 -44 -103 -47 -187 -90 -187 -98 0 -4 -7 -8 -15 -8 -11 0
-15 -12 -15 -51 0 -48 3 -53 56 -104 30 -30 64 -57 75 -60 10 -4 19 -11 19
-16 0 -5 4 -9 9 -9 18 0 101 -83 137 -137 31 -48 35 -60 35 -122 0 -57 -4 -77
-25 -113 -15 -24 -29 -51 -32 -60 -4 -11 -16 -18 -30 -18 -33 0 -64 -34 -64
-69 0 -22 -15 -45 -63 -94 -34 -36 -78 -87 -97 -113 -19 -27 -38 -50 -42 -52
-4 -2 -8 -10 -8 -17 0 -7 -4 -15 -8 -17 -7 -2 -24 -25 -83 -111 -10 -14 -119
24 -119 42 0 9 -7 3 -15 -13 -8 -15 -15 -32 -15 -36 0 -4 21 -13 48 -20 26 -7
51 -16 55 -20 5 -4 -21 -54 -58 -110 l-66 -102 -25 23 c-19 18 -23 19 -18 6 3
-9 10 -17 15 -17 16 0 10 -34 -17 -85 -22 -42 -42 -61 -130 -120 -102 -68
-119 -85 -89 -85 8 0 15 5 15 10 0 6 6 10 14 10 8 0 16 3 18 8 5 11 66 52 78
52 5 0 10 5 10 11 0 5 4 7 10 4 6 -4 4 -14 -4 -28 -32 -49 -79 -138 -132 -247
-30 -63 -60 -122 -65 -130 -10 -18 -37 -75 -50 -110 -8 -20 -8 -23 2 -13 19
19 29 16 29 -7 0 -35 19 -22 32 23 7 23 20 51 30 61 10 11 21 28 24 39 3 11
20 43 36 71 17 28 47 83 67 121 44 82 93 168 101 175 3 3 11 18 18 34 9 21 18
27 32 23 17 -4 20 0 20 33 0 27 10 53 30 83 16 25 30 47 30 50 0 4 13 25 28
49 16 24 38 59 48 78 10 19 22 37 25 40 3 3 21 32 40 65 19 33 39 69 46 80 7
11 18 30 24 43 7 12 16 22 21 22 4 0 8 7 8 15 0 15 9 18 46 16 12 -1 29 5 37
14 18 17 12 45 -9 45 -24 0 -16 15 49 81 81 85 120 113 190 140 50 19 63 20
97 10 52 -15 88 -50 96 -92 4 -19 15 -51 26 -72 16 -32 23 -37 53 -37 36 0
105 -28 105 -42 0 -5 5 -6 10 -3 15 9 111 -67 160 -125 32 -38 40 -56 40 -87
0 -21 -5 -44 -12 -51 -19 -19 -21 -87 -3 -102 26 -22 45 5 45 65 0 51 20 89
34 66 8 -12 -3 -61 -17 -78 -6 -9 -6 -13 2 -13 16 0 14 -64 -4 -107 -8 -19
-15 -46 -15 -58 0 -12 -7 -28 -15 -35 -8 -7 -15 -29 -15 -49 0 -20 -7 -49 -15
-65 -8 -15 -15 -34 -15 -42 0 -22 -17 -25 -52 -10 -18 8 -60 25 -93 37 -33 13
-64 27 -69 31 -6 4 -17 8 -25 8 -9 0 -29 7 -45 15 -15 8 -33 15 -40 15 -6 0
-17 4 -25 9 -12 8 -12 12 2 26 22 22 22 78 0 97 -50 42 -78 27 -78 -41 0 -58
14 -74 83 -93 23 -7 42 -16 42 -20 0 -4 16 -10 35 -14 19 -3 35 -10 35 -15 0
-5 7 -9 16 -9 24 0 85 -31 79 -40 -10 -16 -68 -40 -96 -40 -32 0 -75 17 -102
39 -9 8 -20 11 -24 8 -3 -4 -1 -7 6 -7 7 0 10 -4 7 -9 -3 -4 20 -21 51 -36
l57 -28 86 28 c161 51 161 43 12 -265 -42 -85 -81 -161 -88 -168 -7 -6 -16
-21 -19 -32 -3 -11 -11 -20 -16 -20 -5 0 -9 -4 -9 -9 0 -5 -10 -25 -22 -45
-16 -23 -31 -36 -48 -37 -18 -1 -20 -3 -7 -6 22 -6 19 -32 -6 -47 -14 -8 -20
-8 -27 4 -5 8 -12 11 -17 7 -4 -5 3 -16 15 -26 21 -15 22 -19 8 -30 -9 -8 -16
-18 -16 -23 0 -6 -6 -24 -14 -41 -8 -18 -28 -63 -45 -100 -17 -38 -31 -74 -31
-81 0 -7 -7 -21 -15 -32 -8 -10 -15 -28 -15 -40 0 -11 -4 -24 -9 -30 -9 -8
-161 -459 -174 -514 -4 -14 -21 -34 -39 -44 -40 -23 -72 -55 -81 -78 -5 -15
-1 -18 27 -18 19 0 37 6 39 13 4 9 6 9 6 0 1 -8 16 -13 42 -13 46 0 68 19 69
58 0 17 6 22 26 22 l26 0 -26 -34 c-14 -19 -26 -37 -26 -40 0 -9 30 -7 30 2 1
4 9 17 20 30 25 30 66 23 50 -8 -15 -29 -14 -30 43 -30 40 0 59 6 82 24 25 20
38 23 81 19 44 -5 54 -2 79 21 15 14 30 26 33 26 6 0 -3 -49 -13 -72 -6 -15
-2 -18 28 -18 29 0 44 9 88 55 71 72 84 72 76 0 -5 -49 -3 -55 13 -55 15 0 19
12 27 72 l8 73 65 43 c71 49 176 150 202 197 33 61 50 144 43 211 -6 57 -4 64
14 76 38 24 23 60 -30 73 -15 4 -50 28 -77 55 -53 51 -90 67 -179 77 -57 6
-65 18 -33 46 24 20 26 46 5 73 -38 51 4 167 74 204 31 16 104 5 126 -19 16
-18 15 -19 -14 -26 -39 -8 -81 -51 -81 -82 0 -52 37 -92 85 -92 101 0 135 163
49 235 -52 42 -106 56 -155 39 -67 -24 -100 -68 -120 -157 -12 -58 -12 -58
-49 -58 -21 0 -43 -7 -50 -15 -7 -8 -17 -15 -23 -15 -5 0 -16 -8 -23 -17 -26
-37 -26 -1 1 49 68 129 172 342 205 423 4 11 15 36 24 57 9 20 16 39 16 43 0
4 6 21 13 38 45 106 94 295 104 397 4 36 12 63 26 77 16 18 18 28 11 45 -15
34 -7 53 29 72 31 17 34 16 102 -10 39 -14 85 -29 103 -31 30 -5 32 -3 32 23
0 16 -9 40 -20 54 -11 14 -20 28 -20 33 0 13 29 7 67 -13 21 -11 43 -20 50
-20 7 0 13 -4 13 -9 0 -5 12 -12 26 -15 14 -4 43 -18 65 -31 21 -14 44 -25 50
-25 8 0 10 -19 7 -59 l-4 -59 27 29 c22 24 33 28 56 23 51 -11 81 -28 76 -41
-6 -15 13 -18 22 -3 6 10 10 8 73 -23 45 -23 79 -21 92 3 6 11 15 18 21 15 22
-14 -1 -125 -27 -125 -20 0 -47 -46 -39 -69 5 -16 11 -18 29 -12 12 5 33 7 47
4 15 -3 30 1 38 11 14 17 7 36 -15 36 -8 0 -14 6 -14 14 0 8 -5 16 -11 18 -8
3 -6 10 5 20 9 9 16 19 16 23 0 4 19 32 43 63 23 31 60 84 82 117 58 87 64 93
81 70 7 -10 11 -21 9 -25 -7 -11 88 1 103 13 9 7 17 4 28 -12 15 -21 17 -21
35 -5 10 9 19 23 19 31 0 7 10 17 23 22 12 5 50 21 85 35 34 14 62 21 62 16 0
-6 -4 -10 -9 -10 -18 0 -51 -68 -51 -104 0 -21 -5 -46 -10 -57 -17 -31 -2 -22
53 30 29 27 68 63 87 80 41 37 37 40 -10 6 -18 -13 -37 -22 -41 -19 -28 17 10
105 55 125 21 9 21 9 -2 5 -14 -3 -26 2 -31 12 -8 14 -14 15 -40 5 -58 -21
-53 30 7 69 62 42 97 57 144 63 l45 6 6 -77 c11 -124 12 -121 -26 -116 -24 3
-38 -2 -52 -18 -11 -12 -15 -20 -10 -18 6 2 21 -8 33 -20 15 -15 31 -22 43
-19 28 7 24 -17 -6 -33 -13 -7 -22 -17 -19 -22 3 -5 12 -4 20 3 8 6 17 9 20 6
9 -9 -6 -27 -22 -27 -23 0 -86 -36 -119 -67 -57 -55 -93 -127 -97 -191 -3 -43
-5 -49 -20 -41 -21 12 -37 11 -19 0 11 -7 11 -14 -4 -38 -24 -40 -55 -60 -66
-41 -6 9 -9 6 -9 -11 0 -20 3 -22 28 -16 34 8 62 33 62 55 0 9 7 17 15 17 8 0
15 -6 15 -14 0 -17 1 -17 65 13 81 39 175 156 175 218 0 15 3 16 15 6 9 -7 15
-29 15 -52 0 -92 67 -294 118 -354 20 -24 74 -54 94 -54 17 1 52 31 61 53 9
23 27 22 27 -3 0 -27 47 -72 66 -62 12 6 10 14 -11 42 -29 40 -31 62 -8 86 16
16 16 17 -15 12 -18 -2 -32 -4 -32 -4 -1 1 -3 19 -7 41 -9 69 -20 87 -42 75
-11 -5 -23 -15 -26 -20 -11 -17 -54 -11 -65 9 -5 11 -10 38 -10 60 0 43 20
104 27 84 3 -9 34 -13 108 -13 l103 0 7 30 c4 19 13 30 23 30 9 0 26 7 36 15
11 8 28 15 37 15 10 0 27 12 39 27 24 31 22 81 -6 134 -16 31 -12 49 11 49 17
0 34 30 28 48 -7 19 -77 15 -96 -5 -20 -23 -91 -22 -118 3 -33 30 -18 74 26
74 23 0 39 22 49 68 4 17 11 34 16 37 13 8 123 -20 128 -33 5 -15 -8 -15 -42
-2 -14 5 -26 6 -26 1 0 -25 165 -22 204 4 22 14 25 14 40 -1 9 -9 23 -29 31
-45 9 -16 20 -29 25 -29 6 0 10 -5 10 -10 0 -6 18 -35 40 -64 22 -29 40 -58
40 -64 0 -18 -72 -14 -102 6 -29 19 -56 52 -78 96 -14 27 -15 28 -18 8 -2 -12
11 -43 29 -70 25 -38 42 -53 78 -66 25 -9 54 -16 64 -16 10 0 38 -11 63 -25
44 -25 45 -25 39 -4 -4 11 -16 30 -26 40 -14 14 -18 27 -13 41 4 13 2 18 -5
14 -9 -6 -51 26 -51 39 0 3 -5 11 -10 18 -37 44 -50 61 -50 66 0 3 -14 22 -31
41 l-31 35 53 13 c69 16 158 0 190 -34 21 -22 21 -22 42 -3 19 17 22 18 39 2
10 -9 30 -16 45 -17 l28 -1 0 -90 c0 -88 1 -92 39 -150 21 -32 39 -69 40 -82
2 -41 12 -25 24 40 9 50 24 153 26 189 1 3 4 10 9 14 4 4 7 18 7 31 0 20 4 22
25 17 19 -5 30 0 45 17 l19 24 1 -22 c0 -23 85 -198 108 -221 16 -18 15 -22
-7 -22 -11 0 -26 7 -35 15 -8 8 -22 15 -30 15 -9 0 -16 -7 -16 -15 0 -37 -27
-5 -53 65 -3 8 -3 -16 0 -55 3 -38 10 -76 15 -82 6 -7 8 -19 5 -28 -7 -16 5
-43 41 -93 30 -41 39 -41 34 3 -5 43 20 79 47 66 9 -5 27 -14 41 -20 14 -7 34
-19 44 -26 18 -13 18 -16 4 -32 -8 -10 -18 -26 -21 -35 -4 -10 -13 -18 -21
-18 -19 0 -28 -27 -12 -33 8 -3 16 -20 20 -39 8 -42 37 -97 88 -165 l40 -53
-17 -36 c-41 -87 -27 -184 36 -247 21 -20 41 -47 44 -58 13 -41 102 -55 125
-20 3 5 15 11 28 15 20 7 22 4 23 -26 2 -32 2 -32 8 7 l6 40 38 -53 c46 -63
43 -82 -12 -82 -22 0 -41 -5 -44 -12 -6 -20 13 -55 38 -68 19 -10 23 -23 29
-81 6 -68 49 -171 86 -209 34 -33 97 -78 115 -82 28 -5 45 36 45 112 0 78 -19
131 -81 229 -44 69 -52 101 -25 101 6 0 19 9 29 20 9 11 24 20 32 20 8 0 15 4
15 9 0 5 9 13 21 16 11 4 18 9 16 12 -7 7 -97 -47 -97 -58 0 -5 -7 -9 -15 -9
-17 0 -20 23 -5 51 6 10 15 45 21 76 6 32 13 61 15 65 3 4 24 -10 47 -32 22
-22 45 -40 49 -40 4 0 8 -7 8 -15 0 -8 -5 -15 -12 -15 -6 0 -9 -3 -6 -6 7 -6
30 6 62 31 19 14 19 16 -14 45 -90 81 -150 143 -150 158 0 30 -41 101 -82 142
-54 54 -116 80 -189 80 -55 0 -129 -26 -145 -51 -12 -20 -31 -5 -75 60 -68
100 -76 130 -49 185 23 48 64 73 101 61 20 -7 21 -9 6 -20 -56 -41 -26 -134
43 -134 35 0 59 21 66 57 9 45 -1 75 -38 111 -31 30 -37 32 -101 30 -37 -1
-69 0 -70 2 -2 2 -8 17 -15 32 -9 22 -9 28 1 26 35 -4 37 1 37 86 0 82 -1 85
-20 75 -11 -6 -32 -7 -47 -4 -27 7 -27 7 -10 -11 10 -9 16 -24 13 -32 -3 -8
-6 -17 -6 -19 0 -2 -8 -4 -19 -4 -17 0 -38 33 -85 127 -6 13 -14 23 -18 23 -5
0 -8 7 -8 15 0 9 9 15 25 15 14 0 25 5 25 11 0 20 62 1 91 -29 16 -15 29 -35
29 -44 0 -10 7 -18 15 -18 8 0 15 5 15 10 0 14 66 12 156 -5 93 -18 112 -10
89 35 -19 37 -57 63 -122 84 -48 16 -53 20 -53 47 0 16 6 31 13 34 6 2 54 5
105 7 l93 4 32 -43 c33 -46 60 -53 65 -16 3 21 5 20 32 -10 23 -26 26 -36 18
-57 -5 -14 -16 -31 -25 -38 -14 -10 -14 -12 -2 -12 8 0 25 9 37 20 12 11 26
20 32 20 5 0 10 5 10 10 0 7 6 7 19 0 32 -17 46 -12 27 9 -15 16 -15 19 -2 24
11 4 18 -1 22 -18 7 -29 20 -31 91 -8 50 16 53 19 53 49 0 18 -7 39 -15 48
-17 16 -20 36 -6 36 6 0 16 -12 23 -27 11 -23 21 -29 55 -31 35 -3 42 0 48 18
5 15 0 29 -15 45 -31 33 -54 36 -97 14 -21 -11 -58 -19 -85 -19 -41 0 -50 -4
-58 -23 l-9 -22 0 23 c-1 12 4 22 9 22 6 0 10 6 10 13 0 17 40 60 70 74 24 11
23 12 -8 6 l-33 -6 46 89 c26 49 50 91 56 92 5 2 9 8 9 14 0 12 41 47 55 48 6
0 28 -9 50 -20 22 -11 47 -20 57 -20 16 0 16 3 2 35 -23 55 -18 96 16 132 17
18 30 36 30 41 0 6 7 12 15 16 9 3 15 0 15 -9 0 -17 30 -34 48 -28 6 3 12 11
12 19 0 8 4 14 9 14 5 0 19 27 31 60 18 49 21 72 16 118 -3 31 -7 68 -9 81 -1
14 5 28 17 35 48 28 58 47 60 110 2 83 8 90 54 66 41 -22 68 -25 78 -9 11 18
-11 30 -60 32 -51 2 -53 5 -31 47 14 28 20 30 71 30 49 0 55 2 44 15 -7 8 -21
15 -32 15 -31 0 -10 19 30 26 20 4 51 13 69 21 44 18 63 16 63 -6 0 -25 38
-71 59 -71 44 0 53 45 17 86 l-23 28 -72 -14 c-39 -7 -71 -16 -71 -20 0 -4
-12 -7 -27 -6 -24 1 -27 5 -25 26 8 58 51 74 182 70 90 -2 109 -10 111 -44 1
-15 3 -12 8 9 5 23 12 31 34 33 22 3 27 -1 27 -17 0 -12 -6 -21 -16 -21 -8 0
-12 -5 -9 -11 4 -6 13 -8 21 -5 8 3 14 2 14 -2 0 -18 42 -52 65 -52 34 0 45
52 18 89 -17 22 -29 26 -82 29 l-61 3 -2 77 -2 77 -3 -67 c-4 -74 -16 -84 -47
-42 -14 20 -17 36 -12 72 7 55 -2 50 -15 -8 -9 -38 -7 -46 17 -78 l27 -35
-105 6 c-96 6 -112 4 -168 -17 -35 -12 -67 -30 -72 -39 -11 -21 -28 -22 -28
-3 0 37 -75 146 -100 146 -5 0 -10 4 -10 10 0 5 -16 12 -36 16 -42 8 -69 43
-60 79 5 18 13 25 29 25 39 0 67 35 67 84 0 27 -6 48 -15 56 -23 19 -18 34 15
53 27 16 30 17 30 2 0 -22 66 -121 93 -140 20 -14 23 -13 38 7 24 31 39 87 39
141 0 48 -21 141 -39 176 -13 24 -14 68 -2 76 6 3 27 39 48 80 34 68 41 75 73
80 19 3 55 12 80 19 l45 14 -72 1 -73 1 -1 55 c-1 30 -2 61 -3 68 -1 6 23 24
53 39 29 14 58 31 63 36 7 7 19 4 39 -10 33 -24 96 -20 116 9 18 23 17 25 -18
61 -28 29 -30 33 -15 47 9 9 16 25 16 35 0 15 24 30 54 34 5 1 8 -43 7 -96 -2
-96 4 -121 50 -209 16 -31 -20 -55 -96 -65 l-70 -9 64 -5 c61 -5 64 -6 67 -33
6 -57 38 -84 90 -78 6 1 19 -14 28 -33 18 -39 20 -56 6 -56 -14 0 -31 -73 -29
-132 1 -64 -13 -141 -31 -162 -18 -23 2 -20 28 4 12 11 24 20 27 20 3 0 16 11
28 24 27 29 41 23 44 -19 1 -22 15 -42 49 -73 73 -67 116 -85 188 -80 33 3 62
10 64 16 2 7 9 12 16 12 15 0 35 25 60 71 14 26 17 46 12 72 -4 21 -11 37 -16
37 -6 0 -10 5 -10 11 0 16 -60 68 -107 91 -32 16 -54 20 -99 16 -32 -3 -60
-10 -62 -16 -2 -7 -9 -12 -15 -12 -7 0 -25 -16 -41 -35 -16 -19 -32 -35 -35
-35 -3 0 -4 22 -3 48 3 40 8 51 30 65 28 17 14 24 -17 8 -14 -8 -19 -4 -28 19
-9 24 -7 34 18 71 53 80 51 167 -4 219 -28 26 -40 30 -88 30 -56 0 -57 0 -62
33 -2 17 -2 38 0 45 7 17 30 15 37 -3 3 -8 16 -15 30 -15 27 0 41 27 31 59 -4
12 3 28 18 45 30 33 37 33 37 1 0 -15 7 -40 16 -58 10 -19 17 -58 18 -98 0
-37 5 -65 9 -62 5 3 39 2 77 -2 74 -7 84 -22 29 -42 -20 -8 -28 -16 -24 -24
18 -28 231 11 299 56 25 17 34 49 18 70 -17 25 -64 45 -103 45 -44 0 -49 -1
-191 -48 -49 -16 -88 -25 -88 -20 0 6 6 22 14 36 8 15 21 47 31 72 17 47 30
78 59 143 16 37 17 37 38 23 12 -9 31 -16 41 -16 24 0 79 54 72 72 -13 32 -88
45 -120 21 -14 -11 -45 -72 -45 -90 0 -26 -25 -8 -28 21 -2 15 -18 41 -36 58
-30 29 -32 34 -25 72 15 80 22 89 110 134 68 34 85 39 91 27 5 -8 29 -35 53
-61 25 -26 49 -60 53 -77 19 -73 27 -31 24 124 -3 122 0 164 10 176 7 9 17 30
23 46 7 21 20 34 41 41 86 30 97 126 14 126 -25 0 -28 4 -34 45 -4 25 -11 45
-17 45 -5 0 -9 8 -9 18 0 22 -55 83 -100 109 -19 11 -56 26 -83 33 -36 10 -46
17 -43 29 3 9 8 34 11 56 18 118 64 196 122 208 38 7 83 -2 102 -23 26 -27 22
-35 -19 -35 -48 -1 -79 -34 -80 -86 0 -49 29 -74 86 -74 36 0 49 5 68 28 50
58 43 152 -15 209 -29 29 -39 33 -99 36 -67 4 -68 4 -108 -35 -55 -53 -67 -84
-101 -262 -8 -46 -42 -59 -75 -28 -23 21 -43 33 -118 67 -18 9 -28 23 -33 46
-3 19 -9 34 -13 34 -4 0 -13 13 -19 30 -19 50 -109 91 -169 76 -15 -4 -40 -21
-56 -38 -43 -47 -84 -44 -102 6 -6 16 -4 17 9 6 14 -11 19 -10 37 8 20 20 20
22 5 46 -19 29 -22 107 -7 174 6 23 15 86 20 139 6 54 15 102 20 107 7 7 10 6
10 -2 0 -8 17 -12 45 -12 25 0 45 4 45 10 0 5 11 12 24 16 18 4 31 -2 55 -25
24 -23 27 -31 15 -31 -9 0 -41 -11 -69 -25 -39 -18 -58 -34 -72 -62 -10 -21
-27 -50 -37 -65 -13 -19 -16 -36 -11 -58 6 -26 11 -31 33 -28 22 2 28 9 30 36
2 22 -2 34 -12 38 -12 5 -7 11 20 24 57 30 75 28 129 -14 l50 -38 79 5 c60 4
94 1 138 -13 32 -10 58 -14 58 -10 0 10 -228 180 -241 180 -5 0 -9 3 -9 8 0 4
-22 22 -50 41 l-49 34 29 36 c37 44 38 79 5 115 -30 32 -65 32 -80 -1 -5 -13
-13 -23 -17 -23 -5 0 -8 -7 -8 -15 0 -11 -11 -15 -38 -15 -76 0 -96 -46 -121
-271 -11 -103 -16 -108 -57 -62 -30 34 -34 44 -34 93 1 30 7 66 15 80 17 30
18 40 5 40 -5 0 -19 -18 -30 -40 -16 -32 -20 -57 -19 -123 1 -45 1 -86 -1 -92
-1 -5 -2 -18 -1 -29 1 -15 7 -18 35 -13 29 5 35 2 45 -19 6 -14 11 -33 11 -42
-1 -21 -64 -52 -82 -41 -7 5 -38 9 -69 9 -53 0 -59 -2 -93 -40 l-35 -39 -42
22 c-43 23 -70 56 -47 59 7 0 31 2 53 2 36 1 40 4 43 28 2 18 -4 33 -17 45
-12 10 -21 30 -21 45 0 76 -71 148 -146 148 -25 0 -47 6 -54 15 -18 21 -54 20
-46 -1 4 -11 -1 -22 -14 -31 -23 -16 -27 -43 -6 -43 8 0 37 12 65 26 45 23 54
25 80 14 16 -6 35 -24 41 -40 16 -38 -9 -91 -61 -128 -45 -31 -47 -43 -16 -72
17 -16 22 -32 22 -70 0 -56 -11 -72 -42 -64 -20 6 -22 11 -16 50 6 48 -10 84
-49 105 l-21 12 21 -28 c12 -15 22 -36 22 -47 0 -23 -17 -58 -29 -58 -12 0
-37 65 -45 116 -7 37 -5 42 16 48 13 3 37 6 53 6 30 1 30 1 6 11 -14 5 -37 7
-51 4 -25 -5 -26 -4 -22 31 4 33 3 36 -16 32 -17 -5 -23 1 -32 27 -6 18 -8 46
-5 61 5 29 5 29 -5 4 -11 -25 -5 -104 11 -147 5 -15 3 -25 -7 -33 -15 -13 -20
-45 -5 -35 5 3 13 -5 17 -17 4 -13 15 -29 25 -36 13 -9 19 -25 19 -50 -1 -31
-3 -34 -13 -22 -7 8 -19 15 -27 15 -8 0 -24 14 -36 32 -12 18 -24 29 -28 26
-10 -11 -7 -49 8 -77 13 -26 12 -29 -49 -88 -52 -50 -66 -71 -79 -117 -8 -31
-13 -66 -10 -79 7 -24 12 -23 -113 -13 -7 1 -14 13 -14 29 -1 17 -3 21 -6 9
-3 -10 -24 -38 -48 -62 -43 -43 -45 -43 -67 -26 -13 9 -36 22 -51 29 -15 6
-30 20 -34 29 -12 34 -84 112 -98 107 -17 -7 -38 29 -25 42 14 14 -17 54 -41
54 -10 0 -19 6 -19 14 0 22 49 56 81 56 23 0 29 -5 30 -22 1 -17 2 -19 6 -5 5
18 33 24 33 7 0 -5 9 -14 19 -19 31 -17 34 14 5 48 -18 22 -23 37 -19 58 l5
28 -11 -27 c-8 -23 -15 -27 -34 -22 -12 3 -37 -1 -53 -10 -42 -22 -47 -20 -29
8 69 105 107 206 107 287 0 116 -84 256 -183 302 -47 21 -145 22 -194 2 -19
-8 -37 -15 -38 -15 -1 0 -8 15 -15 33 -6 17 -18 48 -25 67 -8 19 -21 61 -30
93 -16 57 -35 77 -35 35 0 -13 7 -44 15 -70 8 -27 11 -48 7 -49 -4 -1 -23 0
-44 1 -20 1 -45 -4 -56 -11 -18 -11 -30 -8 -91 24 -39 20 -74 37 -78 37 -15 0
34 -36 74 -55 24 -11 43 -24 43 -30 0 -5 -13 -25 -29 -44 l-28 -34 -31 19
c-18 10 -32 21 -32 24 0 4 -7 7 -15 7 -20 0 -19 -7 3 -23 16 -13 16 -15 0 -25
-11 -6 -18 -22 -18 -39 0 -40 -16 -46 -42 -17 -13 13 -33 27 -45 31 -11 4 -24
13 -27 22 -5 13 13 66 35 104 19 32 29 62 23 71 -9 15 -18 10 -36 -22 l-18
-30 -37 26 c-21 14 -43 25 -49 25 -7 0 -10 -34 -10 -100 1 -55 1 -100 0 -100
-1 0 -27 40 -58 89 -57 89 -58 89 -89 80 -18 -5 -67 -13 -110 -19 -42 -5 -106
-14 -140 -20 l-62 -11 2 -82 c1 -69 5 -83 20 -88 133 -49 169 -48 159 2 -9 48
2 79 29 79 24 0 35 -17 35 -54 0 -23 -22 -47 -55 -60 -20 -7 -20 -8 -1 -22 11
-8 26 -14 34 -14 8 0 26 -6 40 -14 15 -8 65 -33 112 -55 95 -45 159 -80 178
-98 6 -6 21 -15 32 -18 11 -3 20 -11 20 -16 0 -5 5 -9 11 -9 6 0 17 -7 25 -15
9 -8 31 -15 49 -15 24 0 39 -7 54 -26 11 -15 19 -30 16 -34 -3 -5 19 -28 47
-52 67 -54 147 -135 218 -218 30 -35 63 -72 72 -82 22 -22 34 -68 19 -68 -6 0
-10 4 -8 8 1 5 -11 22 -28 39 -16 17 -37 41 -45 53 -30 44 -224 230 -241 230
-5 0 -9 4 -9 8 0 18 -267 201 -360 246 -30 15 -62 31 -70 35 -8 5 -33 17 -55
26 -22 10 -53 24 -70 31 -39 17 -204 69 -280 88 -184 45 -235 51 -490 51 -286
0 -361 -10 -605 -82 -119 -35 -391 -150 -410 -174 -3 -3 -16 -12 -30 -19 -28
-14 -158 -99 -177 -115 -7 -5 -18 -14 -25 -20 -138 -106 -219 -180 -298 -273
-24 -29 -50 -50 -57 -48 -7 3 -10 0 -7 -7 2 -7 -7 -24 -21 -39 -14 -16 -23
-28 -20 -28 3 0 -2 -8 -12 -18 -20 -21 -58 -38 -48 -22 3 6 13 10 21 10 8 0
12 5 9 10 -3 6 -2 10 4 10 6 0 8 6 5 14 -3 7 2 16 10 19 9 4 16 14 16 22 0 9
5 13 10 10 6 -3 10 -1 10 5 0 37 228 266 369 371 58 43 111 83 118 89 7 5 15
10 18 10 3 0 26 13 51 28 35 22 42 31 32 39 -29 23 -170 83 -196 83 -25 0
-112 21 -152 37 -8 3 -19 7 -25 9 -41 10 -72 31 -120 81 -30 32 -55 62 -55 66
0 4 -8 17 -18 28 -11 10 -25 32 -33 47 -28 54 -37 55 -36 6 0 -53 -9 -63 -135
-146 -43 -28 -78 -55 -78 -60 0 -4 -6 -8 -13 -8 -12 0 -26 -9 -74 -50 -7 -5
-15 -10 -18 -10 -4 0 -13 -7 -21 -15 -9 -8 -21 -15 -27 -15 -12 1 10 22 53 50
12 8 28 21 36 28 7 6 15 12 19 12 4 0 32 19 63 43 31 24 74 53 95 66 42 26 43
27 22 47 -22 23 -20 106 3 127 22 20 38 22 46 5 3 -7 3 -2 0 12 -4 13 -13 30
-20 37 -7 7 -15 22 -19 33 -4 13 -24 25 -63 36 -31 9 -76 22 -99 29 -49 14
-52 4 -13 -35 88 -86 69 -150 -45 -150 -31 0 -125 27 -135 39 -3 3 -23 15 -45
26 -22 11 -46 26 -53 32 -7 7 -17 13 -22 13 -9 0 -5 23 17 93 16 53 11 71 -12
41 -14 -18 -15 -18 -40 14 -15 17 -35 32 -45 32 -20 0 -34 -40 -25 -71 10 -29
-11 -23 -57 19 -75 66 -72 61 -42 72 15 6 25 13 22 15 -3 3 -58 22 -124 43
l-119 39 -3 -23 c-4 -28 -27 -48 -47 -40 -21 8 -19 32 4 55 18 18 18 19 -6 30
-13 6 -31 11 -39 11 -8 0 -27 6 -42 14 -15 7 -45 17 -67 21 -39 7 -40 7 -22
-13z m4665 -611 c69 -35 117 -108 127 -192 7 -52 6 -53 -10 -32 -9 14 -31 25
-54 29 -32 5 -40 11 -51 43 -15 42 -98 124 -118 116 -8 -3 -19 -5 -26 -5 -6 0
-19 -12 -28 -27 -16 -26 -17 -27 -18 -6 0 12 -4 25 -10 28 -18 11 -11 30 18
47 37 24 123 23 170 -1z m-388 -45 c0 -19 7 -39 15 -46 8 -7 15 -25 15 -40 0
-16 7 -30 15 -34 10 -4 15 -20 15 -51 0 -50 31 -109 71 -138 17 -11 20 -16 9
-17 -49 -5 -67 -8 -82 -14 -15 -7 -17 1 -21 66 l-3 73 -2 -81 c-2 -89 -8 -100
-62 -111 -30 -6 -33 -4 -25 13 31 75 37 103 31 162 -4 50 -12 71 -35 101 -21
26 -28 44 -24 59 6 25 1 27 -27 10 -17 -11 -22 -10 -30 2 -5 8 -5 17 -1 20 4
3 13 15 20 28 8 15 21 22 41 22 31 0 48 -15 28 -23 -8 -3 -5 -6 6 -6 13 -1 17
4 14 17 -4 12 1 18 13 19 15 1 19 -5 19 -31z m180 -25 c0 -9 4 -21 9 -26 5 -6
17 -35 26 -65 10 -30 21 -57 26 -60 13 -9 22 -60 10 -60 -6 0 -12 12 -12 28
l-1 27 -7 -30 c-5 -23 -12 -29 -26 -27 -31 5 -67 35 -88 72 -17 30 -17 39 -6
75 7 22 19 47 26 56 7 8 13 21 13 27 0 6 7 9 15 6 8 -4 15 -14 15 -23z m164
-46 c22 -34 20 -91 -5 -126 -35 -49 -43 -43 -87 66 -19 46 -19 50 -4 54 9 2
26 10 37 17 28 20 40 17 59 -11z m146 -215 c-12 -25 -29 -57 -38 -71 -9 -15
-26 -41 -37 -58 -10 -17 -22 -31 -26 -31 -3 0 -18 28 -33 62 l-26 62 30 24
c16 13 30 30 30 38 0 15 7 17 56 14 18 -1 36 6 45 16 23 28 23 -5 -1 -56z
m-1565 0 c55 -12 114 -25 130 -31 183 -58 173 -54 305 -117 99 -47 291 -169
348 -222 18 -16 35 -30 37 -30 7 0 195 -193 195 -200 0 -3 13 -21 30 -40 16
-18 27 -37 24 -41 -3 -5 0 -9 5 -9 6 0 11 -6 11 -12 0 -7 -23 12 -50 42 -157
173 -335 325 -470 403 -149 87 -359 173 -464 192 -21 3 -46 10 -55 15 -68 36
-520 47 -681 17 -125 -23 -183 -37 -202 -47 -9 -5 -35 -13 -58 -16 -22 -4 -40
-10 -40 -14 0 -4 -16 -11 -36 -15 -53 -10 -84 -26 -84 -45 0 -9 -11 -29 -25
-44 -18 -20 -34 -26 -64 -26 -22 0 -41 5 -44 13 -3 9 -9 8 -23 -4 -10 -9 -23
-18 -29 -20 -25 -10 -115 -73 -115 -80 0 -5 -7 -9 -15 -9 -8 0 -15 -3 -15 -7
0 -5 -17 -19 -38 -33 -20 -13 -49 -37 -64 -52 -15 -15 -29 -28 -32 -28 -3 0
-39 -34 -81 -75 -41 -41 -72 -75 -70 -75 3 0 -13 -16 -35 -36 -22 -20 -40 -43
-40 -52 0 -8 -3 -12 -7 -9 -3 4 -13 -1 -21 -11 -29 -35 22 44 57 88 83 104
142 166 230 240 29 25 62 53 74 63 11 9 24 17 28 17 4 0 14 6 21 13 7 7 31 24
53 37 22 13 42 26 45 29 8 9 82 51 119 67 18 8 36 24 38 35 4 15 13 20 32 18
27 -3 55 4 106 26 103 45 292 93 414 106 135 14 444 2 556 -21z m2521 -215
c25 -19 52 -35 60 -35 8 0 14 -3 15 -7 8 -71 29 -105 75 -122 43 -15 48 -14
83 15 30 25 31 25 59 9 15 -10 38 -38 50 -64 12 -26 35 -65 52 -86 29 -36 35
-39 89 -42 l58 -3 -4 27 -4 28 18 -27 c10 -16 21 -28 26 -28 4 0 24 -7 43 -15
l35 -15 -33 -44 c-18 -24 -38 -52 -45 -62 -11 -18 -12 -18 -27 3 -9 12 -23 29
-31 37 -8 8 -15 18 -15 23 0 4 -14 24 -30 43 -24 30 -30 32 -35 18 -9 -23 -55
-24 -101 -2 -32 16 -74 71 -74 100 0 8 -4 14 -10 14 -25 0 7 -79 47 -117 13
-12 23 -26 23 -31 0 -25 65 -67 132 -84 39 -10 79 -25 88 -33 15 -14 15 -18
-4 -60 -21 -45 -22 -45 -71 -45 -57 0 -86 -16 -143 -78 -37 -40 -70 -54 -73
-32 -1 6 -2 22 -4 38 -1 15 -5 35 -9 44 -9 21 10 58 30 58 8 0 12 5 9 10 -4 6
-11 8 -16 5 -5 -4 -9 6 -9 21 0 26 -1 27 -50 21 -56 -7 -65 5 -20 28 39 20 54
49 40 75 -14 27 -42 25 -70 -5 -22 -23 -23 -28 -12 -72 9 -40 8 -51 -5 -65
-25 -28 -53 -23 -53 10 0 20 -3 23 -9 13 -8 -12 -12 -12 -25 -2 -12 10 -13 18
-4 39 6 15 11 70 11 122 -1 116 -18 166 -80 231 -28 29 -41 49 -34 53 15 10
14 99 -1 114 -27 27 13 11 58 -23z m247 26 c16 -6 29 -23 37 -45 6 -19 18 -40
26 -46 16 -14 19 -60 3 -60 -26 0 -49 22 -49 47 0 42 -36 73 -84 72 l-41 -1
32 -9 c35 -10 68 -48 54 -62 -5 -5 -17 -5 -27 1 -11 5 -36 17 -56 26 -29 12
-36 19 -31 33 18 47 77 66 136 44z m-534 -323 c1 -93 0 -98 -20 -98 -12 0 -37
16 -57 36 -66 66 -52 177 29 232 l34 23 7 -48 c3 -26 7 -92 7 -145z m257 100
c18 -28 27 -59 31 -106 8 -99 -8 -143 -75 -211 -90 -91 -84 -89 -136 -37 -28
28 -41 48 -34 52 6 4 17 -1 23 -10 19 -25 65 -11 65 19 0 13 14 49 30 80 33
64 37 105 14 150 -15 30 -12 75 6 75 6 0 10 6 10 14 0 15 20 26 33 19 4 -3 19
-23 33 -45z m710 -6 c18 -40 66 -88 96 -98 42 -13 11 -39 -54 -46 -45 -5 -48
-4 -63 26 -9 17 -27 49 -40 71 -29 48 -31 64 -8 80 25 19 50 7 69 -33z m-1608
-86 c29 -40 67 -89 85 -108 43 -49 57 -66 57 -72 0 -2 -20 -14 -45 -26 l-45
-22 17 -29 c14 -23 24 -29 51 -29 32 0 34 2 27 27 -3 15 -12 31 -18 35 -7 5
-2 8 13 9 14 0 33 2 42 4 10 2 21 -1 24 -7 9 -14 14 -108 6 -110 -29 -6 -68
-3 -74 5 -5 8 -18 6 -43 -6 -20 -9 -50 -17 -67 -17 -33 0 -33 3 -12 79 7 22 5
23 -25 16 -34 -7 -38 -4 -173 142 -54 57 -58 69 -26 79 18 5 28 -1 54 -32 18
-21 30 -42 27 -48 -3 -5 -1 -6 5 -2 6 3 25 -14 43 -39 19 -27 35 -41 39 -34 5
7 12 6 23 -5 17 -18 29 -9 46 35 8 23 2 36 -55 113 -52 70 -63 90 -53 102 6 8
14 14 18 13 3 0 30 -33 59 -73z m-4394 42 c-3 -5 -12 -7 -20 -4 -10 4 -12 -2
-8 -24 4 -16 0 -40 -9 -57 -8 -15 -23 -45 -33 -65 -10 -21 -22 -38 -26 -38
-20 0 -49 66 -44 99 6 41 51 91 82 91 13 0 25 4 29 10 3 5 12 7 20 4 8 -4 12
-10 9 -16z m86 -18 c44 -31 70 -81 70 -134 0 -25 -2 -46 -6 -46 -11 0 -75 76
-80 97 -3 11 -14 23 -25 26 -24 6 -24 -1 0 -27 19 -20 19 -23 4 -54 -20 -40
-44 -54 -88 -50 l-33 3 34 73 c19 40 39 70 44 67 5 -3 7 1 4 9 -8 20 13 56 32
56 9 0 29 -9 44 -20z m6303 -58 c17 -9 38 -24 46 -33 51 -50 74 -154 47 -207
-9 -17 -16 -43 -16 -58 0 -32 -82 -120 -101 -109 -15 10 -3 122 17 152 8 12
14 46 14 76 0 44 -5 62 -31 96 -38 54 -51 45 -19 -13 21 -40 22 -47 10 -76
-21 -50 -53 -80 -87 -80 l-30 0 4 53 c3 28 9 66 13 82 5 17 12 56 16 89 l7 58
40 -6 c22 -4 54 -14 70 -24z m-2411 -103 c31 -39 33 -40 48 -22 42 52 89 64
140 38 33 -17 164 -180 156 -194 -3 -5 -14 -11 -25 -14 -14 -3 -27 6 -49 37
-65 89 -110 136 -132 136 -24 0 -73 -47 -64 -63 9 -15 74 -97 92 -116 34 -36
45 -61 32 -76 -7 -8 -15 -15 -19 -15 -3 0 -28 28 -56 62 -27 35 -85 101 -127
149 -72 80 -76 87 -60 102 23 24 27 22 64 -24z m-3861 -1 c33 -37 34 -40 17
-71 -21 -37 -51 -68 -82 -84 -28 -15 -198 -55 -204 -48 -6 5 10 55 18 55 4 0
11 11 14 25 6 22 12 25 47 25 74 0 128 39 145 104 3 14 8 26 11 26 2 0 17 -15
34 -32z m5929 0 c-26 -101 -27 -125 -7 -152 10 -14 24 -26 30 -26 7 0 23 -12
36 -26 13 -14 37 -28 53 -31 32 -6 33 -13 16 -95 -8 -40 -17 -58 -28 -58 -13
0 -13 -1 0 -10 13 -9 13 -11 0 -20 -10 -6 -16 -6 -18 0 -2 6 -20 7 -41 4 l-38
-6 -12 61 c-7 34 -16 61 -22 61 -5 0 -9 5 -9 11 0 15 -70 77 -103 90 -32 13
-31 20 14 114 32 66 81 115 115 115 20 0 21 -3 14 -32z m-2086 -141 c3 -12 2
-23 -2 -25 -29 -10 -70 -44 -75 -62 -8 -32 20 -37 64 -12 45 26 60 27 98 7 81
-42 42 -159 -68 -205 -36 -14 -36 -14 -44 21 -6 23 -2 28 22 39 16 6 41 25 57
41 24 26 26 31 14 44 -13 12 -22 11 -65 -10 -64 -31 -90 -31 -120 0 -49 48
-22 127 58 176 35 20 53 16 61 -14z m1069 16 c3 -5 7 -26 8 -48 4 -38 3 -39
-31 -46 -20 -4 -47 -21 -63 -39 -26 -29 -31 -31 -59 -21 -17 6 -47 11 -68 11
-37 0 -94 29 -58 30 9 0 18 4 20 8 2 5 37 32 78 60 64 44 82 51 122 52 26 0
49 -3 51 -7z m336 -24 c11 -18 11 -23 -1 -30 -14 -9 -9 -11 32 -13 14 -1 29
-10 35 -22 6 -12 16 -29 23 -37 10 -12 7 -17 -22 -31 -42 -20 -60 -20 -76 -1
-7 8 -21 15 -31 15 -29 0 -89 -42 -95 -67 -5 -17 -16 -23 -56 -28 -27 -4 -52
-4 -56 -1 -6 7 51 66 63 66 3 0 33 27 68 59 34 33 64 56 65 50 4 -10 32 -13
32 -3 0 4 -8 12 -17 19 -14 11 -15 14 -2 28 18 21 22 21 38 -4z m461 -69 c0
-8 -16 -48 -43 -107 -7 -15 -20 -24 -36 -24 -24 -2 -24 -2 -3 -6 27 -5 27 -13
3 -59 l-20 -36 -25 41 c-34 53 -33 71 2 72 l27 2 -27 4 c-16 2 -28 8 -28 13 0
22 42 76 72 92 36 19 78 24 78 8z m97 -27 c51 -33 83 -87 83 -143 0 -40 -1
-42 -24 -36 -29 7 -37 -2 -29 -33 3 -13 11 -20 19 -17 21 8 17 -24 -8 -61 -29
-41 -94 -77 -178 -97 -36 -9 -75 -18 -87 -22 -17 -5 -23 -2 -23 10 0 9 4 16 9
16 4 0 14 20 21 45 12 45 13 45 57 45 90 0 153 61 153 149 0 52 -13 91 -30 91
-4 0 -4 -16 1 -35 18 -64 -16 -114 -82 -122 -45 -6 -49 4 -23 55 14 30 44 44
44 22 0 -5 10 -10 23 -10 18 1 15 4 -14 18 l-36 17 15 35 c31 72 47 100 57
100 6 0 29 -12 52 -27z m-384 -74 l42 -41 6 29 c8 34 11 30 14 -17 4 -68 17
-102 56 -141 42 -42 42 -34 3 -127 -13 -32 -27 -47 -52 -58 -42 -17 -72 -18
-73 -1 0 9 -2 9 -6 -1 -8 -22 -117 -98 -134 -95 -9 2 -24 23 -33 46 -19 50
-20 67 -5 67 5 0 17 17 25 37 20 47 5 101 -37 129 -16 10 -29 25 -29 33 0 11
-3 11 -15 1 -15 -13 -39 -5 -29 11 3 5 9 7 14 4 4 -3 13 2 20 10 15 19 40 20
40 2 0 -7 14 -28 32 -46 24 -25 38 -31 62 -29 26 2 32 8 34 31 3 22 -5 36 -32
62 -20 18 -36 38 -36 43 0 6 -7 12 -15 16 -23 9 -18 43 8 50 35 9 47 7 47 -8
0 -8 14 -28 31 -45 35 -36 90 -44 88 -13 0 10 -3 12 -6 5 -10 -25 -93 41 -93
74 0 25 32 13 73 -28z m-2893 4 c14 -6 52 -19 85 -29 33 -10 74 -26 90 -35 60
-32 95 -54 95 -61 0 -5 4 -8 10 -8 24 0 182 -155 203 -200 4 -8 16 -28 27 -45
11 -16 23 -37 26 -45 6 -15 25 -60 50 -115 7 -16 16 -69 20 -117 4 -49 11 -88
15 -88 5 0 9 -11 9 -25 0 -16 -4 -23 -14 -19 -9 3 -15 29 -18 76 -3 39 -10 73
-15 77 -6 3 -13 27 -17 53 -10 70 -81 204 -151 287 -44 53 -135 133 -174 153
-14 7 -28 16 -31 19 -5 6 -69 36 -125 59 -58 24 -200 50 -273 50 -76 0 -185
-20 -257 -47 -63 -24 -185 -87 -185 -95 0 -4 -5 -8 -12 -8 -6 0 -53 -42 -102
-92 -73 -75 -101 -111 -139 -186 -26 -51 -47 -101 -47 -111 0 -9 -5 -22 -11
-28 -6 -6 -13 -38 -16 -72 -3 -33 -9 -61 -14 -61 -4 0 -10 -24 -12 -52 -2 -29
-3 -19 -1 22 2 77 17 162 36 215 16 47 82 179 96 193 6 7 12 18 12 23 0 12
167 179 179 179 5 0 16 6 23 13 25 25 190 99 262 118 56 15 100 18 211 15 77
-1 151 -7 165 -13z m3477 -271 c-21 -107 -92 -214 -149 -228 -38 -9 -55 24
-38 79 6 22 16 45 21 51 36 42 48 55 84 82 66 51 90 56 82 16z m-3584 -37 c32
-7 66 -19 75 -26 52 -40 64 -67 40 -87 -37 -30 -253 -41 -363 -19 -53 11 -60
16 -63 39 -2 20 5 32 30 51 68 51 176 68 281 42z m-2411 -259 c4 -6 4 -14 1
-20 -3 -5 -1 -6 6 -2 13 8 50 -30 51 -54 1 -8 14 -25 31 -38 25 -20 30 -21 35
-8 3 9 14 16 24 16 25 0 90 -39 90 -54 0 -17 -37 -46 -52 -41 -7 2 -46 6 -86
9 -68 5 -181 24 -192 33 -2 2 2 8 10 13 10 7 -10 10 -60 10 -93 0 -111 9 -81
39 11 11 23 21 27 21 3 0 19 13 37 30 18 16 35 30 38 30 3 0 19 11 34 24 24
21 32 23 54 13 14 -6 29 -16 33 -21z m48 -218 c67 -12 89 -28 55 -42 -8 -3
-15 -17 -15 -31 0 -21 5 -25 29 -25 20 0 36 9 49 25 13 16 30 25 47 25 l28 0
-6 -72 c-4 -48 -3 -68 3 -58 7 11 10 5 10 -22 0 -21 1 -41 2 -45 1 -5 -6 -9
-15 -11 -13 -3 -17 5 -18 35 -1 28 -3 31 -6 13 -5 -26 -24 -44 -33 -32 -3 4
-17 15 -32 25 -32 20 -35 42 -13 75 14 20 14 21 0 16 -8 -3 -15 -10 -15 -16 0
-5 -8 -17 -17 -26 -12 -12 -18 -13 -21 -4 -5 17 -32 15 -32 -3 0 -9 -10 -15
-26 -15 -19 0 -42 17 -85 62 -61 64 -75 95 -38 85 19 -5 19 -4 5 18 -12 18
-12 25 -3 28 22 9 75 7 147 -5z m1423 -907 c32 -5 73 -15 90 -20 18 -5 59 -16
92 -25 33 -8 87 -21 120 -29 33 -9 84 -21 114 -27 52 -12 71 -15 256 -40 105
-14 435 -8 535 9 185 33 357 73 504 117 26 7 59 14 72 14 13 0 44 5 68 12 39
10 49 9 80 -7 19 -10 37 -28 40 -39 6 -25 -24 -92 -61 -133 -15 -17 -42 -47
-60 -67 -17 -20 -36 -36 -41 -36 -5 0 -15 -7 -22 -15 -7 -9 -19 -14 -27 -11
-7 3 -13 1 -13 -4 0 -6 -5 -10 -11 -10 -5 0 -8 4 -5 9 4 5 -3 7 -15 4 -11 -3
-16 -9 -11 -12 13 -8 -1401 -4 -1445 4 -26 5 -34 12 -41 38 l-8 32 -112 2
c-79 1 -112 -2 -112 -10 0 -7 -4 -6 -10 3 -5 8 -10 11 -10 7 0 -17 -56 27 -86
66 -43 60 -66 114 -59 138 8 25 61 50 95 45 14 -2 51 -9 83 -15z m201 -1087
c122 -40 126 -42 126 -62 0 -10 7 -27 15 -38 23 -30 18 -44 -30 -86 -34 -30
-45 -47 -45 -69 0 -16 4 -29 9 -29 23 0 97 33 133 59 45 33 75 30 95 -9 14
-29 3 -61 -27 -77 -22 -11 -90 -78 -90 -89 0 -7 -63 -87 -75 -96 -12 -9 -35
46 -35 84 0 37 15 66 52 101 18 17 24 27 15 27 -17 0 -60 -49 -101 -115 -15
-25 -30 -44 -32 -42 -3 3 -54 192 -54 202 0 3 16 5 35 5 41 0 75 29 75 65 0
20 -6 25 -35 31 -19 3 -47 3 -62 -2 -44 -13 -47 -11 -54 26 -4 19 -11 49 -17
65 -9 29 0 75 14 75 3 0 43 -12 88 -26z m1086 -93 c0 -29 21 -42 39 -24 14 15
17 13 27 -23 13 -46 0 -123 -24 -141 -9 -7 -27 -13 -41 -13 -18 0 -22 -3 -13
-9 25 -15 8 -44 -33 -58 -48 -16 -74 -11 -52 11 8 8 30 19 48 24 19 6 26 11
17 11 -9 1 -27 -3 -41 -8 -27 -10 -53 1 -43 18 4 6 15 11 24 11 23 1 53 29 75
69 22 41 21 67 -2 111 l-19 35 3 -50 c4 -55 -7 -75 -38 -75 -11 0 -29 -7 -39
-17 -30 -27 -32 -8 -7 63 21 59 28 68 59 78 41 14 60 10 60 -13z m60 -340 c0
-34 8 -65 25 -97 14 -26 25 -51 25 -55 0 -5 -38 -9 -84 -9 -72 0 -85 -3 -89
-17 -2 -10 -3 0 -3 22 1 22 -2 59 -7 82 -6 37 -5 44 14 54 12 6 24 7 28 3 5
-8 27 -10 55 -5 6 0 1 7 -10 15 -19 14 -19 15 1 35 33 33 45 26 45 -28z m-355
-113 c-15 -51 -75 -128 -117 -149 -40 -20 -42 -20 -55 -3 -17 23 -16 34 5 65
36 54 74 82 131 100 40 12 43 11 36 -13z m2003 -396 c2 -7 8 -12 14 -12 5 0
16 -7 24 -15 14 -13 13 -15 -11 -15 -14 0 -24 -3 -21 -8 2 -4 -6 -12 -19 -18
-17 -8 -33 -8 -60 2 -24 8 -45 9 -59 4 -18 -8 -17 -9 11 -9 24 -1 38 -9 58
-36 29 -36 30 -78 5 -124 -11 -22 -12 -22 -28 -4 -10 10 -30 36 -46 58 -17 22
-33 42 -36 45 -3 3 -20 24 -38 47 l-33 42 43 31 c41 30 47 32 117 28 47 -2 76
-8 79 -16z m105 -123 c23 -69 22 -105 -3 -122 -17 -12 -18 -16 -6 -20 16 -6
15 -16 -21 -115 l-15 -43 -24 28 c-46 52 -52 74 -32 113 19 38 23 106 9 129
-7 11 -4 18 12 26 12 6 26 20 32 33 16 35 31 26 48 -29z m48 -486 c56 -93 73
-183 42 -222 -17 -21 -21 -22 -42 -10 -32 20 -61 89 -61 146 0 54 17 123 29
123 5 0 19 -17 32 -37z m-4151 -100 c9 -12 28 -25 43 -28 37 -10 36 -42 0 -51
-16 -4 -49 -28 -74 -53 -117 -119 -102 -283 33 -352 21 -10 46 -19 57 -19 18
0 20 -7 20 -89 l0 -90 -42 -32 c-23 -18 -47 -38 -53 -45 -13 -16 -94 -7 -94
11 0 17 -40 59 -76 80 -57 32 -97 15 -192 -81 -77 -78 -122 -104 -122 -71 0
45 205 490 298 647 11 19 33 60 49 90 32 64 69 104 89 96 8 -3 14 0 14 7 0 7
6 19 13 26 10 10 13 8 17 -6 3 -10 12 -28 20 -40z m218 -108 c33 -10 64 -29
87 -52 33 -34 47 -73 25 -73 -6 0 -15 -11 -22 -24 -12 -28 -37 -41 -50 -28 -5
5 -10 25 -11 45 -1 19 -6 33 -10 30 -5 -3 -19 5 -33 18 -30 28 -41 20 -16 -11
19 -23 19 -24 -2 -47 -15 -17 -23 -43 -26 -86 -5 -58 -7 -62 -30 -62 l-25 0
-3 144 c-3 176 0 180 116 146z m-139 -150 c2 -140 1 -145 -19 -145 -11 0 -20
5 -20 10 0 6 -4 10 -10 10 -34 0 -85 97 -76 145 8 39 80 125 106 125 17 0 18
-12 19 -145z m279 3 c7 -7 12 -41 12 -81 0 -87 -25 -142 -92 -202 -50 -45
-150 -115 -165 -115 -4 0 -7 33 -5 72 l3 73 45 20 c55 24 91 69 100 123 4 23
18 53 35 72 16 17 29 35 29 41 0 13 24 11 38 -3z m-540 -466 c32 -29 41 -55
22 -67 -5 -3 -10 -1 -10 4 0 19 -74 13 -91 -8 -23 -26 -28 -43 -18 -63 7 -13
0 -23 -32 -46 -46 -34 -64 -33 -73 4 -13 51 48 122 134 158 8 3 -2 4 -23 1
-21 -4 -54 -16 -75 -27 l-37 -22 25 29 c62 70 126 83 178 37z"/>
<path d="M4311 7209 c-11 -17 -22 -51 -26 -75 -7 -48 -15 -53 -40 -27 -14 13
-16 28 -12 67 l5 51 -13 -37 c-19 -53 -27 -121 -16 -138 15 -23 26 -3 13 25
-12 27 -2 34 17 11 9 -10 9 -20 0 -39 -9 -19 -8 -30 5 -53 8 -16 15 -23 16
-16 0 9 11 5 30 -12 40 -33 91 -42 138 -24 32 12 37 19 40 49 2 29 -3 41 -32
70 -41 40 -70 49 -109 36 -36 -12 -39 -8 -31 41 6 39 7 40 39 35 26 -4 36 -1
48 18 15 21 15 23 -1 35 -28 22 -51 16 -71 -17z"/>
<path d="M8628 7151 c-14 -25 -14 -30 -2 -35 8 -3 14 -15 14 -26 0 -12 7 -20
16 -20 12 0 15 -6 10 -26 -7 -26 -6 -26 26 -20 18 4 47 10 65 13 25 4 33 11
35 32 3 24 7 26 57 29 30 2 67 -2 82 -8 18 -8 33 -9 44 -2 14 7 9 13 -30 32
-53 26 -105 32 -149 17 -20 -7 -30 -6 -36 2 -4 7 -17 10 -33 6 -18 -5 -31 -1
-46 14 -27 27 -33 27 -53 -8z"/>
<path d="M8053 7082 c-62 -9 -113 -20 -113 -25 0 -16 -52 -55 -67 -50 -7 3
-13 -1 -13 -10 0 -8 -3 -17 -7 -20 -5 -2 -3 -2 4 -1 6 2 17 -4 23 -12 7 -8 19
-14 26 -14 8 0 14 -7 14 -16 0 -32 25 -6 33 34 9 48 24 52 57 17 18 -19 26
-22 37 -13 10 8 11 14 3 22 -5 5 -10 18 -10 28 0 15 8 18 44 18 30 0 46 -5 50
-15 3 -8 12 -15 21 -15 8 0 15 -7 15 -15 0 -18 37 -20 42 -3 3 7 -1 19 -9 26
-14 15 -18 52 -5 52 5 0 9 7 9 15 0 18 -6 18 -154 -3z"/>
<path d="M8925 7048 c-22 -11 -41 -25 -43 -29 -2 -5 -9 -9 -17 -9 -7 0 -18 -7
-25 -15 -18 -21 -40 -19 -40 5 0 18 -5 20 -42 14 -66 -9 -108 -24 -108 -39 0
-33 -62 -44 -73 -12 -2 7 -2 1 0 -12 10 -61 -41 -125 -95 -120 -29 3 -52 -6
-52 -22 0 -12 75 -12 141 2 51 10 141 25 200 33 61 9 68 14 56 46 -6 17 -17
30 -24 30 -7 0 -13 7 -13 15 0 8 6 15 13 15 7 0 41 19 77 43 92 61 97 62 120
24 11 -17 23 -46 26 -63 5 -29 8 -31 60 -33 64 -2 75 12 47 59 -16 29 -22 31
-60 27 -34 -3 -43 -1 -43 12 -1 24 -25 51 -46 51 -10 -1 -37 -10 -59 -22z"/>
<path d="M9575 7050 c-3 -5 -16 -10 -28 -10 -22 0 -22 -1 3 -20 22 -17 23 -20
8 -25 -15 -6 -11 -15 27 -58 25 -29 45 -57 45 -64 0 -26 27 -12 36 20 15 49
-1 111 -37 142 -33 27 -44 30 -54 15z"/>
<path d="M8273 6936 c-58 -14 -79 -28 -88 -57 -5 -14 -12 -18 -25 -14 -10 3
-21 1 -25 -4 -3 -7 0 -8 9 -5 11 4 16 0 16 -10 0 -9 -4 -16 -8 -16 -5 0 -14
-10 -20 -22 -11 -23 -11 -23 -11 4 -1 23 -21 53 -21 31 0 -5 -20 -17 -45 -28
-76 -34 -59 -45 68 -44 61 1 137 4 167 7 54 7 55 7 50 37 -3 17 -5 54 -4 83 0
28 -2 52 -5 51 -3 0 -29 -6 -58 -13z"/>
<path d="M8309 6766 c-2 -2 -67 -9 -144 -15 -86 -8 -142 -16 -147 -24 -6 -9
-8 -9 -8 1 0 10 -44 12 -201 11 l-201 -1 7 -27 c10 -40 4 -40 108 11 14 7 17
3 17 -19 l0 -28 158 -1 c137 -1 314 -19 392 -39 23 -5 28 -1 53 52 15 32 27
64 27 71 0 11 -50 18 -61 8z"/>
<path d="M4431 6712 c-31 -10 -51 -43 -51 -81 0 -22 4 -41 8 -43 5 -1 37 -36
72 -77 49 -57 60 -75 49 -82 -19 -12 -76 -11 -100 2 -23 12 -59 46 -59 55 0 3
-7 12 -15 20 -13 13 -15 13 -15 1 0 -8 7 -20 15 -27 8 -7 15 -16 15 -21 0 -10
37 -49 46 -49 3 0 17 -13 32 -29 36 -38 63 -51 109 -51 47 0 104 -16 114 -31
4 -6 11 -10 17 -8 5 2 -8 24 -29 48 -37 41 -40 43 -57 27 -10 -9 -33 -16 -51
-16 -33 0 -91 27 -91 42 0 12 72 10 109 -3 63 -22 57 -12 -71 123 -56 58 -64
78 -32 78 23 0 44 58 32 91 -10 29 -25 39 -47 31z"/>
<path d="M299 6503 c-1 -5 -1 -12 0 -16 1 -4 -6 -10 -14 -13 -8 -4 -15 -12
-15 -19 0 -11 -12 -28 -52 -75 -17 -19 -13 -88 6 -125 9 -16 16 -37 16 -46 0
-9 7 -30 15 -45 9 -18 15 -23 15 -12 0 9 -4 20 -10 23 -5 3 -10 19 -10 35 0
49 18 80 55 96 19 8 35 21 35 29 0 8 4 15 9 15 11 0 20 59 10 65 -4 3 -18 0
-31 -5 -21 -10 -21 -10 5 -5 19 4 26 2 22 -5 -8 -13 -75 -9 -75 5 0 6 -5 3
-11 -5 -9 -12 -10 -12 -5 3 3 10 6 21 6 23 0 2 5 4 11 4 5 0 7 -4 4 -10 -3 -5
-1 -10 4 -10 6 0 11 4 11 10 0 5 8 7 18 5 9 -3 5 0 -10 7 -23 12 -24 16 -13
31 16 22 26 22 19 0 -2 -10 1 -8 7 5 9 17 19 22 43 19 18 -2 37 -7 44 -11 8
-4 12 -1 12 10 0 14 -8 16 -55 12 -30 -3 -52 -1 -49 4 3 4 0 8 -5 8 -6 0 -12
-3 -12 -7z"/>
<path d="M416 6424 c-4 -16 -11 -31 -16 -34 -4 -3 -17 -23 -29 -45 l-21 -40
20 -3 c16 -3 20 -10 17 -30 -3 -22 -9 -28 -35 -30 -26 -3 -32 -8 -32 -27 0
-13 -6 -30 -12 -37 -19 -21 -38 -56 -38 -71 0 -8 -7 -28 -16 -45 -16 -33 -28
-44 -18 -17 9 21 -11 19 -57 -7 -21 -13 -37 -29 -34 -35 2 -7 0 -13 -6 -13 -6
0 -8 -4 -5 -8 2 -4 -4 -8 -15 -8 -19 0 -19 1 -3 13 27 20 3 15 -27 -5 -15 -9
-25 -25 -23 -35 1 -9 -2 -15 -7 -11 -5 3 -7 10 -4 15 4 5 -1 9 -11 9 -11 0
-15 -6 -11 -20 3 -11 1 -18 -4 -14 -5 3 -9 -9 -9 -25 0 -17 -4 -31 -10 -31
-15 0 -12 -72 4 -92 16 -22 26 -23 26 -3 0 8 -4 15 -10 15 -13 0 -13 67 0 75
7 4 9 -3 5 -22 -5 -21 -4 -24 4 -13 14 20 14 53 -1 70 -11 12 -10 12 3 2 9 -6
18 -9 22 -6 3 3 4 -5 1 -18 -5 -23 -4 -23 5 -1 12 27 42 57 64 66 9 3 17 13
17 20 0 17 30 18 49 3 11 -8 13 -8 8 1 -4 6 -1 15 6 20 8 4 17 15 20 23 3 9 6
5 6 -11 1 -26 2 -26 85 -28 79 -2 84 -1 90 21 13 51 9 58 -39 58 -43 0 -45 1
-45 29 0 26 4 30 33 33 28 3 32 7 35 36 3 29 6 32 38 32 19 0 33 3 32 8 -2 10
23 96 31 102 10 8 42 103 36 108 -3 3 -5 0 -5 -7 0 -7 -4 -9 -10 -6 -5 3 -10
0 -10 -7 -1 -9 -5 -7 -14 5 -13 17 -32 24 -22 8 3 -5 -1 -12 -10 -15 -12 -4
-15 -2 -10 9 3 8 1 15 -4 15 -6 0 -10 -4 -10 -10 0 -5 -7 -10 -15 -10 -14 0
-10 29 6 40 4 3 4 11 0 19 -6 9 -10 5 -15 -15z"/>
<path d="M590 6425 c0 -8 -4 -15 -9 -15 -5 0 -12 -13 -16 -30 -4 -16 -10 -30
-15 -30 -5 0 -11 -13 -15 -30 -4 -16 -11 -32 -16 -35 -5 -4 -9 -15 -9 -26 0
-10 -5 -19 -11 -19 -6 0 -9 -7 -6 -15 4 -8 2 -17 -2 -19 -5 -3 -12 -20 -16
-38 -4 -18 -9 -35 -9 -38 -1 -3 -6 -21 -10 -40 -5 -19 -12 -37 -16 -40 -4 -3
-11 -24 -15 -47 l-7 -43 54 0 c63 0 78 11 78 57 0 20 5 33 13 33 6 0 1 6 -13
13 -22 11 -25 20 -28 76 -2 35 1 67 5 70 14 10 34 75 37 119 1 24 8 47 15 51
7 5 13 12 13 17 0 5 4 8 8 7 4 -1 6 7 3 17 -6 24 -13 26 -13 5z"/>
<path d="M10120 6384 c-38 -20 -130 -105 -130 -120 0 -7 -9 -18 -20 -24 -23
-12 -27 -32 -5 -24 9 4 15 0 15 -10 0 -19 -5 -20 -30 -6 -15 8 -19 5 -24 -16
-4 -15 -5 -29 -1 -32 3 -3 5 2 5 10 0 11 6 14 20 11 15 -4 17 -9 10 -23 -14
-26 1 -32 21 -9 17 20 19 20 25 4 4 -10 2 -31 -3 -46 -13 -33 -1 -39 28 -13
16 14 18 14 30 -7 10 -20 9 -25 -11 -41 l-23 -19 22 -22 c11 -13 21 -28 21
-34 0 -16 69 18 73 36 1 9 -5 35 -15 58 -18 42 -17 113 2 113 4 0 10 22 14 50
4 27 11 52 16 55 6 3 10 1 10 -4 0 -6 6 -11 14 -11 8 0 22 -7 30 -16 9 -8 16
-11 16 -6 0 6 14 13 30 17 35 8 40 36 14 73 -12 17 -25 22 -60 22 -36 0 -44 3
-44 19 0 25 -19 31 -50 15z"/>
<path d="M100 6293 c-8 -4 -21 -12 -28 -20 -7 -7 -20 -13 -28 -13 -8 0 -14 -4
-14 -10 0 -5 -8 -10 -17 -11 -11 0 -13 -3 -5 -6 6 -2 12 -12 12 -21 0 -15 -2
-15 -10 -2 -7 10 -9 -25 -8 -110 1 -69 3 -116 6 -105 2 11 8 22 12 25 4 3 10
22 14 43 6 30 4 37 -5 31 -7 -4 -10 -3 -5 4 3 5 0 13 -6 15 -8 3 -6 6 5 6 9 1
17 -3 17 -9 0 -25 18 -6 24 25 4 19 11 35 16 35 4 0 12 15 15 33 4 17 12 38
18 45 13 17 20 52 9 51 -4 0 -14 -3 -22 -6z"/>
<path d="M127 6200 c-9 -22 -17 -45 -17 -50 0 -6 -4 -10 -9 -10 -5 0 -12 -18
-16 -40 -4 -22 -11 -40 -17 -40 -6 0 -8 -9 -5 -20 3 -11 1 -20 -4 -20 -5 0 -9
-8 -9 -17 0 -11 3 -14 8 -7 8 12 43 28 55 25 5 -1 6 3 3 8 -4 5 6 12 21 16 53
12 63 26 51 76 -5 24 -18 61 -27 81 l-16 38 -18 -40z"/>
<path d="M1770 5911 c0 -5 -12 -12 -26 -15 -65 -17 -103 -107 -71 -168 23 -46
48 -61 119 -75 82 -15 106 -5 139 58 31 62 22 109 -31 161 -38 37 -130 65
-130 39z"/>
<path d="M4384 5476 c-77 -30 -113 -54 -128 -86 -18 -40 -45 -76 -65 -86 -13
-7 -28 -17 -34 -24 -15 -16 20 -10 118 19 39 12 88 25 110 31 80 18 130 33
147 41 27 14 28 12 28 -29 0 -41 18 -64 58 -76 41 -13 62 1 62 42 -1 58 -27
82 -92 82 -30 0 -59 -5 -66 -12 -7 -7 -12 -9 -12 -6 0 6 -92 -14 -122 -27 -28
-11 -32 18 -9 62 27 53 40 62 118 84 l68 18 -50 -1 c-31 0 -80 -12 -131 -32z"/>
<path d="M12741 5383 c-33 -13 -51 -39 -51 -73 0 -45 7 -54 51 -73 28 -11 39
-12 52 -2 9 7 17 17 17 24 0 6 5 11 10 11 21 0 10 67 -15 94 -24 26 -37 30
-64 19z"/>
<path d="M4190 5122 c-19 -9 -41 -28 -48 -42 -18 -34 -8 -144 18 -195 11 -21
20 -45 20 -51 0 -7 5 -14 11 -16 6 -2 -3 -19 -20 -38 -47 -54 -54 -163 -15
-229 20 -35 82 -63 130 -61 56 3 64 1 64 -12 0 -6 9 -31 21 -55 l21 -43 -20
-42 c-31 -65 -52 -150 -46 -183 12 -68 34 -140 44 -143 5 -2 10 -8 10 -14 0
-6 19 -29 41 -52 l41 -40 17 30 c8 16 21 45 27 64 6 19 16 34 23 32 7 -1 10 2
6 8 -3 5 1 13 9 16 24 9 39 67 25 98 -12 26 -33 34 -44 16 -9 -14 -25 -12 -25
3 0 7 -11 40 -24 73 -21 54 -22 63 -9 80 8 10 32 56 54 102 34 71 39 92 39
152 0 64 -16 122 -43 155 -5 6 -16 23 -25 38 -20 33 -109 76 -160 77 -18 0
-49 -7 -69 -15 -43 -18 -63 -14 -63 14 0 11 -4 22 -8 25 -5 3 -17 32 -27 65
-17 59 -17 62 0 100 19 44 60 65 101 55 l23 -6 -29 -30 c-37 -37 -38 -52 -1
-89 32 -31 47 -35 72 -16 78 60 25 187 -78 187 -15 0 -44 -8 -63 -18z m200
-317 c7 -9 8 -15 2 -15 -5 0 -13 -11 -16 -25 -7 -26 -20 -32 -31 -15 -3 6 -16
10 -28 10 -21 -1 -20 -2 6 -18 15 -9 27 -22 27 -28 0 -7 7 -15 16 -18 21 -8
14 -65 -12 -95 -23 -26 -34 -27 -34 -2 0 11 -4 22 -10 26 -5 3 -26 40 -46 82
l-37 76 22 19 c29 23 122 25 141 3z m-150 -93 c12 -26 28 -59 36 -74 12 -23
20 -78 10 -78 -17 0 -76 27 -93 43 -18 16 -23 31 -23 72 0 50 22 101 40 90 4
-3 18 -26 30 -53z m206 22 c35 9 56 -29 55 -101 0 -63 -34 -152 -80 -207 -13
-15 -15 -15 -26 1 -6 10 -17 33 -25 51 -12 30 -11 34 16 58 24 23 28 34 28 88
1 50 -3 66 -21 85 -26 28 -21 46 9 30 11 -6 31 -8 44 -5z m24 -617 c0 -48 -24
-107 -44 -107 -5 0 -18 7 -28 17 -14 13 -18 31 -18 86 0 65 10 97 44 145 13
19 46 -81 46 -141z"/>
<path d="M4788 4500 c-4 -19 -6 -42 -4 -50 1 -8 6 -33 10 -55 13 -71 38 -111
93 -149 31 -22 55 -47 59 -62 9 -35 24 -30 25 9 l1 32 9 -35 c5 -19 6 -46 3
-59 -4 -20 -3 -21 9 -9 8 8 18 25 22 38 4 14 11 27 15 30 4 3 10 17 14 33 5
20 3 27 -9 27 -23 0 -18 16 10 34 25 17 26 17 20 -11 -5 -26 -4 -26 7 4 7 17
16 35 21 39 12 12 8 24 -8 24 -36 0 -2 103 38 116 10 3 16 8 13 11 -7 8 -65
-29 -72 -46 -3 -9 -8 -32 -10 -52 -4 -47 -21 -89 -35 -89 -8 0 -10 15 -6 47
l5 48 -19 -40 c-11 -22 -26 -58 -34 -80 l-14 -40 -1 41 c0 23 -5 54 -10 70 -6
16 -14 56 -20 89 l-9 60 3 -62 c4 -68 -2 -75 -47 -52 -45 24 -62 52 -67 114
-5 55 -6 57 -12 25z"/>
<path d="M14316 3915 c3 -22 6 -50 7 -62 1 -16 5 -19 15 -11 9 8 12 6 12 -4 0
-8 -15 -22 -32 -32 -18 -9 -24 -14 -13 -10 52 17 54 16 76 -20 11 -20 25 -33
30 -30 5 3 9 0 9 -5 0 -6 -4 -11 -10 -11 -5 0 -10 -16 -10 -35 0 -19 4 -35 9
-35 5 0 12 -38 16 -85 4 -47 11 -85 16 -85 5 0 9 -118 9 -280 0 -239 -2 -280
-15 -280 -11 0 -15 -18 -17 -82 -3 -75 -5 -84 -25 -93 -27 -12 -29 -23 -6 -40
15 -11 16 -33 14 -176 -1 -91 -6 -165 -12 -167 -5 -2 -9 -39 -9 -83 0 -46 -4
-79 -10 -79 -6 0 -10 -26 -10 -59 0 -32 -3 -86 -6 -120 -6 -49 -10 -61 -24
-61 -15 0 -19 -13 -25 -80 -5 -52 -11 -80 -19 -80 -12 0 -34 -128 -43 -257 -4
-54 -8 -63 -24 -63 -16 0 -19 -7 -19 -40 0 -22 -4 -40 -10 -40 -5 0 -10 -18
-10 -40 0 -22 -4 -40 -10 -40 -5 0 -10 -23 -10 -50 0 -28 -7 -67 -15 -87 -8
-19 -15 -51 -15 -69 0 -25 -4 -34 -16 -34 -14 0 -16 -8 -12 -49 5 -49 -6 -86
-22 -76 -4 3 -11 -12 -15 -33 -4 -20 -14 -45 -23 -55 -12 -13 -13 -20 -5 -25
8 -5 9 -13 3 -22 -6 -8 -10 -25 -10 -37 0 -13 -6 -23 -14 -23 -8 0 -16 -16
-20 -39 -4 -24 -17 -50 -37 -69 -25 -25 -33 -42 -37 -82 -4 -40 -8 -50 -22
-50 -10 0 -26 -3 -35 -7 -15 -5 -15 -8 5 -18 21 -11 20 -13 -26 -20 -27 -4
-101 -10 -164 -14 l-115 -6 -7 -85 c-4 -47 -12 -136 -18 -197 -6 -62 -9 -117
-5 -123 3 -5 41 -11 83 -12 73 -1 74 -2 27 -8 l-50 -7 45 -3 45 -3 -45 -6 -45
-6 64 -8 c35 -4 244 -7 464 -7 l400 0 -8 1428 c-4 785 -9 1551 -11 1702 -2
151 0 348 4 437 l7 161 -42 7 c-24 3 -45 10 -48 16 -4 5 -11 7 -16 4 -5 -4 -9
0 -9 7 0 7 -16 38 -37 68 -20 30 -40 71 -44 90 -8 34 -8 34 -3 -5z"/>
<path d="M3550 3623 c-44 -6 -134 -37 -151 -51 -9 -7 -29 -33 -45 -58 -15 -24
-33 -44 -40 -44 -6 0 -17 -7 -24 -15 -11 -13 -8 -15 16 -11 16 2 42 8 57 15
16 6 36 11 45 11 9 0 39 7 66 15 61 19 148 20 145 3 -3 -28 2 -37 32 -59 27
-19 35 -20 51 -10 16 10 23 9 37 -3 10 -9 28 -16 42 -15 24 0 24 0 2 9 -12 5
-30 21 -39 35 -16 24 -16 27 -1 43 19 18 28 13 51 -33 9 -16 16 -23 16 -14 0
14 84 59 110 59 5 0 12 12 16 28 11 52 26 80 47 90 12 6 16 11 9 11 -15 1 -91
-36 -108 -53 -6 -7 -14 -21 -18 -33 -4 -12 -16 -33 -27 -47 l-21 -27 -31 31
c-24 23 -38 29 -55 25 -14 -3 -21 -2 -18 4 8 12 -90 3 -164 -15 -70 -18 -78
-18 -83 4 -6 29 20 68 55 82 78 29 81 32 28 23z"/>
<path d="M3107 3140 c-40 -20 -76 -56 -77 -77 0 -8 12 -13 30 -13 20 0 30 5
30 15 0 8 4 15 9 15 5 0 17 3 26 6 13 5 16 1 13 -22 -3 -26 0 -29 37 -36 22
-4 59 -7 83 -7 41 -1 42 0 42 32 -1 40 -34 80 -79 96 -46 15 -69 13 -114 -9z"/>
<path d="M10912 3027 c-12 -7 -29 -23 -37 -35 -14 -19 -14 -25 -1 -57 13 -30
13 -35 0 -35 -7 0 -14 -7 -14 -15 0 -8 -4 -15 -10 -15 -12 0 -45 32 -53 51 -3
8 -6 3 -6 -11 -1 -14 8 -34 20 -44 21 -18 21 -18 1 -39 -63 -70 -82 -92 -82
-99 0 -10 27 17 69 70 32 41 34 42 57 27 13 -8 43 -15 68 -15 58 0 89 -12 139
-55 22 -19 50 -35 62 -35 22 0 63 24 81 49 10 13 18 13 53 2 33 -10 43 -18 47
-40 7 -33 56 -89 101 -113 18 -11 52 -18 82 -18 50 0 50 0 41 26 -6 14 -10 27
-10 30 0 2 26 4 58 4 67 0 82 11 82 59 0 66 -98 131 -220 146 -63 8 -75 -3
-73 -65 1 -45 -1 -49 -13 -33 -7 10 -14 25 -14 34 0 17 -33 85 -52 110 -30 37
-70 53 -134 53 -60 1 -65 -1 -94 -32 -16 -18 -30 -40 -30 -48 0 -36 -84 0
-124 53 -20 27 -14 52 14 61 7 3 10 0 6 -6 -3 -5 3 -20 13 -33 17 -22 21 -22
45 -10 38 21 34 56 -11 80 -27 14 -32 14 -61 -2z m295 -99 c29 -14 71 -87 72
-125 1 -20 -1 -20 -29 -10 -21 8 -30 18 -30 34 0 34 -45 73 -84 73 -22 0 -36
-6 -40 -16 -5 -14 -4 -15 8 -5 18 15 50 1 66 -29 14 -26 -11 -38 -43 -22 -12
6 -37 14 -54 17 -37 7 -42 29 -15 60 41 47 86 53 149 23z"/>
<path d="M3803 2988 c-30 -15 -29 -21 13 -76 33 -44 130 -109 142 -97 12 12
-33 109 -64 140 -39 39 -61 47 -91 33z"/>
<path d="M3932 2762 c-16 -14 -18 -22 -10 -30 7 -7 16 -12 20 -12 5 0 14 -5
21 -10 32 -27 147 -110 152 -110 3 0 26 -9 51 -20 25 -12 53 -19 62 -16 12 4
28 -9 55 -45 20 -27 37 -54 37 -60 0 -5 3 -9 8 -9 4 0 17 -19 30 -43 18 -35
31 -46 71 -60 27 -9 54 -17 60 -17 20 0 12 35 -11 45 -12 6 -26 23 -31 40 -6
16 -15 35 -21 41 -6 6 -20 22 -32 35 -33 39 -77 73 -119 93 -22 11 -44 22 -49
24 -4 3 -5 -5 -1 -17 9 -30 -7 -26 -35 9 -14 16 -33 29 -42 30 -10 0 -35 7
-57 16 -30 12 -41 23 -46 44 -7 30 -60 90 -80 90 -7 0 -21 -8 -33 -18z"/>
<path d="M3380 2674 c0 -21 74 -91 114 -108 68 -28 153 -29 143 -2 -3 6 2 19
10 28 9 10 12 25 8 37 -7 23 -21 26 -45 11 -12 -7 -13 -13 -3 -28 9 -15 9 -22
0 -31 -17 -17 -27 -13 -36 13 -7 17 -20 25 -50 30 -24 3 -55 19 -75 36 -37 33
-66 39 -66 14z"/>
<path d="M2458 2623 c10 -19 5 -30 -45 -95 -82 -105 -81 -104 -99 -82 -14 18
-14 18 -7 -1 4 -11 18 -30 32 -43 l26 -24 23 29 c13 15 35 41 48 57 13 15 24
32 24 36 0 5 3 10 8 12 4 2 18 15 31 30 l23 27 -37 38 c-22 22 -33 29 -27 16z"/>
<path d="M10696 2607 c-22 -22 -66 -123 -66 -150 0 -7 9 -30 20 -52 11 -22 20
-41 20 -42 0 -2 -31 -3 -69 -3 -63 0 -69 -2 -75 -22 -9 -35 -7 -41 9 -28 9 7
40 10 85 8 38 -1 70 0 70 5 0 11 22 8 39 -6 9 -7 35 -19 59 -27 59 -18 86 -3
108 62 14 42 14 57 4 96 -16 59 -44 108 -86 150 -40 39 -84 43 -118 9z"/>
<path d="M6633 2128 c-12 -6 -27 -23 -34 -39 -6 -16 -15 -29 -19 -29 -4 0 -11
-12 -14 -26 -5 -17 -12 -24 -21 -20 -8 3 -17 1 -20 -4 -3 -4 1 -10 7 -12 14
-5 0 -38 -56 -131 -23 -40 -31 -46 -41 -35 -22 23 -34 97 -23 131 12 34 45 87
62 99 6 4 7 10 4 14 -12 11 -87 -80 -94 -112 -3 -17 0 -67 6 -110 7 -43 9
-100 6 -127 -4 -28 -3 -46 2 -43 5 3 41 70 81 148 40 79 78 152 84 163 42 74
36 69 59 48 28 -26 105 -25 124 1 23 33 18 65 -13 77 -45 17 -76 19 -100 7z"/>
<path d="M5422 2108 c-6 -6 -38 -12 -69 -12 -46 -1 -63 -6 -81 -23 -12 -13
-22 -27 -22 -33 0 -5 -4 -10 -8 -10 -4 0 -20 -27 -35 -60 -28 -60 -28 -60 -71
-60 -36 0 -49 -6 -84 -40 -39 -37 -42 -43 -42 -94 0 -48 4 -59 31 -87 l31 -32
-19 -36 c-26 -51 -43 -71 -64 -71 -33 0 -93 -34 -135 -77 -57 -57 -105 -194
-71 -206 24 -8 99 26 136 63 l36 37 49 -14 c26 -8 55 -12 64 -10 12 3 10 5 -5
6 -13 0 -23 7 -23 15 0 19 69 59 92 53 10 -3 20 -2 23 3 6 10 -126 23 -149 14
-17 -7 -17 -5 -2 25 13 23 23 31 44 31 33 0 114 24 157 47 60 32 98 86 111
153 9 51 7 70 -10 121 -12 34 -11 37 13 59 14 13 40 29 57 36 18 7 40 24 50
37 11 13 45 44 77 67 47 35 60 41 68 29 5 -8 9 -20 9 -26 0 -7 7 -13 15 -13 8
0 15 -4 15 -9 0 -19 51 -22 80 -4 37 22 37 34 1 75 -39 44 -85 44 -140 0 -22
-18 -42 -32 -45 -32 -3 0 -15 -9 -26 -20 -25 -25 -36 -20 -45 20 -4 17 -11 30
-16 30 -14 0 -11 30 4 30 6 0 21 7 31 15 20 15 20 15 0 15 -11 0 -25 -5 -32
-12z m-122 -352 c1 -73 -57 -146 -132 -166 -24 -6 -58 -15 -75 -20 -32 -8 -54
2 -33 15 5 3 10 15 10 25 0 26 21 36 32 16 6 -10 22 -16 47 -16 45 0 68 20 52
47 -7 13 -5 23 6 35 9 10 18 40 21 67 3 38 9 51 26 59 18 8 23 6 33 -17 7 -14
12 -34 13 -45z"/>
<path d="M7396 2049 c-30 -43 -17 -101 36 -152 29 -30 87 -17 108 23 8 14 8
31 0 58 -17 56 -44 83 -88 89 -33 4 -42 2 -56 -18z"/>
<path d="M6758 1937 c-16 -17 -28 -41 -28 -52 0 -29 36 -88 123 -203 71 -93
75 -100 54 -106 -46 -12 -96 5 -133 46 -20 22 -42 54 -50 72 l-15 31 6 -40 c7
-40 52 -108 85 -125 10 -6 29 -10 41 -10 32 0 140 -41 146 -56 2 -6 -5 -34
-17 -61 -21 -48 -27 -63 -49 -117 l-12 -29 -22 21 c-31 31 -30 121 2 177 l23
40 -36 -40 c-45 -50 -51 -101 -21 -178 8 -20 15 -63 15 -95 0 -56 1 -57 14
-27 8 17 24 57 37 90 13 33 27 64 31 69 4 6 8 16 8 24 0 18 38 99 50 107 5 3
10 16 10 28 1 20 2 21 14 5 20 -26 88 -24 112 3 10 12 34 28 52 36 28 11 32
17 26 36 -9 30 -9 31 -37 13 -18 -12 -33 -14 -63 -8 -47 10 -104 -5 -104 -27
0 -9 -4 -22 -9 -30 -7 -11 -13 -9 -31 9 -26 26 -19 48 18 65 12 5 22 15 22 22
0 7 4 13 8 13 7 0 25 30 50 83 6 11 -46 8 -53 -4 -4 -6 -13 -8 -21 -5 -8 3
-13 1 -11 -4 2 -11 -55 -99 -65 -100 -4 0 -14 14 -23 30 -9 17 -20 30 -25 30
-6 0 -10 7 -10 15 0 8 -4 15 -8 15 -4 0 -16 13 -25 30 -10 16 -24 36 -33 44
-13 13 -11 20 17 59 29 41 33 59 27 113 -4 35 -57 30 -90 -9z"/>
<path d="M8775 1878 c-4 -10 6 -34 25 -59 36 -50 22 -69 -18 -24 -15 18 -35
29 -55 31 -28 2 -29 0 -14 -11 9 -7 17 -20 17 -30 0 -10 8 -27 17 -37 12 -13
14 -21 6 -29 -6 -6 -9 -17 -6 -25 6 -15 -33 -61 -44 -50 -4 3 1 20 11 37 18
31 18 44 1 31 -15 -10 -36 -62 -30 -72 7 -12 -17 -28 -50 -32 -28 -4 -27 -5
15 -14 l45 -10 5 -59 c5 -58 5 -58 19 -29 39 84 31 79 128 78 48 -1 63 1 31 3
-76 5 -83 31 -19 75 21 15 27 15 52 2 15 -7 40 -14 55 -14 15 0 43 -10 63 -22
34 -20 35 -21 19 -2 -10 12 -18 25 -18 31 0 5 -13 20 -30 33 -16 13 -30 29
-30 36 0 8 -4 14 -9 14 -5 0 -11 13 -14 29 -4 20 -14 31 -32 35 -14 4 -25 12
-26 19 0 6 -4 3 -9 -8 -7 -16 -9 -16 -9 -4 -1 9 -11 20 -23 23 -13 3 -33 20
-45 38 -18 25 -23 28 -28 16z"/>
<path d="M9420 1792 c0 -15 7 -36 15 -46 8 -11 15 -30 15 -43 0 -32 30 -103
44 -103 27 1 56 49 56 96 0 14 -76 94 -90 94 -5 0 -10 4 -10 9 0 5 -7 11 -15
15 -11 4 -15 -2 -15 -22z"/>
<path d="M3263 1768 c-11 -13 -30 -41 -44 -63 -27 -45 -44 -65 -56 -65 -13 0
-66 -62 -80 -93 -17 -37 -29 -34 -37 9 -11 56 12 111 68 165 13 13 15 19 7 19
-19 0 -81 -69 -97 -107 -11 -26 -12 -43 -3 -85 7 -29 9 -88 6 -132 -5 -77 -5
-79 10 -48 16 33 32 39 62 22 10 -5 43 -13 72 -18 30 -5 61 -12 69 -16 20 -8
71 37 92 81 13 27 14 39 3 85 -20 89 -39 115 -85 123 -45 8 -46 10 -22 47 l17
26 30 -24 c41 -33 80 -31 116 5 36 36 36 44 3 70 -37 29 -104 29 -131 -1z"/>
<path d="M7761 1600 c0 -9 -17 -30 -36 -48 -49 -47 -53 -85 -23 -194 14 -49
22 -91 18 -93 -4 -3 -41 -7 -81 -11 -83 -7 -108 -19 -162 -80 -21 -24 -50 -45
-67 -49 -45 -10 -38 -29 8 -21 20 3 81 9 135 12 l97 7 0 -29 c0 -66 78 -134
155 -134 24 0 34 -6 43 -25 7 -14 12 -33 12 -41 0 -8 5 -23 12 -33 9 -15 7
-24 -9 -47 -91 -129 -81 -298 24 -411 10 -11 14 -10 25 2 7 9 18 21 24 28 18
21 34 78 34 122 0 26 10 60 27 91 14 27 33 63 41 79 8 17 23 42 33 56 10 14
17 28 15 30 -2 2 2 9 9 16 10 9 18 8 36 -7 14 -13 37 -20 66 -20 32 0 43 -4
43 -15 0 -21 27 -19 63 7 18 12 34 25 37 28 3 3 19 12 35 20 26 13 30 22 33
60 3 58 -25 117 -53 112 -10 -2 -27 -14 -37 -25 -10 -12 -22 -27 -28 -34 -5
-7 -10 -17 -10 -23 0 -5 -7 -10 -15 -10 -8 0 -15 7 -15 15 0 9 -6 12 -15 9 -8
-4 -15 -13 -15 -21 0 -10 -9 -14 -29 -11 -35 3 -79 -18 -86 -44 -4 -10 -12
-24 -18 -30 -7 -7 -22 -33 -35 -58 -30 -60 -45 -84 -57 -92 -14 -10 -45 42
-45 75 0 24 27 76 50 97 14 13 53 111 65 163 6 31 -20 132 -42 158 -7 8 -13
20 -13 26 0 33 -126 97 -173 87 -95 -19 -97 -18 -97 12 -1 16 -7 40 -15 54 -8
14 -14 48 -15 76 0 42 5 56 26 78 15 14 33 26 40 26 18 0 26 -33 19 -72 -8
-44 11 -69 54 -70 60 -2 91 69 54 122 -29 42 -57 59 -95 60 -26 0 -38 5 -41
18 -4 13 -5 13 -6 2z m130 -335 c105 -37 150 -161 97 -270 -12 -25 -26 -45
-30 -45 -4 0 -8 -5 -8 -11 0 -5 -13 -24 -28 -40 l-28 -30 -18 50 -18 50 30 28
c57 52 52 146 -11 196 -45 37 -61 29 -18 -9 24 -21 31 -35 31 -66 0 -43 -24
-54 -34 -14 -3 14 -16 26 -29 30 -34 8 -64 77 -49 110 6 14 21 26 34 29 13 2
26 5 29 6 4 0 26 -6 50 -14z"/>
<path d="M2293 1550 c-12 -10 -24 -29 -28 -40 -6 -20 -8 -20 -24 -6 -26 23
-48 20 -55 -9 -4 -14 -11 -25 -16 -25 -5 0 -16 -17 -25 -37 -9 -21 -20 -45
-24 -53 -12 -23 -6 -44 33 -120 20 -38 36 -83 36 -99 0 -17 5 -31 10 -31 6 0
10 9 10 21 0 18 4 20 25 15 13 -3 52 -9 85 -13 33 -3 60 -10 60 -14 0 -5 17
-8 38 -8 30 2 32 3 10 6 -16 2 -28 9 -28 14 0 5 -15 9 -34 9 -18 0 -48 3 -65
6 -26 6 -30 10 -25 30 6 22 -22 84 -38 84 -4 0 -7 11 -6 25 1 14 6 25 10 25 4
0 8 14 8 30 0 28 3 30 38 32 36 1 36 1 5 5 -30 4 -32 6 -28 41 2 20 4 41 4 45
1 4 10 3 20 -3 62 -33 145 32 99 78 -19 19 -72 14 -95 -8z"/>
<path d="M8783 1504 c-13 -14 -23 -30 -23 -35 0 -5 -4 -9 -9 -9 -5 0 -15 -17
-22 -37 -6 -21 -15 -42 -19 -48 -4 -5 -10 -29 -14 -52 -8 -56 5 -55 56 2 22
25 46 45 54 45 8 0 14 4 14 9 0 5 8 11 18 13 10 3 24 23 31 46 14 41 13 43
-13 67 -34 31 -45 31 -73 -1z"/>
<path d="M6397 1495 c9 -45 56 -168 73 -191 8 -11 36 -30 62 -43 27 -12 57
-36 69 -52 12 -17 24 -28 27 -25 4 5 -47 177 -69 231 -5 11 -13 36 -19 55 -9
32 -9 31 -4 -15 3 -27 10 -58 15 -67 8 -16 5 -18 -24 -18 -49 0 -107 58 -107
106 0 19 -4 33 -9 30 -5 -4 -12 0 -15 6 -3 7 -2 0 1 -17z"/>
<path d="M1773 1288 c-18 -6 -33 -17 -33 -24 0 -8 -4 -14 -10 -14 -6 0 -11
-32 -11 -72 -1 -40 -4 -104 -8 -142 l-6 -68 -30 28 c-28 26 -30 32 -29 101 0
64 -2 72 -14 59 -9 -9 -15 -36 -16 -73 -1 -54 2 -62 47 -122 26 -35 47 -74 47
-87 0 -15 6 -24 15 -24 13 0 15 26 15 170 l0 170 39 0 c31 0 44 6 60 26 26 33
27 60 2 74 -23 12 -25 12 -68 -2z"/>
<path d="M4710 1081 c0 -13 7 -18 25 -18 14 0 29 -3 32 -7 11 -10 -17 -33 -47
-39 -33 -7 -71 -40 -74 -66 -2 -9 -15 -22 -29 -29 -15 -7 -27 -17 -27 -23 0
-5 -7 -9 -15 -9 -19 0 -19 -10 3 -36 27 -32 56 -44 110 -44 77 0 108 15 132
65 28 57 38 149 19 167 -61 56 -129 77 -129 39z"/>
<path d="M4462 1040 c-7 -11 -18 -17 -27 -14 -10 4 -15 0 -15 -10 0 -12 -6
-15 -24 -10 -13 3 -27 1 -31 -5 -8 -14 18 -41 39 -41 24 0 25 -13 6 -53 -18
-36 -18 -38 0 -59 10 -13 20 -21 22 -18 20 30 38 72 38 88 0 12 4 24 10 27 18
11 32 85 19 101 -15 19 -22 18 -37 -6z"/>
<path d="M6990 953 c-51 -18 -76 -96 -45 -137 8 -11 15 -28 15 -38 0 -10 4
-18 9 -18 5 0 13 -15 16 -32 4 -18 14 -42 21 -53 32 -45 0 -59 -68 -31 -42 18
-58 36 -80 90 -15 36 -17 38 -17 14 -1 -26 23 -80 47 -106 6 -7 12 -19 12 -26
0 -24 65 -83 105 -95 50 -16 105 -52 105 -68 0 -7 5 -13 10 -13 6 0 10 3 10 6
0 6 -74 165 -96 206 -8 14 -14 33 -14 42 0 9 -4 16 -10 16 -5 0 -10 6 -10 13
0 7 -9 29 -20 50 -26 48 -25 52 6 54 39 2 68 36 68 78 0 46 -23 63 -64 48z"/>
<path d="M4353 794 c-3 -9 1 -28 9 -43 21 -36 13 -71 -24 -105 -29 -28 -31
-29 -44 -11 -16 22 -15 23 -44 -40 -12 -27 -26 -58 -31 -67 -18 -35 -37 -98
-30 -102 3 -2 21 -7 40 -11 49 -10 136 -100 151 -154 6 -22 14 -41 18 -41 4 0
15 13 25 29 19 32 24 126 7 136 -6 3 -19 26 -30 50 -22 49 -26 142 -10 210 29
115 29 127 7 146 -27 23 -36 23 -44 3z"/>
<path d="M0 385 l0 -385 176 0 c140 0 174 3 166 13 -5 6 -13 34 -17 60 -6 40
-4 50 11 62 20 15 48 20 40 7 -2 -4 4 -8 15 -8 34 0 14 21 -23 24 -31 3 -36 7
-40 33 -4 28 -3 29 33 29 21 0 40 3 42 8 3 4 -17 5 -43 4 l-48 -4 5 -36 c3
-21 11 -40 17 -44 8 -5 7 -8 -1 -8 -19 0 -46 47 -40 70 3 11 1 20 -4 20 -5 0
-9 9 -9 20 0 11 5 20 11 20 6 0 9 -7 5 -15 -3 -9 0 -15 10 -15 8 0 13 4 9 9
-3 5 2 16 10 24 8 9 15 27 15 41 0 18 6 26 23 29 20 4 19 4 -4 6 -23 1 -28 -4
-33 -35 -6 -31 -10 -35 -34 -32 -25 3 -27 6 -26 52 1 63 28 87 94 81 l45 -5
-40 11 c-22 5 -49 8 -60 5 -18 -4 -65 23 -65 39 0 9 -27 35 -37 35 -13 0 -43
38 -43 55 0 8 -6 15 -13 15 -26 0 -57 45 -57 83 0 30 -4 37 -20 37 -17 0 -20
7 -20 40 0 36 -2 40 -25 40 l-25 0 0 -385z"/>
<path d="M8357 682 c-28 -31 -22 -86 14 -122 36 -35 54 -35 81 0 23 31 16 79
-18 115 -27 30 -55 32 -77 7z"/>
<path d="M1575 534 c-28 -21 -25 -75 6 -105 14 -13 49 -50 78 -81 49 -53 52
-59 37 -73 -9 -9 -16 -19 -16 -23 0 -4 -16 -25 -35 -46 l-34 -40 -60 65 c-56
60 -59 65 -45 86 32 50 6 110 -33 75 -44 -39 -38 -56 56 -161 35 -39 71 -80
81 -91 22 -25 32 -25 50 1 8 12 20 27 25 33 11 13 47 64 58 83 5 7 -24 47 -72
100 -72 78 -79 89 -66 104 34 37 8 101 -30 73z"/>
<path d="M2209 493 c-19 -5 -49 -54 -49 -81 0 -13 43 -65 108 -133 59 -61 109
-115 110 -120 2 -5 -19 -43 -46 -83 l-50 -74 35 0 c26 0 42 7 59 26 13 15 24
31 24 35 0 5 7 15 16 24 8 9 14 24 12 34 -2 10 -52 67 -111 128 -107 109 -108
111 -88 128 15 12 21 29 21 59 0 43 -14 63 -41 57z"/>
<path d="M9920 481 c0 -5 11 -22 24 -36 29 -31 25 -51 -12 -60 -21 -5 -31 -1
-49 20 -13 14 -23 22 -24 18 0 -4 -4 1 -9 12 -6 13 -9 15 -9 5 -1 -19 60 -90
77 -90 19 0 14 -25 -9 -46 l-21 -19 7 33 c4 21 3 32 -4 32 -7 0 -14 -13 -17
-30 -4 -16 -9 -30 -13 -30 -3 0 -12 -9 -19 -20 -11 -18 -10 -19 15 -9 14 5 31
13 37 17 49 31 144 41 185 18 30 -17 61 -9 61 14 0 28 -29 52 -60 48 -17 -1
-37 5 -49 16 -26 23 -26 33 -3 40 9 3 5 4 -10 2 -31 -4 -35 -2 -71 42 -15 19
-27 29 -27 23z"/>
</g>
</svg>
