<?xml version="1.0" standalone="no"?>
<!DOCTYPE svg PUBLIC "-//W3C//DTD SVG 20010904//EN"
 "http://www.w3.org/TR/2001/REC-SVG-20010904/DTD/svg10.dtd">
<svg version="1.0" xmlns="http://www.w3.org/2000/svg"
 width="1500.000000pt" height="874.000000pt" viewBox="0 0 1500.000000 874.000000"
 preserveAspectRatio="xMidYMid meet">
<metadata>
Created by potrace 1.16, written by Peter Selinger 2001-2019
</metadata>
<g transform="translate(0.000000,874.000000) scale(0.100000,-0.100000)"
fill="#000000" stroke="none">
<path d="M8046 8312 c-57 -3 -61 -5 -117 -62 -33 -32 -56 -61 -52 -63 5 -3 33
-4 64 -3 55 1 58 3 114 59 31 31 55 60 53 64 -1 5 -29 7 -62 5z"/>
<path d="M7924 7950 l53 -50 74 0 73 0 -49 50 -49 50 -78 0 -77 0 53 -50z"/>
<path d="M7115 6141 c-16 -9 -32 -18 -35 -21 -3 -3 -16 -11 -30 -18 -32 -15
-60 -33 -78 -49 -11 -11 -5 -13 32 -13 25 0 46 -2 46 -4 0 -10 -126 -126 -139
-128 -9 -1 -31 -2 -50 -2 -28 -1 -36 -6 -42 -28 -4 -17 -2 -36 7 -52 46 -85
44 -77 26 -102 -9 -13 -28 -27 -42 -30 -29 -8 -60 -37 -60 -56 0 -9 3 -9 10 2
8 12 11 13 19 1 5 -7 10 -9 12 -3 2 5 31 12 63 14 44 4 55 2 44 -6 -8 -6 -20
-21 -27 -33 -10 -20 -20 -23 -74 -23 -93 0 -110 7 -105 42 4 21 2 25 -6 16 -6
-7 -18 -18 -26 -25 -13 -11 -12 -12 4 -6 13 4 17 3 12 -5 -4 -7 3 -14 18 -18
20 -5 23 -9 13 -19 -7 -7 -15 -11 -19 -9 -3 2 -4 -5 -1 -16 3 -11 1 -20 -4
-20 -11 0 -83 -106 -83 -121 0 -5 -4 -9 -10 -9 -5 0 -12 -11 -16 -25 -3 -14
-10 -25 -15 -25 -6 0 -5 10 2 21 9 17 8 24 -2 31 -11 7 -11 8 1 6 15 -3 20 2
20 22 0 17 -28 11 -39 -7 -14 -24 -14 -7 0 18 5 11 14 17 19 14 6 -3 7 1 4 10
-4 8 -1 22 6 30 7 8 9 15 4 15 -4 0 2 9 14 21 12 11 28 17 35 13 9 -5 9 -3 -1
7 -10 11 -16 11 -32 1 -12 -7 -20 -8 -20 -2 0 5 -6 10 -14 10 -7 0 -19 7 -26
15 -19 22 -27 19 -53 -22 -128 -205 -206 -408 -251 -655 -21 -115 -22 -406 -1
-514 32 -168 58 -264 91 -341 8 -17 14 -37 14 -45 0 -7 7 -22 15 -32 8 -11 15
-28 15 -38 0 -10 5 -18 10 -18 6 0 10 -7 10 -15 0 -8 -6 -15 -14 -15 -26 0
-237 -122 -244 -141 -2 -5 -8 -9 -13 -9 -6 0 -20 -11 -33 -25 -30 -32 -46 -32
-46 0 0 14 -4 25 -9 25 -5 0 -12 12 -16 27 -3 15 -10 30 -13 33 -10 7 -52 68
-52 75 0 3 -32 37 -70 75 -68 67 -94 82 -102 59 -2 -6 -14 -2 -28 10 -21 17
-22 20 -7 21 9 0 17 -4 17 -10 0 -5 5 -10 10 -10 17 0 11 20 -7 27 -10 4 -20
9 -23 13 -4 6 -64 34 -125 60 -88 38 -312 51 -415 25 -73 -19 -99 -29 -152
-63 -20 -13 -41 -21 -47 -18 -5 3 -11 3 -13 -1 -1 -5 -22 -21 -45 -37 -23 -15
-58 -44 -78 -63 -20 -19 -42 -32 -49 -30 -8 3 -22 0 -31 -7 -15 -11 -15 -13
-1 -25 9 -8 16 -19 16 -25 0 -6 15 -18 32 -27 39 -19 46 -35 18 -42 -11 -3
-20 -11 -20 -19 0 -11 2 -10 9 1 5 7 14 10 20 7 16 -11 13 -26 -5 -26 -14 0
-14 -3 -4 -15 7 -8 29 -15 50 -15 32 0 46 9 107 69 66 63 110 91 213 132 23 9
74 13 147 13 114 0 118 -1 243 -57 63 -28 178 -148 214 -222 36 -75 60 -171
47 -193 -11 -20 -12 -18 -32 73 -7 33 -26 85 -42 116 -28 55 -117 159 -136
159 -5 0 -11 6 -14 13 -8 21 -110 65 -190 82 -68 14 -86 14 -161 1 -83 -15
-216 -67 -216 -86 0 -6 -6 -10 -12 -10 -30 -1 -110 -99 -143 -175 -20 -48 -45
-139 -45 -165 0 -12 -7 -20 -16 -20 -13 0 -15 6 -10 33 4 17 9 50 13 72 3 22
10 45 15 52 6 7 5 20 -2 34 -11 19 -10 21 4 16 8 -3 18 -1 22 5 4 6 3 8 -4 4
-6 -3 -13 -2 -16 3 -4 5 6 11 21 14 16 2 4 4 -25 4 -28 1 -54 -2 -57 -7 -2 -4
5 -7 17 -6 15 1 22 -5 23 -21 1 -13 -2 -24 -7 -24 -12 -2 -20 -4 -50 -12 -24
-6 -28 -13 -28 -42 0 -30 -3 -35 -23 -35 -32 0 -33 -34 -1 -49 29 -13 34 -52
5 -44 -19 5 -32 -14 -36 -50 -1 -13 3 -17 14 -14 45 13 46 13 42 -17 -1 -16 3
-32 11 -37 11 -7 10 -11 -2 -19 -10 -6 -11 -10 -2 -10 18 0 15 -24 -6 -43 -23
-21 -32 -21 -32 -1 0 8 -4 12 -10 9 -6 -4 -10 5 -10 19 0 14 5 26 10 26 6 0
10 5 10 10 0 6 -7 10 -15 10 -10 0 -15 -10 -15 -33 0 -19 3 -37 7 -41 20 -19
-7 -84 -29 -70 -13 9 -9 -5 9 -25 9 -11 21 -17 26 -14 6 3 7 1 3 -5 -3 -5 0
-13 6 -15 8 -3 6 -6 -4 -6 -18 -1 -25 -26 -10 -33 4 -1 18 -25 32 -52 46 -88
183 -215 284 -260 98 -45 101 -46 129 -20 21 19 26 21 31 8 3 -9 6 -24 6 -34
0 -23 37 -30 164 -29 95 0 185 17 256 46 14 6 28 8 32 4 4 -3 11 -42 17 -86
11 -86 30 -173 49 -218 7 -16 12 -33 12 -38 0 -5 4 -17 9 -27 5 -9 21 -41 36
-71 32 -64 48 -94 55 -101 3 -3 20 -27 39 -55 52 -76 257 -275 284 -275 4 0
15 -6 22 -12 34 -31 45 -38 69 -44 14 -3 26 -10 26 -14 0 -5 14 -11 30 -15 17
-4 30 -10 30 -15 0 -4 10 -10 23 -13 22 -6 108 -33 137 -45 97 -37 391 -53
510 -27 143 31 196 49 310 105 111 55 201 121 297 218 l92 94 73 -36 c41 -20
77 -36 81 -36 3 0 9 17 12 38 16 98 36 196 45 212 16 29 13 35 -30 54 -39 17
-52 40 -28 48 9 3 13 26 12 68 -1 52 1 59 9 39 9 -22 11 -19 20 31 6 30 14 58
19 61 5 3 12 84 16 180 l7 174 150 17 c142 16 212 30 315 61 43 13 59 19 145
53 73 30 211 101 233 122 7 6 18 12 23 12 5 0 15 5 22 10 7 6 55 42 107 81 99
75 186 158 255 244 22 28 45 56 52 62 22 24 103 151 103 162 0 6 4 11 8 11 4
0 13 14 19 30 23 62 47 26 98 -155 16 -56 19 -60 47 -60 19 0 35 -7 42 -18 9
-15 6 -22 -22 -45 -34 -28 -34 -42 0 -42 11 0 23 11 29 27 7 20 13 23 21 15
17 -17 -22 -66 -55 -70 -27 -3 -27 -5 -27 -79 0 -70 1 -75 20 -70 11 3 34 2
52 -2 27 -6 38 -3 58 16 l25 23 8 -24 c6 -19 17 -25 52 -31 25 -3 49 -3 55 0
5 3 10 1 10 -5 0 -8 6 -8 20 0 11 6 20 15 20 21 0 14 41 48 59 49 8 0 -2 14
-21 30 -27 23 -37 41 -42 74 -6 38 -11 44 -36 50 -21 4 -30 11 -30 25 0 23 19
31 77 31 43 0 84 22 69 38 -4 3 -11 0 -16 -8 -7 -11 -11 -12 -24 0 -14 11 -16
10 -10 -4 5 -13 1 -15 -17 -12 -14 2 -23 9 -21 17 2 8 0 11 -4 7 -4 -4 -14 -2
-23 4 -10 8 -9 4 3 -10 21 -24 16 -28 -17 -10 -19 10 -20 9 -9 -4 11 -14 7
-16 -32 -19 -27 -3 -42 0 -39 6 2 6 -4 0 -15 -12 -11 -13 -26 -23 -34 -23 -20
0 -122 140 -110 152 7 7 28 -12 62 -56 28 -36 55 -66 60 -66 4 0 11 11 14 25
4 14 12 25 20 25 7 0 20 7 27 17 13 15 10 16 -28 10 -41 -7 -73 8 -73 34 0 16
41 50 56 47 24 -5 21 -23 -3 -26 -13 -2 -23 -9 -23 -17 0 -18 96 -14 137 7
l32 16 4 -37 c2 -22 4 -13 5 24 0 33 -2 53 -5 45 -20 -55 -33 -34 -93 153 -15
47 -97 203 -143 273 l-44 66 13 67 c26 126 37 327 25 461 -11 127 -31 257 -42
275 -4 6 -10 30 -14 54 -7 40 -44 144 -81 228 -8 17 -14 36 -14 42 0 6 -4 11
-9 11 -5 0 -12 11 -15 24 -5 21 -22 52 -89 160 -7 11 -16 25 -20 30 -4 6 -18
25 -30 42 -47 66 -94 122 -159 188 -63 64 -82 96 -59 96 10 0 27 39 23 53 -1
4 5 7 13 7 8 0 15 6 15 13 0 6 6 23 13 37 36 69 28 82 -36 55 -45 -19 -51 -19
-43 0 6 17 -12 75 -24 75 -7 0 -70 -118 -70 -133 0 -4 7 -7 15 -7 8 0 15 5 15
12 0 6 2 9 5 6 3 -2 -2 -19 -11 -37 -12 -24 -19 -30 -28 -21 -8 8 -7 13 4 20
12 8 10 10 -7 10 -16 0 -23 -6 -23 -20 0 -16 -5 -19 -30 -13 -24 4 -30 2 -30
-12 0 -9 -9 -28 -20 -42 -11 -14 -23 -47 -26 -74 -8 -57 -31 -72 -63 -40 -24
24 -74 27 -120 8 l-30 -13 30 -18 c23 -13 43 -17 77 -12 42 5 43 4 15 -5 -18
-5 -33 -14 -33 -19 0 -6 -7 -10 -15 -10 -8 0 -15 4 -15 9 0 12 -37 6 -55 -9
-8 -7 -17 -4 -30 10 -10 11 -28 20 -40 20 -23 0 -55 28 -55 48 0 7 7 12 15 12
8 0 19 16 24 38 15 51 14 52 -14 52 -16 0 -25 6 -25 15 0 11 -7 14 -27 10 -16
-3 -23 -3 -16 1 14 7 -2 48 -30 77 -11 11 -16 26 -12 45 3 15 3 22 0 17 -3 -6
-21 -9 -39 -7 -39 4 -109 -15 -101 -28 3 -4 -4 -6 -16 -3 -15 4 -30 -5 -57
-34 -20 -22 -63 -68 -94 -102 -32 -35 -58 -67 -58 -72 0 -5 10 -9 23 -9 49 0
206 -40 322 -84 117 -44 260 -137 377 -244 44 -41 167 -189 178 -215 3 -7 16
-30 30 -52 14 -22 32 -56 41 -75 34 -75 49 -111 49 -121 0 -6 6 -25 14 -42 7
-18 22 -68 32 -112 27 -114 27 -397 0 -505 -22 -86 -53 -183 -65 -208 -5 -9
-24 -48 -43 -85 -18 -38 -39 -73 -45 -79 -7 -6 -13 -15 -13 -20 0 -6 -13 -27
-30 -48 -16 -21 -30 -41 -30 -44 0 -12 -187 -196 -198 -196 -7 0 -12 -4 -12
-8 0 -12 -120 -88 -207 -132 -114 -56 -251 -97 -397 -116 -126 -17 -131 -17
-265 3 -144 23 -233 42 -241 54 -3 3 -20 10 -38 14 -18 4 -45 13 -60 21 -15 8
-33 14 -39 14 -7 0 -13 4 -13 9 0 5 -13 12 -30 16 -16 4 -30 11 -30 16 0 5 -5
9 -12 9 -13 0 -131 79 -136 92 -2 4 -8 8 -13 8 -15 0 -162 150 -211 215 -154
208 -225 409 -234 665 -7 179 11 321 57 450 22 63 119 256 139 278 11 12 20
26 20 32 0 5 4 10 8 10 4 0 15 12 24 28 23 38 124 141 183 188 28 21 52 42 53
47 2 4 7 7 12 7 5 0 32 16 61 35 30 19 59 35 66 35 7 0 13 4 13 9 0 5 14 12
30 16 17 4 30 10 30 15 0 4 18 11 40 15 22 4 40 10 40 15 0 4 18 10 40 14 23
3 49 11 58 16 34 19 140 33 275 37 99 3 137 7 137 16 0 7 9 20 20 30 11 9 20
24 20 32 0 8 4 15 9 15 4 0 21 19 37 43 16 23 35 48 42 55 20 22 14 34 -10 20
-13 -7 -26 -12 -30 -13 -3 0 -9 -3 -12 -6 -19 -19 -190 9 -207 34 -4 5 -9 -3
-13 -17 -3 -14 -11 -26 -16 -26 -14 0 -12 -54 2 -85 10 -22 9 -28 -3 -36 -26
-16 -67 -9 -95 16 -21 20 -37 25 -77 25 l-50 0 20 -22 c16 -18 19 -28 12 -46
-12 -33 -37 -38 -78 -16 -43 22 -51 32 -44 51 5 11 8 12 13 2 6 -9 15 -5 33
14 13 15 31 28 38 29 8 1 -16 4 -53 7 -57 5 -66 8 -58 21 7 11 30 15 96 15
l87 0 35 48 c29 41 32 48 16 46 -10 -2 -25 0 -31 4 -7 4 -23 3 -35 -4 l-23
-12 20 23 20 23 -22 -12 c-13 -6 -23 -16 -23 -21 0 -6 -5 -10 -11 -10 -6 0
-17 -7 -25 -15 -14 -13 -14 -15 0 -15 9 0 16 -4 16 -10 0 -5 -21 -9 -47 -9
-69 2 -70 1 -76 -22 -4 -14 -11 -20 -21 -16 -10 4 -29 -7 -50 -29 l-35 -36
-28 26 c-30 28 -43 32 -43 14 0 -9 -3 -9 -11 -1 -7 7 -21 8 -39 3 -15 -4 -41
-5 -56 0 -85 22 -96 38 -39 60 33 13 33 14 15 27 -10 7 -17 20 -14 27 3 8 1
17 -5 20 -6 4 -8 13 -5 21 3 8 0 20 -8 28 -11 11 -18 10 -43 -2z m-537 -2574
c2 -11 -3 -17 -14 -17 -16 0 -136 -56 -178 -83 -112 -71 -222 -196 -275 -312
-13 -27 -28 -58 -33 -68 -5 -10 -13 -39 -18 -65 -6 -26 -15 -72 -21 -102 -13
-62 -7 -190 11 -265 36 -144 119 -289 224 -390 81 -77 95 -87 175 -126 89 -43
95 -46 176 -65 161 -39 403 -9 526 66 19 11 41 23 49 27 41 18 147 113 196
177 50 63 134 218 134 247 0 6 7 32 16 58 12 38 15 82 12 194 l-3 145 32 -1
c18 -1 28 -4 22 -8 -8 -4 -9 -24 -4 -60 37 -267 -81 -561 -290 -725 -27 -21
-52 -41 -55 -44 -9 -9 -44 -29 -90 -50 -159 -75 -206 -85 -382 -84 -86 0 -152
5 -160 11 -7 6 -30 13 -51 17 -90 17 -252 112 -343 203 -100 100 -162 201
-198 323 -10 30 -21 69 -27 87 -16 50 -12 301 6 348 8 22 14 48 15 58 0 9 4
25 9 35 5 9 24 47 41 85 41 84 111 178 181 240 71 62 77 67 85 67 4 0 15 6 23
14 9 8 40 27 70 41 94 47 133 54 139 22z m-1692 -260 c11 -53 63 -151 102
-194 105 -113 223 -165 381 -166 77 0 105 4 143 22 26 11 52 21 57 21 6 0 11
5 11 10 0 6 5 10 12 10 6 0 26 11 44 25 33 26 53 21 31 -8 -18 -22 -119 -73
-174 -88 -81 -20 -207 -23 -266 -4 -84 26 -174 76 -227 127 -28 26 -50 50 -50
53 0 8 -44 69 -52 73 -5 2 -8 10 -8 18 0 8 -6 27 -14 42 -7 15 -16 44 -20 64
-6 31 -4 37 8 32 8 -3 18 -20 22 -37z m2080 -366 c-3 -5 7 -14 23 -21 22 -9
30 -20 35 -48 3 -21 1 -38 -4 -40 -6 -2 -10 -9 -10 -14 0 -15 -58 -66 -83 -74
-28 -9 -70 26 -85 72 -16 47 -9 104 15 121 19 15 117 18 109 4z"/>
<path d="M6575 5923 c-26 -3 -50 -14 -67 -31 -37 -34 -35 -42 9 -35 29 5 35 3
28 -8 -15 -25 -69 -93 -98 -124 -19 -20 -27 -37 -24 -52 2 -13 0 -23 -6 -23
-6 0 -8 -2 -5 -5 10 -11 38 8 36 24 -2 9 4 16 12 16 21 0 31 16 23 40 -5 17
-4 18 9 7 13 -10 17 -10 22 3 3 9 2 13 -4 10 -6 -3 -10 -2 -10 4 0 10 50 74
63 79 4 2 7 10 7 18 0 8 7 14 15 14 8 0 15 5 15 10 0 6 12 2 28 -9 33 -23 79
-35 87 -21 3 5 12 7 19 4 28 -11 25 15 -4 36 -23 16 -37 20 -66 14 -34 -6 -37
-5 -31 15 3 13 1 20 -6 19 -7 -1 -30 -3 -52 -5z"/>
<path d="M7715 5760 c-22 -5 -67 -14 -100 -21 -33 -6 -64 -15 -70 -19 -5 -4
-25 -11 -42 -15 -18 -3 -33 -11 -33 -16 0 -5 -5 -9 -11 -9 -16 0 -103 -43
-107 -52 -2 -5 -10 -8 -17 -8 -18 0 -156 -105 -226 -172 -67 -64 -135 -152
-192 -250 -38 -65 -52 -94 -89 -188 -42 -105 -52 -175 -52 -370 -1 -201 2
-224 51 -370 25 -76 84 -191 136 -270 46 -68 185 -217 248 -265 55 -43 89 -65
99 -65 5 0 10 -4 10 -8 0 -5 24 -19 54 -33 30 -13 52 -27 50 -30 -2 -4 14 -9
36 -13 22 -3 40 -10 40 -15 0 -19 279 -71 381 -71 80 0 220 18 281 36 26 8 55
14 65 14 10 0 31 7 47 15 15 8 32 15 37 15 9 0 141 63 174 83 60 37 166 121
223 179 98 97 182 227 248 383 94 222 100 560 13 785 -11 30 -24 64 -28 75
-23 60 -45 105 -53 105 -4 0 -8 4 -8 10 0 5 -22 42 -50 82 -84 125 -235 263
-375 345 -38 22 -108 53 -119 53 -7 0 -16 4 -21 9 -10 8 -107 38 -200 62 -60
15 -343 21 -400 9z m412 -912 c15 -7 39 -24 53 -37 14 -13 19 -21 11 -16 -10
6 -12 4 -7 -4 5 -7 14 -10 21 -7 9 3 11 -2 7 -16 -3 -14 -1 -19 6 -14 14 8
-13 -89 -33 -119 -23 -35 -55 -65 -70 -65 -8 0 -15 -4 -15 -8 0 -12 -48 -13
-55 -2 -4 6 -10 8 -15 5 -11 -7 -80 74 -80 94 0 9 -4 21 -10 27 -10 10 -18
110 -10 117 3 1 20 15 38 30 26 21 44 27 82 27 27 0 61 -6 77 -12z"/>
<path d="M9355 2821 c-3 -11 -11 -21 -16 -21 -5 0 -9 -5 -9 -10 0 -14 -72
-110 -82 -110 -4 0 -8 -4 -8 -10 0 -5 -20 -31 -45 -57 -24 -26 -45 -52 -45
-58 0 -5 14 -25 30 -44 35 -39 34 -37 14 -45 -9 -4 -13 -2 -8 5 5 8 1 8 -14 0
-11 -6 -22 -15 -24 -21 -1 -5 -37 23 -79 63 -146 140 -316 195 -539 175 -90
-8 -220 -44 -220 -60 0 -5 -5 -8 -10 -8 -12 0 -73 -41 -78 -52 -2 -5 -8 -8
-12 -8 -12 0 -110 -99 -110 -111 0 -5 -6 -12 -14 -15 -8 -3 -24 -28 -37 -55
-13 -27 -27 -49 -31 -49 -5 0 -8 -7 -8 -16 0 -9 -6 -28 -14 -42 -75 -142 -52
-437 45 -574 25 -34 24 -38 -6 -38 -21 0 -25 -5 -25 -29 0 -16 6 -31 15 -35
18 -6 45 2 45 15 0 13 -18 11 -23 -3 -4 -8 -6 -7 -6 4 -1 9 -7 18 -13 21 -8 2
-9 8 -4 13 5 5 11 4 13 -3 3 -7 13 -13 23 -13 10 0 52 -33 93 -72 103 -101
195 -147 361 -182 67 -14 101 -26 104 -36 3 -13 2 -13 -7 0 -6 9 -11 10 -11 3
0 -26 13 -43 35 -43 28 0 41 27 17 33 -16 4 -15 5 1 6 9 0 17 7 17 14 0 9 25
18 68 26 72 13 78 16 162 56 95 46 106 53 181 123 40 37 80 66 88 64 9 -2 22
-4 29 -5 8 -1 21 8 29 20 13 20 13 21 -6 16 -16 -4 -21 -1 -21 13 0 16 2 17
10 4 7 -10 10 -11 10 -2 0 7 -6 15 -14 18 -12 5 -11 12 6 42 46 82 60 150 61
292 1 136 -7 184 -49 277 -8 17 -14 36 -14 42 0 6 -4 11 -10 11 -5 0 -10 6
-10 14 0 8 -7 22 -16 30 -14 15 -13 16 11 16 14 0 28 7 31 15 8 19 24 20 24 1
0 -7 6 -18 13 -24 6 -6 21 -33 32 -61 11 -28 24 -51 31 -51 14 0 194 185 194
199 0 6 4 11 9 11 10 0 51 61 51 76 0 5 -10 14 -22 19 -15 7 -22 17 -20 30 15
88 4 145 -27 145 -6 0 -11 7 -11 15 0 8 5 15 10 15 18 0 10 17 -12 27 -27 12
-51 6 -41 -10 5 -9 3 -9 -8 -1 -8 5 -25 9 -39 8 -14 -1 -28 3 -31 9 -4 5 -10
0 -14 -12z m-549 -192 c38 -12 71 -24 74 -28 3 -3 23 -15 45 -26 46 -23 72
-43 133 -103 24 -23 48 -40 53 -37 5 4 6 -1 3 -9 -3 -8 3 -23 13 -33 26 -28
67 -113 97 -207 29 -90 14 -325 -24 -370 -4 -6 -8 -13 -8 -16 -1 -3 -5 -18
-11 -33 -6 -16 -11 -33 -11 -38 0 -5 -4 -9 -10 -9 -5 0 -10 -5 -10 -11 0 -7
-8 -18 -17 -26 -10 -8 -12 -11 -4 -7 9 5 7 -2 -5 -18 -10 -15 -21 -25 -24 -25
-3 1 -6 -1 -8 -5 -3 -8 -80 -85 -105 -105 -9 -7 -20 -13 -25 -13 -5 0 -15 -7
-22 -15 -7 -8 -21 -15 -31 -15 -11 0 -19 -4 -19 -9 0 -11 -103 -47 -160 -56
-98 -15 -128 -15 -205 -4 -91 14 -246 82 -304 133 -74 67 -84 76 -78 76 3 0
-12 19 -33 41 -22 23 -37 46 -34 50 3 5 0 9 -5 9 -6 0 -10 3 -9 8 1 4 -11 33
-25 66 -15 32 -27 69 -27 83 0 13 -5 33 -10 44 -17 30 -14 157 4 244 25 117
84 220 179 316 43 44 82 79 85 79 6 -1 70 30 157 74 58 29 280 26 381 -5z"/>
<path d="M8366 2533 c-10 -3 -24 -9 -30 -14 -48 -40 -60 -49 -67 -49 -11 0
-109 -99 -109 -110 0 -6 -3 -10 -8 -10 -7 0 -38 -56 -65 -120 -9 -19 -23 -75
-32 -123 -14 -69 -15 -97 -7 -130 6 -23 14 -62 18 -87 3 -25 10 -49 14 -55 4
-5 11 -21 15 -35 21 -73 145 -217 218 -254 17 -9 39 -21 47 -26 13 -7 32 -15
60 -25 3 -1 12 -5 21 -9 28 -12 192 -21 258 -14 35 4 80 14 100 23 69 31 106
50 117 60 6 6 22 17 34 25 22 15 51 42 98 93 27 31 52 77 51 97 0 8 -5 2 -11
-14 -6 -16 -20 -40 -32 -54 -34 -39 -96 -102 -100 -102 -3 0 -17 -11 -32 -25
-15 -14 -38 -28 -51 -31 -13 -4 -23 -10 -23 -14 0 -5 -15 -12 -32 -15 -18 -4
-39 -12 -46 -18 -8 -6 -65 -13 -127 -15 -88 -4 -126 -1 -172 13 -86 26 -158
63 -207 105 -60 53 -76 69 -76 78 0 6 -6 12 -13 15 -8 3 -33 43 -57 89 -43 83
-43 83 -48 212 -4 115 -2 136 19 202 13 41 26 74 30 74 4 0 10 11 13 25 4 14
11 25 16 25 6 0 10 6 10 13 0 17 94 116 135 142 45 30 77 46 105 55 19 7 21 8
5 8 -11 0 -29 -3 -39 -5z"/>
<path d="M8475 2513 c-44 -16 -109 -47 -140 -66 -62 -37 -167 -166 -181 -221
-3 -14 -10 -26 -14 -26 -6 0 -20 -47 -24 -82 -1 -3 -4 -10 -8 -14 -5 -4 -8
-28 -7 -53 l1 -46 10 35 c5 19 14 60 19 90 6 30 14 57 19 58 6 2 10 10 10 19
0 29 44 94 111 162 48 49 66 62 124 89 28 13 58 28 69 33 27 15 183 22 246 11
52 -10 51 -10 -35 -7 -49 1 -72 1 -50 -2 22 -2 44 -8 50 -14 5 -5 20 -9 33 -9
30 0 154 -62 190 -95 27 -26 42 -31 42 -17 0 14 -70 66 -129 95 -47 24 -51 27
-22 21 19 -3 41 -13 49 -20 7 -8 18 -14 23 -14 12 0 27 -12 82 -65 63 -61 86
-92 92 -122 5 -26 5 -26 -4 -5 -6 12 -15 28 -21 35 -6 6 -21 25 -35 42 -34 41
-43 24 -11 -18 17 -22 23 -38 17 -42 -6 -3 -11 0 -11 8 0 13 -80 102 -80 89 0
-4 -4 -2 -8 4 -12 19 -108 74 -129 74 -10 0 -23 4 -29 10 -6 6 -21 6 -39 1
l-30 -9 30 -1 c35 -1 148 -55 189 -91 43 -37 106 -119 106 -138 0 -9 -13 4
-29 29 -40 59 -49 69 -96 104 -67 50 -100 64 -161 69 -54 5 -56 5 -16 -4 40
-9 128 -48 154 -69 67 -54 119 -123 117 -156 0 -15 -3 -13 -11 9 -10 27 -25
47 -75 102 -21 22 -43 32 -43 18 0 -4 18 -24 39 -46 43 -42 86 -120 78 -140
-3 -7 -6 -3 -6 10 -1 12 -5 22 -11 22 -5 0 -10 5 -10 10 0 34 -110 146 -152
155 -15 4 -30 11 -33 16 -4 5 -18 8 -33 8 -20 -1 -22 -3 -8 -6 67 -17 164 -93
191 -149 24 -50 18 -62 -8 -14 -23 43 -47 63 -47 39 0 -6 7 -17 14 -23 8 -6
18 -24 21 -41 l7 -30 -22 35 c-37 59 -104 110 -143 110 -7 0 2 -7 18 -16 77
-39 136 -127 134 -197 -2 -32 -3 -35 -6 -12 -6 45 -23 86 -55 126 -27 35 -82
69 -110 69 -7 -1 1 -7 18 -14 76 -33 125 -112 122 -196 -1 -53 -2 -53 -5 -10
-2 25 -11 60 -20 79 -20 43 -78 104 -94 99 -6 -2 5 -16 25 -31 20 -16 36 -35
36 -43 0 -8 5 -12 10 -9 6 3 10 3 11 -2 0 -4 4 -43 7 -85 4 -43 4 -74 -1 -71
-5 3 -7 -7 -5 -23 3 -16 3 -23 1 -16 -6 17 -23 15 -23 -2 0 -8 -5 -16 -11 -18
-6 -2 -1 -12 10 -22 12 -11 21 -14 21 -8 0 7 -4 12 -10 12 -5 0 -10 5 -10 12
0 9 3 9 12 0 9 -9 16 -8 31 6 20 17 20 17 2 -13 -10 -16 -25 -36 -34 -42 -19
-17 2 -17 32 -2 l22 12 -22 -25 c-13 -13 -23 -27 -23 -31 0 -8 33 4 41 15 3 5
6 -6 6 -24 0 -20 -8 -40 -19 -49 -25 -23 -23 -30 8 -19 14 6 27 10 30 10 10 0
-37 -40 -48 -41 -7 0 -2 -5 12 -10 18 -8 21 -12 11 -18 -8 -6 -9 -11 -3 -15 6
-3 13 -2 17 4 10 16 25 12 19 -5 -4 -8 -12 -15 -19 -15 -7 0 -18 -7 -25 -15
-10 -12 -10 -15 4 -15 9 0 16 5 16 11 0 5 5 7 11 4 16 -11 -22 -33 -98 -56
-58 -18 -85 -21 -183 -17 -85 4 -103 3 -70 -4 57 -12 269 -5 295 10 11 6 43
21 70 33 48 22 175 136 175 157 0 6 3 12 8 14 13 6 42 72 62 143 43 149 14
300 -83 433 -63 87 -149 146 -271 186 -63 20 -215 20 -271 -1z"/>
<path d="M8550 2183 c0 -5 -20 -17 -45 -28 -24 -10 -47 -25 -50 -33 -3 -8 0
-10 8 -6 6 4 4 -2 -5 -13 -22 -24 -23 -78 -4 -124 18 -42 60 -89 81 -89 8 0
15 -6 15 -12 0 -9 3 -8 9 2 10 15 5 33 -8 26 -4 -3 -8 5 -8 17 -1 12 -7 40
-14 63 -15 50 -8 81 28 120 35 39 133 70 133 42 0 -4 4 -8 10 -8 5 0 7 6 4 13
-9 23 -154 51 -154 30z"/>
</g>
</svg>
