<?xml version="1.0" encoding="UTF-8" standalone="no"?>
<svg
   id="Layer_1"
   data-name="Layer 1"
   viewBox="0 0 455.26 455.26"
   version="1.1"
   sodipodi:docname="fav.svg"
   inkscape:version="1.1.1 (3bf5ae0d25, 2021-09-20)"
   xmlns:inkscape="http://www.inkscape.org/namespaces/inkscape"
   xmlns:sodipodi="http://sodipodi.sourceforge.net/DTD/sodipodi-0.dtd"
   xmlns="http://www.w3.org/2000/svg"
   xmlns:svg="http://www.w3.org/2000/svg">
  <sodipodi:namedview
     id="namedview22"
     pagecolor="#505050"
     bordercolor="#ffffff"
     borderopacity="1"
     inkscape:pageshadow="0"
     inkscape:pageopacity="0"
     inkscape:pagecheckerboard="1"
     showgrid="false"
     inkscape:zoom="0.40383025"
     inkscape:cx="-835.7472"
     inkscape:cy="-26.001024"
     inkscape:window-width="1366"
     inkscape:window-height="705"
     inkscape:window-x="-8"
     inkscape:window-y="-8"
     inkscape:window-maximized="1"
     inkscape:current-layer="Layer_1" />
  <defs
     id="defs13">
    <style
       id="style2">.cls-1{fill:url(#linear-gradient);}.cls-2{fill:#ffe404;}.cls-3{fill:none;stroke:#fff;stroke-miterlimit:10;stroke-width:4px;}</style>
    <linearGradient
       id="linear-gradient"
       x1="506.45"
       y1="431.98"
       x2="902.41"
       y2="302.45"
       gradientUnits="userSpaceOnUse">
      <stop
         offset="0"
         stop-color="#c5fac4"
         id="stop4" />
      <stop
         offset="0.3"
         stop-color="#4fcac4"
         id="stop6" />
      <stop
         offset="0.54"
         stop-color="#36aac4"
         id="stop8" />
      <stop
         offset="1"
         stop-color="#0065c4"
         id="stop10" />
    </linearGradient>
  </defs>
  <path
     class="cls-1"
     d="M780.11,222.81,728,287.08a3.72,3.72,0,0,0,.33,5.06A119.3,119.3,0,0,1,742,307.2a3.72,3.72,0,0,0,5,.82l69.1-45.54a3.71,3.71,0,0,0,1-5.26,208.79,208.79,0,0,0-31.7-34.89A3.73,3.73,0,0,0,780.11,222.81Zm-108.93-47-6.5,82.6a3.72,3.72,0,0,0,3.1,4h0a3.73,3.73,0,0,0,4.28-3.06l13.59-81.54a3.73,3.73,0,0,0-3-4.28q-3.58-.6-7.22-1.08A3.74,3.74,0,0,0,671.18,175.83ZM721.51,188l-29.29,77.34a3.74,3.74,0,0,0,2.07,4.77q1.77.75,3.51,1.56a3.74,3.74,0,0,0,4.89-1.57l39.5-72.74a3.72,3.72,0,0,0-1.59-5.1c-4.64-2.31-9.4-4.45-14.23-6.41A3.72,3.72,0,0,0,721.51,188Zm-31.14-9-13.64,81.79a3.75,3.75,0,0,0,2.74,4.21c1.19.33,2.37.68,3.55,1a3.71,3.71,0,0,0,4.6-2.2L717,186.37a3.72,3.72,0,0,0-2.26-4.84,203.8,203.8,0,0,0-19.85-5.6A3.71,3.71,0,0,0,690.37,179Zm-38.18-4.42v82.75a3.72,3.72,0,0,0,3.49,3.71l.26,0a3.76,3.76,0,0,0,3.95-3.43l6.49-82.4a3.72,3.72,0,0,0-3.43-4q-3.45-.24-6.93-.37A3.73,3.73,0,0,0,652.19,174.54Zm169.31,96-69.13,45.53a3.75,3.75,0,0,0-1.17,5A117,117,0,0,1,762,347.42a3.74,3.74,0,0,0,4.29,2.72l81.42-15.29a3.71,3.71,0,0,0,2.94-4.49,206.52,206.52,0,0,0-24-58.61A3.72,3.72,0,0,0,821.5,270.59ZM714,477a117.38,117.38,0,0,1-51.28,19.15,3.73,3.73,0,0,0-3.32,3.69v83a3.71,3.71,0,0,0,4,3.71A207,207,0,0,0,771.19,547a3.71,3.71,0,0,0,.64-5.35l-52.9-63.88A3.7,3.7,0,0,0,714,477ZM571.27,473l-58.74,58.74a3.72,3.72,0,0,0,.18,5.44,207.34,207.34,0,0,0,121.74,49.6,3.72,3.72,0,0,0,3.94-3.72v-83a3.74,3.74,0,0,0-3.36-3.7,117.51,117.51,0,0,1-58.82-23.69A3.74,3.74,0,0,0,571.27,473Zm-44.93-93.8H443.66a3.73,3.73,0,0,0-3.73,3.77,207.28,207.28,0,0,0,50,131.44,3.71,3.71,0,0,0,5.44.18l58.75-58.75a3.7,3.7,0,0,0,.29-4.88,117.61,117.61,0,0,1-24.39-68.21A3.69,3.69,0,0,0,526.34,379.15Zm231.42,43.92a118.05,118.05,0,0,1-25,38.26,3.74,3.74,0,0,0-.24,5l52.92,63.87a3.7,3.7,0,0,0,5.39.36,208.26,208.26,0,0,0,53.48-81.71,3.7,3.7,0,0,0-2.48-4.79l-79.73-23.17A3.63,3.63,0,0,0,757.76,423.07ZM849.89,346l-81.37,15.27a3.71,3.71,0,0,0-3,4,118.88,118.88,0,0,1-1.61,37.45,3.71,3.71,0,0,0,2.63,4.3l79.53,23.1a3.71,3.71,0,0,0,4.65-2.67,210,210,0,0,0,3.56-78.39A3.71,3.71,0,0,0,849.89,346Zm-102-145.54-39.48,72.7a3.71,3.71,0,0,0,1.29,4.92q4.26,2.61,8.28,5.56a3.71,3.71,0,0,0,5-.68l52.11-64.24a3.71,3.71,0,0,0-.6-5.29A211.94,211.94,0,0,0,753,199,3.71,3.71,0,0,0,747.89,200.43Z"
     transform="translate(-420.91 -151.27)"
     id="path15" />
  <path
     class="cls-2"
     d="M716.35,400.5l-53.46,48.37C639.52,470,602,457.93,595.4,427.12l-15.16-70.48c-6.63-30.81,22.58-57.24,52.58-47.58l68.62,22.12C731.43,340.84,739.72,379.36,716.35,400.5Z"
     transform="translate(-420.91 -151.27)"
     id="path17" />
  <circle
     class="cls-3"
     cx="227.63"
     cy="227.63"
     r="225.63"
     id="circle19" />
</svg>
