<?xml version="1.0" encoding="utf-8"?>
<!-- Generator: Adobe Illustrator 24.1.1, SVG Export Plug-In . SVG Version: 6.00 Build 0)  -->
<svg version="1.1" id="Layer_1" xmlns="http://www.w3.org/2000/svg" xmlns:xlink="http://www.w3.org/1999/xlink" x="0px" y="0px"
	 viewBox="0 0 1366 768" style="enable-background:new 0 0 1366 768;" xml:space="preserve">
<style type="text/css">
	.st0{fill:url(#SVGID_1_);}
	.st1{fill:#FFE404;}
	.st2{fill:none;stroke:#000000;stroke-width:4;stroke-miterlimit:10;}
</style>
<linearGradient id="SVGID_1_" gradientUnits="userSpaceOnUse" x1="506.4469" y1="431.9798" x2="902.4145" y2="302.4468">
	<stop  offset="0" style="stop-color:#C5FAC4"/>
	<stop  offset="0.2961" style="stop-color:#4FCAC4"/>
	<stop  offset="0.5424" style="stop-color:#36AAC4"/>
	<stop  offset="1" style="stop-color:#0065C4"/>
</linearGradient>
<path class="st0" d="M780.11,222.81l-52.12,64.27c-1.23,1.51-1.1,3.74,0.33,5.06c4.99,4.61,9.58,9.65,13.71,15.06
	c1.19,1.55,3.39,1.89,5.02,0.82l69.09-45.54c1.76-1.16,2.22-3.56,0.99-5.26c-9.23-12.79-19.87-24.5-31.7-34.88
	C783.86,220.95,781.44,221.18,780.11,222.81z M671.18,175.83l-6.5,82.6c-0.15,1.92,1.19,3.64,3.1,3.96l0,0
	c2.03,0.34,3.95-1.04,4.28-3.06l13.59-81.54c0.33-2-1.02-3.94-3.02-4.28c-2.39-0.4-4.8-0.76-7.22-1.08
	C673.28,172.15,671.35,173.69,671.18,175.83z M721.51,188.01l-29.29,77.35c-0.72,1.89,0.22,3.97,2.08,4.76
	c1.18,0.5,2.35,1.02,3.51,1.56c1.8,0.84,3.94,0.17,4.89-1.57l39.5-72.74c1-1.84,0.29-4.17-1.59-5.1c-4.65-2.31-9.4-4.44-14.24-6.41
	C724.44,185.08,722.24,186.06,721.51,188.01z M690.37,178.96l-13.63,81.8c-0.32,1.9,0.88,3.7,2.74,4.21
	c1.19,0.33,2.37,0.67,3.55,1.04c1.89,0.59,3.91-0.36,4.61-2.2l29.33-77.43c0.74-1.96-0.27-4.17-2.26-4.84
	c-6.48-2.19-13.1-4.06-19.85-5.6C692.76,175.45,690.72,176.86,690.37,178.96z M652.19,174.54l0,82.74c0,1.96,1.53,3.59,3.49,3.71
	l0.26,0.02c2.01,0.13,3.79-1.41,3.94-3.42l6.49-82.4c0.16-2.05-1.37-3.87-3.42-4.01c-2.3-0.16-4.61-0.28-6.93-0.37
	C653.92,170.74,652.19,172.45,652.19,174.54z M821.5,270.59l-69.13,45.53c-1.65,1.09-2.13,3.25-1.17,4.97
	c4.62,8.22,8.28,17.04,10.84,26.32c0.52,1.89,2.36,3.08,4.29,2.72l81.42-15.29c2.08-0.39,3.44-2.44,2.95-4.49
	c-4.99-20.94-13.16-40.66-23.97-58.61C825.64,269.95,823.26,269.43,821.5,270.59z M714,477.04c-15.02,10.1-32.46,16.84-51.28,19.15
	c-1.88,0.23-3.32,1.8-3.32,3.7v83.02c0,2.15,1.82,3.87,3.96,3.72c40.17-2.89,77.19-17.19,107.83-39.67c1.72-1.26,2-3.72,0.64-5.36
	l-52.9-63.88C717.71,476.25,715.58,475.97,714,477.04z M571.27,472.95l-58.74,58.74c-1.53,1.53-1.45,4.04,0.18,5.45
	c33.16,28.43,75.39,46.59,121.74,49.6c2.13,0.14,3.94-1.58,3.94-3.72v-82.96c0-1.92-1.46-3.49-3.36-3.7
	c-21.98-2.42-42.15-10.89-58.82-23.69C574.71,471.51,572.61,471.61,571.27,472.95z M526.34,379.15h-82.67
	c-2.07,0-3.77,1.7-3.73,3.77c0.94,50.15,19.61,95.96,50.03,131.44c1.4,1.64,3.92,1.71,5.44,0.18l58.76-58.76
	c1.32-1.32,1.42-3.4,0.28-4.88c-14.61-19-23.58-42.57-24.39-68.21C529.99,380.71,528.33,379.15,526.34,379.15z M757.76,423.07
	c-5.77,14.37-14.32,27.35-24.95,38.26c-1.34,1.38-1.46,3.52-0.24,5l52.91,63.88c1.36,1.64,3.84,1.82,5.4,0.36
	c23.78-22.39,42.29-50.31,53.48-81.71c0.72-2.01-0.44-4.2-2.48-4.8l-79.73-23.17C760.34,420.36,758.46,421.32,757.76,423.07z
	 M849.89,345.97l-81.37,15.27c-1.9,0.36-3.24,2.11-3.02,4.03c0.52,4.48,0.79,9.03,0.79,13.65c0,8.16-0.83,16.11-2.4,23.8
	c-0.39,1.89,0.78,3.75,2.63,4.29l79.53,23.11c2.03,0.59,4.16-0.62,4.65-2.68c3.73-15.57,5.69-31.82,5.69-48.53
	c0-10.14-0.72-20.11-2.13-29.86C853.96,346.98,851.96,345.58,849.89,345.97z M747.89,200.43l-39.48,72.7
	c-0.94,1.72-0.39,3.9,1.29,4.92c2.84,1.74,5.6,3.59,8.28,5.56c1.58,1.16,3.81,0.84,5.05-0.68l52.11-64.23
	c1.31-1.62,1.05-4.02-0.6-5.29c-6.85-5.24-14.04-10.05-21.52-14.43C751.21,197.91,748.89,198.59,747.89,200.43z"/>
<path class="st1" d="M716.35,400.5l-53.46,48.37c-23.37,21.15-60.87,9.06-67.49-21.75l-15.16-70.48
	c-6.63-30.81,22.58-57.24,52.58-47.58l68.61,22.11C731.43,340.84,739.72,379.36,716.35,400.5z"/>
<circle class="st2" cx="648.54" cy="378.89" r="225.63"/>
</svg>
